<?xml version="1.0" standalone="no"?>
<!DOCTYPE svg PUBLIC "-//W3C//DTD SVG 1.1//EN" "http://www.w3.org/Graphics/SVG/1.1/DTD/svg11.dtd" >
<svg xmlns="http://www.w3.org/2000/svg" xmlns:xlink="http://www.w3.org/1999/xlink" version="1.1">
<metadata>
Created by FontForge 20150824 at Wed May  4 19:17:06 2016
 By Everything Fonts
Copyright Parisine (c)tm 1995-2005, Created by Jean Francois Porchez. Distributed exclusively by Porchez Typofonderie. All rights reserved. Signage typeface of the RATP, France. Parisine is a trademark of RATP.
</metadata>
<defs>
<font id="parisineofficeitalic" horiz-adv-x="500" >
  <font-face 
    font-family="parisineofficeitalic"
    font-weight="400"
    font-style="italic"
    font-stretch="normal"
    units-per-em="1000"
    panose-1="2 11 5 3 5 0 0 2 0 4"
    ascent="800"
    descent="-200"
    x-height="464"
    cap-height="706"
    bbox="-205 -283 1502 1085"
    underline-thickness="20"
    underline-position="-163"
    slope="-12"
    unicode-range="U+0020-FB06"
  />
<missing-glyph horiz-adv-x="520" 
d="M402 482q0 -30 -11 -55t-28.5 -46t-38.5 -39t-42 -34l-5 -104h-50l-8 123q17 15 36 30t35.5 32.5t27 38t10.5 46.5q0 36 -23 62t-63 26q-35 0 -60.5 -16t-40.5 -39q-8 13 -15.5 24.5t-15.5 24.5q26 29 61 46t83 17q29 0 56 -9.5t47.5 -27t32.5 -43t12 -57.5zM295 118
q0 -19 -12 -31t-32 -12t-32 12t-12 31t12 31t32 12t32 -12t12 -31zM520 0h-520v706h520v-706zM34 34h452v638h-452v-638z" />
    <glyph glyph-name="f_b" unicode="fb" horiz-adv-x="795" 
d="M449 376q15 16 33.5 34t40 33t46 25t50.5 10q34 0 57.5 -14t38 -37t21 -52t6.5 -58q0 -56 -16.5 -114.5t-49.5 -106.5t-82 -78.5t-114 -30.5q-34 0 -62.5 10t-44.5 33l-6 -30h-82l145 678q-13 2 -30 3t-31 1q-38 0 -63.5 -10.5t-42 -28t-26 -39t-13.5 -43.5l-23 -105h122
l-12 -61h-124l-88 -416q-20 -97 -70 -145.5t-127 -48.5q-26 0 -50 6t-45 20l29 64q29 -26 67 -26q49 0 74.5 35t37.5 95l88 416h-83l13 61h83l23 109q9 40 27 74t47.5 59t71 39t96.5 14q36 0 73.5 -3t72.5 -8zM653 299q0 43 -15 73t-52 30q-21 0 -41 -10t-38.5 -25.5
t-34 -33.5t-27.5 -33q-16 -19 -20 -42l-30 -138q-4 -19 2 -32.5t18.5 -22t28.5 -12.5t33 -4q48 0 81.5 24.5t54.5 62t30.5 81t9.5 82.5z" />
    <glyph glyph-name="f_f_b" unicode="ffb" horiz-adv-x="1061" 
d="M715 376q15 16 33.5 34t40 33t46 25t50.5 10q34 0 57.5 -14t38 -37t21 -52t6.5 -58q0 -56 -16.5 -114.5t-49.5 -106.5t-82 -78.5t-114 -30.5q-34 0 -62.5 10t-44.5 33l-6 -30h-82l145 678q-13 2 -30 3t-31 1q-38 0 -63.5 -10.5t-42 -28t-26 -39t-13.5 -43.5l-23 -105h122
l-12 -61h-124l-86 -406q-20 -97 -70 -145.5t-127 -48.5q-25 0 -49.5 6t-45.5 20l29 62q28 -25 67 -25q49 0 74.5 34.5t37.5 94.5l86 408h-182l-88 -416q-20 -97 -70 -145.5t-127 -48.5q-26 0 -50 6t-45 20l29 64q29 -26 67 -26q49 0 74.5 35t37.5 95l88 416h-83l13 61h83
l21 99q7 36 23.5 70t43.5 59.5t64.5 41t87.5 15.5q38 0 71 -10.5t57 -30.5q29 24 69 37.5t94 13.5q36 0 73.5 -3t72.5 -8zM919 299q0 43 -15 73t-52 30q-21 0 -41 -10t-38.5 -25.5t-34 -33.5t-27.5 -33q-16 -19 -20 -42l-30 -138q-4 -19 2 -32.5t18.5 -22t28.5 -12.5t33 -4
q48 0 81.5 24.5t54.5 62t30.5 81t9.5 82.5zM354 673q-32 0 -54.5 -10t-38.5 -27t-25 -38.5t-14 -45.5l-21 -96h181l23 109q9 44 30 80q-31 28 -81 28z" />
    <glyph glyph-name="f_h" unicode="fh" horiz-adv-x="805" 
d="M429 677q-13 2 -29.5 3.5t-30.5 1.5q-38 0 -63.5 -10.5t-42 -28t-26 -39t-13.5 -43.5l-23 -105h122l-12 -61h-124l-88 -416q-20 -97 -70 -145.5t-127 -48.5q-26 0 -50 6t-45 20l29 64q29 -26 67 -26q49 0 74.5 35t37.5 95l88 416h-83l13 61h83l23 109q9 40 27 74t47.5 59
t71 39t96.5 14q36 0 73.5 -3t72.5 -8l-79 -365q17 18 37 36.5t43 33t49 24t55 9.5q50 0 80.5 -29.5t30.5 -76.5q0 -17 -2.5 -34t-5.5 -32l-64 -306h-85l61 292q2 11 4 23t2 24q0 33 -17 48t-43 15q-21 0 -42.5 -10t-41.5 -26t-36.5 -34.5t-28.5 -34.5q-16 -21 -19 -40
l-55 -257h-85z" />
    <glyph glyph-name="f_f_h" unicode="ffh" horiz-adv-x="1071" 
d="M696 677q-14 2 -30.5 3.5t-30.5 1.5q-38 0 -63.5 -10.5t-42 -28t-26 -39t-13.5 -43.5l-23 -105h122l-12 -61h-124l-86 -406q-20 -97 -70 -145.5t-127 -48.5q-25 0 -49.5 6t-45.5 20l29 64q29 -26 67 -26q49 0 74 35t38 95l86 406h-182l-88 -416q-20 -97 -70 -145.5
t-127 -48.5q-26 0 -50 6t-45 20l29 64q29 -26 67 -26q49 0 74.5 35t37.5 95l88 416h-83l13 61h83l21 99q7 36 23.5 70t43.5 59.5t64.5 41t87.5 15.5q38 0 71 -10.5t57 -30.5q29 24 69 37.5t94 13.5q36 0 73.5 -3t72.5 -8l-79 -365q17 18 37 36.5t43 33t49 24t55 9.5
q50 0 80.5 -29.5t30.5 -76.5q0 -17 -2.5 -34t-5.5 -32l-64 -306h-85l61 292q2 11 4 23t2 24q0 33 -17 48t-43 15q-21 0 -42.5 -10t-41.5 -26t-36.5 -34.5t-28.5 -34.5q-16 -21 -19 -40l-55 -257h-85zM354 673q-32 0 -54.5 -10t-38.5 -27t-25 -38.5t-14 -45.5l-21 -96h181
l23 109q9 44 30 80q-31 28 -81 28z" />
    <glyph glyph-name="f_j" unicode="fj" horiz-adv-x="516" 
d="M356 683q-32 0 -54.5 -10t-38.5 -27t-25 -38.5t-14 -45.5l-23 -106h265l-99 -467q-20 -92 -67.5 -143t-129.5 -51q-55 0 -95 26l29 64q14 -12 31 -19t37 -7q47 0 72.5 33.5t38.5 96.5l86 406h-182l-88 -416q-20 -97 -70 -145.5t-127 -48.5q-26 0 -50 6t-45 20l29 64
q29 -26 67 -26q49 0 74.5 35t37.5 95l88 416h-83l13 61h83l23 109q7 36 23.5 70t43.5 59.5t64.5 41t87.5 15.5q48 0 87.5 -16t64.5 -45l-38 -61q-20 26 -49.5 40t-66.5 14z" />
    <glyph glyph-name="f_f_j" unicode="ffj" horiz-adv-x="782" 
d="M622 683q-32 0 -54.5 -10t-38.5 -27t-25 -38.5t-14 -45.5l-23 -106h265l-98 -463q-20 -92 -67.5 -143t-129.5 -51q-55 0 -95 26l29 64q14 -12 31 -19t37 -7q47 0 72.5 33.5t38.5 96.5l85 402h-182l-87 -412q-20 -97 -70 -145.5t-127 -48.5q-26 0 -50 6t-45 20l29 64
q29 -26 67 -26q49 0 74 35t38 95l87 412h-182l-88 -416q-20 -97 -70 -145.5t-127 -48.5q-26 0 -50 6t-45 20l29 64q29 -26 67 -26q49 0 74.5 35t37.5 95l88 416h-83l13 61h83l21 99q7 36 23.5 70t43.5 59.5t64.5 41t87.5 15.5q37 0 69.5 -10.5t56.5 -29.5q26 23 61 36.5
t81 13.5q48 0 87.5 -16t65.5 -45l-39 -61q-20 26 -49.5 40t-66.5 14zM354 673q-32 0 -54.5 -10t-38.5 -27t-25 -38.5t-14 -45.5l-21 -96h181l23 109q5 21 11.5 41.5t17.5 38.5q-29 28 -80 28z" />
    <glyph glyph-name="f_k" unicode="fk" horiz-adv-x="736" 
d="M429 677q-13 2 -29.5 3.5t-30.5 1.5q-38 0 -63.5 -10.5t-42 -28t-26 -39t-13.5 -43.5l-23 -105h122l-12 -61h-124l-88 -416q-20 -97 -70 -145.5t-127 -48.5q-26 0 -50 6t-45 20l29 64q29 -26 67 -26q49 0 74.5 35t37.5 95l88 416h-83l13 61h83l23 109q9 40 27 74t47.5 59
t71 39t96.5 14q36 0 73.5 -3t72.5 -8l-106 -492l213 216h99l-203 -194q20 -12 34 -29.5t25.5 -38.5t20 -44.5t15.5 -46.5q9 -27 19 -56t26 -55h-91q-14 18 -22 42.5t-15 45.5q-13 42 -27.5 73t-46.5 57l-67 -62l-32 -156h-85z" />
    <glyph glyph-name="f_f_k" unicode="ffk" horiz-adv-x="1005" 
d="M698 677q-13 2 -29.5 3.5t-30.5 1.5q-38 0 -63.5 -10.5t-42 -28t-25.5 -39t-14 -43.5l-23 -105h123l-13 -61h-123l-86 -406q-41 -194 -198 -194q-25 0 -49 6t-45 20l28 64q14 -12 31 -19t37 -7q49 0 74 35t38 95l86 406h-186l-88 -416q-20 -97 -70 -145.5t-127 -48.5
q-26 0 -50 6t-45 20l29 64q29 -26 67 -26q49 0 74.5 35t37.5 95l88 416h-83l13 61h83l21 99q7 36 23.5 70t43.5 59.5t64.5 41t87.5 15.5q79 0 130 -42q29 25 69.5 38.5t95.5 13.5q36 0 73 -3t72 -8l-106 -492l213 216h99l-203 -194q20 -12 34 -29.5t25.5 -38.5t20 -44.5
t15.5 -46.5q9 -27 19 -56t26 -55h-91q-14 18 -22 42.5t-15 45.5q-13 42 -27.5 73t-46.5 57l-67 -62l-32 -156h-85zM354 673q-32 0 -54.5 -10t-38.5 -27t-25 -38.5t-14 -45.5l-21 -96h184l23 109q9 42 29 79q-32 29 -83 29z" />
    <glyph glyph-name="f_f" unicode="ff" horiz-adv-x="558" 
d="M369 395h-182l-88 -416q-20 -97 -70 -145.5t-127 -48.5q-26 0 -50 6t-45 20l29 64q29 -26 67 -26q49 0 74.5 35t37.5 95l88 416h-83l13 61h83l21 99q7 36 23.5 70t43.5 59.5t64.5 41t87.5 15.5q74 0 124 -39q25 23 58 36t78 13q27 0 56 -6.5t52 -22.5l-33 -66
q-15 13 -35.5 19.5t-43.5 6.5q-31 0 -52 -10.5t-35 -27.5t-22.5 -39t-12.5 -44l-23 -105h122l-12 -61h-124l-86 -406q-20 -97 -70 -145.5t-127 -48.5q-25 0 -49.5 6t-45.5 20l29 64q29 -26 67 -26q49 0 74.5 35.5t37.5 95.5zM354 673q-32 0 -54.5 -10t-38.5 -27t-25 -38.5
t-14 -45.5l-21 -96h181l23 109q5 22 11.5 42t17.5 38q-31 28 -80 28z" />
    <glyph glyph-name="fi" unicode="fi" horiz-adv-x="513" 
d="M356 683q-32 0 -54.5 -10t-38.5 -27t-25 -38.5t-14 -45.5l-23 -106h262l-97 -456h-84l84 395h-179l-88 -416q-20 -97 -70 -145.5t-127 -48.5q-26 0 -50 6t-45 20l29 64q29 -26 67 -26q49 0 74.5 35t37.5 95l88 416h-83l13 61h83l23 109q7 36 23.5 70t43.5 59.5t64.5 41
t87.5 15.5q48 0 87.5 -16t64.5 -45l-38 -61q-20 26 -49.5 40t-66.5 14z" />
    <glyph glyph-name="fl" unicode="fl" horiz-adv-x="524" 
d="M428 677q-13 2 -29 3.5t-30 1.5q-38 0 -63.5 -10.5t-42 -28t-26 -39t-13.5 -43.5l-23 -105h122l-12 -61h-124l-88 -416q-20 -97 -70 -145.5t-127 -48.5q-26 0 -50 6t-45 20l29 64q29 -26 67 -26q49 0 74.5 35t37.5 95l88 416h-83l13 61h83l23 109q9 40 27 74t47.5 59
t71 39t96.5 14q36 0 73.5 -3t72.5 -8l-138 -645q-3 -16 0.5 -26.5t20.5 -10.5q14 0 29 5l-6 -61q-13 -4 -30 -6.5t-35 -2.5q-47 0 -60 28t-3 75z" />
    <glyph glyph-name="f_f_i" unicode="ffi" horiz-adv-x="775" 
d="M618 683q-32 0 -54.5 -10t-38 -27t-25 -38.5t-14.5 -45.5l-23 -106h266l-97 -456h-84l84 395h-182l-87 -412q-41 -194 -198 -194q-25 0 -49 6t-46 20l29 64q14 -12 30.5 -19t36.5 -7q50 0 75 35t38 95l87 412h-179l-88 -416q-20 -97 -70 -145.5t-127 -48.5q-26 0 -50 6
t-45 20l29 64q29 -26 67 -26q49 0 74.5 35t37.5 95l88 416h-83l13 61h83l21 99q7 36 23.5 70t43.5 59.5t64.5 41t87.5 15.5q74 0 125 -39q25 23 59.5 36t79.5 13q48 0 88 -16t65 -45l-39 -61q-20 26 -49 40t-67 14zM354 673q-32 0 -54.5 -10t-38.5 -27t-25 -38.5t-14 -45.5
l-21 -96h177l23 109q5 21 12.5 42t18.5 40q-31 26 -78 26z" />
    <glyph glyph-name="f_f_l" unicode="ffl" horiz-adv-x="790" 
d="M647 751q36 0 73.5 -3t72.5 -8l-138 -645q-3 -16 0.5 -26.5t20.5 -10.5q14 0 29 5l-6 -61q-13 -4 -30 -6.5t-35 -2.5q-47 0 -60 28t-3 75l123 579q-13 2 -29.5 3t-30.5 1q-38 0 -63.5 -10.5t-42 -28t-26 -39t-13.5 -43.5l-22 -102h122l-12 -61h-124l-86 -406
q-20 -97 -70 -145.5t-127 -48.5q-25 0 -49.5 6t-45.5 20l29 66q28 -25 67 -25q49 0 74 34t38 94l86 405h-182l-88 -416q-20 -97 -70 -145.5t-127 -48.5q-26 0 -50 6t-45 20l29 66q28 -25 67 -25q49 0 74 34t38 94l88 415h-83l13 61h83l21 99q7 36 23.5 70t43.5 59.5t64.5 41
t87.5 15.5q38 0 71 -10.5t57 -30.5q29 24 69 37.5t94 13.5zM353 669q-32 0 -54.5 -10t-38 -27t-25 -38.5t-14.5 -45.5l-20 -92h181l23 109q5 21 11.5 40.5t17.5 36.5q-32 27 -81 27z" />
    <glyph glyph-name=".notdef" horiz-adv-x="520" 
d="M402 482q0 -30 -11 -55t-28.5 -46t-38.5 -39t-42 -34l-5 -104h-50l-8 123q17 15 36 30t35.5 32.5t27 38t10.5 46.5q0 36 -23 62t-63 26q-35 0 -60.5 -16t-40.5 -39q-8 13 -15.5 24.5t-15.5 24.5q26 29 61 46t83 17q29 0 56 -9.5t47.5 -27t32.5 -43t12 -57.5zM295 118
q0 -19 -12 -31t-32 -12t-32 12t-12 31t12 31t32 12t32 -12t12 -31zM520 0h-520v706h520v-706zM34 34h452v638h-452v-638z" />
    <glyph glyph-name=".null" horiz-adv-x="0" 
 />
    <glyph glyph-name="nonmarkingreturn" horiz-adv-x="333" 
 />
    <glyph glyph-name="space" unicode=" " horiz-adv-x="250" 
 />
    <glyph glyph-name="space" unicode="&#xa0;" horiz-adv-x="250" 
 />
    <glyph glyph-name="exclam" unicode="!" horiz-adv-x="268" 
d="M263 740q-15 -74 -34 -155.5t-38 -159t-35.5 -143.5t-28.5 -108h-61q5 43 16 109t24.5 143.5t29.5 159t32 154.5h95zM127 59q0 -27 -17 -46t-46 -19q-21 0 -35.5 12.5t-14.5 34.5q0 27 17 46t45 19q22 0 36.5 -12.5t14.5 -34.5z" />
    <glyph glyph-name="quotedbl" unicode="&#x22;" horiz-adv-x="444" 
d="M339 485h-61l43 255h81zM163 485h-62l44 255h81z" />
    <glyph glyph-name="numbersign" unicode="#" horiz-adv-x="537" 
d="M530 434h-104l-48 -167h107l-15 -59h-105l-57 -208h-66l57 208h-134l-56 -208h-67l57 208h-107l15 59h106l47 167h-107l14 59h107l57 213h66l-58 -213h135l57 213h65l-57 -213h106zM226 434l-47 -167h134l47 167h-134z" />
    <glyph glyph-name="dollar" unicode="$" 
d="M303 322q19 -12 39 -26.5t35.5 -33t25.5 -41.5t10 -52q0 -41 -16.5 -74t-44.5 -56.5t-65.5 -37.5t-80.5 -17l-13 -66h-57l14 66q-44 3 -84 15t-72 39l39 75q27 -27 61.5 -39t70.5 -14l45 210q-26 15 -49 30t-40 33.5t-27 42.5t-10 57q0 37 14 67.5t39.5 53t62 36
t81.5 16.5l14 64h57l-14 -65q38 -3 73.5 -14.5t65.5 -34.5l-41 -69q-24 21 -54 31.5t-59 13.5l-42 -197zM326 151q0 33 -21 54.5t-44 36.5l-39 -180q46 5 75 27t29 62zM168 451q0 -31 17.5 -51t44.5 -37l36 169q-46 -3 -72 -24.5t-26 -56.5z" />
    <glyph glyph-name="percent" unicode="%" horiz-adv-x="869" 
d="M371 566q0 -48 -10.5 -105.5t-35.5 -108t-65 -84t-99 -33.5q-36 0 -60.5 11.5t-40 31.5t-22.5 48.5t-7 62.5q0 48 10.5 105.5t35.5 108t65 84t98 33.5q36 0 60.5 -11.5t40.5 -32t23 -48.5t7 -62zM298 572q0 14 -3 29.5t-10.5 28.5t-19.5 21t-30 8q-25 0 -44.5 -15.5
t-34 -40t-25 -55t-16.5 -61.5t-9 -58.5t-3 -46.5q0 -14 3 -29.5t10.5 -28t19.5 -21t30 -8.5q25 0 44.5 15.5t34 40t25 55.5t16.5 61.5t9 58.5t3 46zM190 0h-79l560 706h80zM833 319q0 -48 -10.5 -105.5t-35.5 -108t-65 -84t-99 -33.5q-36 0 -60.5 11.5t-40 31.5t-22.5 48.5
t-7 62.5q0 48 10.5 105.5t35.5 108t65 84t98 33.5q36 0 60.5 -11.5t40.5 -32t23 -48.5t7 -62zM760 325q0 14 -3 29.5t-10.5 28.5t-19.5 21t-30 8q-25 0 -44.5 -15.5t-34 -40t-25 -55t-16.5 -61.5t-9 -58.5t-3 -46.5q0 -14 3 -29.5t10.5 -28t19.5 -21t30 -8.5q25 0 44.5 15.5
t34 40t25 55.5t16.5 61.5t9 58.5t3 46z" />
    <glyph glyph-name="ampersand" unicode="&#x26;" horiz-adv-x="771" 
d="M750 433q0 -30 -11 -53t-29 -41t-42 -31t-49 -22v-19q0 -72 -29 -126t-77 -89t-110.5 -52.5t-128.5 -17.5q-46 0 -92 10.5t-83 34t-60 60.5t-23 91q0 43 13.5 79.5t38 64t59.5 45t77 23.5v2q-37 14 -58.5 45t-21.5 69q0 51 19.5 91.5t52.5 69t76.5 44t91.5 15.5
q53 0 101.5 -15t86.5 -50l-40 -69q-29 29 -66.5 43t-79.5 14q-69 0 -109.5 -41t-40.5 -107q0 -48 27.5 -70t73.5 -22h61l-13 -64h-68q-88 0 -135.5 -39t-47.5 -116q0 -69 50 -103t132 -34q48 0 90.5 12.5t74.5 37t50.5 60.5t18.5 83v9l-149 -57l-20 72l203 76q20 7 40.5 16
t37 21t27 27.5t10.5 37.5q0 17 -10.5 31.5t-26.5 22.5l47 35q26 -14 43.5 -43.5t17.5 -60.5z" />
    <glyph glyph-name="quotesingle" unicode="'" horiz-adv-x="268" 
d="M163 485h-62l44 255h81z" />
    <glyph glyph-name="parenleft" unicode="(" horiz-adv-x="284" 
d="M351 710q-123 -115 -186 -257t-63 -323q0 -80 16.5 -153.5t51.5 -146.5h-64q-38 68 -59.5 151t-21.5 174q0 78 16 155.5t48 149.5t79 135.5t109 114.5h74z" />
    <glyph glyph-name="parenright" unicode=")" horiz-adv-x="284" 
d="M-111 -170q123 115 186 257t63 323q0 80 -16.5 153.5t-51.5 146.5h64q37 -68 59 -151t22 -174q0 -78 -16.5 -155.5t-48 -149.5t-79 -135.5t-108.5 -114.5h-74z" />
    <glyph glyph-name="asterisk" unicode="*" horiz-adv-x="426" 
d="M296 539l74 -122l-53 -30l-73 119l-106 -112l-43 39l103 110l-127 48l27 51l130 -47l30 145h63l-31 -145l143 42l10 -55z" />
    <glyph glyph-name="plus" unicode="+" 
d="M289 233v-189h-78v189h-192v79h192v190h77v-190h192v-79h-191z" />
    <glyph glyph-name="comma" unicode="," horiz-adv-x="250" 
d="M121 83q0 -69 -35.5 -126.5t-87.5 -96.5h-70q22 22 42.5 46t36 50.5t25 55.5t9.5 62q0 18 -3 36h82q1 -7 1 -13.5v-13.5z" />
    <glyph glyph-name="hyphen" unicode="-" horiz-adv-x="250" 
d="M203 194h-221l17 82h221z" />
    <glyph glyph-name="period" unicode="." horiz-adv-x="250" 
d="M118 60q0 -28 -17 -47t-46 -19q-21 0 -36 12.5t-15 35.5q0 26 17 45.5t46 19.5q21 0 36 -12.5t15 -34.5z" />
    <glyph glyph-name="slash" unicode="/" horiz-adv-x="250" 
d="M-29 0h-74l386 706h74z" />
    <glyph glyph-name="zero" unicode="0" 
d="M478 397q0 -63 -18 -135.5t-55.5 -134.5t-95 -103t-135.5 -41q-51 0 -84 18.5t-52 48.5t-26.5 68t-7.5 76q0 63 18 135.5t55.5 134.5t95 103t135.5 41q52 0 85 -18.5t52 -48.5t26 -68t7 -76zM389 390q0 34 -4.5 61t-16 46t-30 29.5t-46.5 10.5q-36 0 -64.5 -18
t-50.5 -47.5t-37.5 -66t-26 -74t-15 -72t-4.5 -58.5q0 -68 20.5 -107.5t76.5 -39.5q36 0 64.5 18t50.5 47t37.5 66t26 74.5t15 71.5t4.5 59z" />
    <glyph glyph-name="one" unicode="1" 
d="M46 0l14 69h128l91 426q-39 -25 -85.5 -47.5t-88.5 -40.5l-16 68q54 22 112 51t112 63h72l-111 -520h112l-14 -69h-326z" />
    <glyph glyph-name="two" unicode="2" 
d="M454 445q0 -42 -12.5 -74t-36 -57.5t-56.5 -47.5t-74 -45t-69 -42t-47.5 -36t-33 -33.5t-24.5 -35.5h294l-15 -74h-390l12 63q22 52 67.5 99t131.5 95q36 20 65.5 39t50.5 39.5t32.5 45t11.5 55.5q0 25 -9.5 43.5t-26 31t-37.5 18.5t-43 6q-88 0 -146 -60l-33 63
q81 69 193 69q37 0 72 -10.5t62.5 -31t44 -50.5t16.5 -70z" />
    <glyph glyph-name="three" unicode="3" 
d="M440 448q0 -64 -40.5 -107.5t-104.5 -58.5v-2q48 -15 78 -56.5t30 -92.5q0 -55 -21 -98t-56 -72t-82 -44.5t-98 -15.5q-53 0 -99 16.5t-81 48.5l44 64q24 -23 60 -39.5t78 -16.5q72 0 116 40.5t44 112.5q0 52 -37.5 82.5t-97.5 30.5h-60l14 73h62q29 0 57.5 7t51 22
t36.5 39t14 57q0 23 -9 41t-24.5 30.5t-35.5 19t-42 6.5q-40 0 -74 -15.5t-60 -44.5l-33 62q43 36 87 53t101 17q35 0 68 -10.5t58.5 -31t40.5 -50t15 -67.5z" />
    <glyph glyph-name="four" unicode="4" 
d="M452 589l-384 -444h203l43 205h82l-43 -205h105l-15 -68h-104l-35 -159h-82l34 159h-281l17 79l368 433h92z" />
    <glyph glyph-name="five" unicode="5" 
d="M461 515h-243l-52 -176q5 1 11 1h12q46 0 86.5 -14.5t71.5 -41.5t49 -65.5t18 -86.5q0 -55 -21 -98t-56 -72.5t-81.5 -45t-98.5 -15.5t-98.5 16.5t-81.5 48.5l44 64q24 -23 60 -39.5t78 -16.5q72 0 116.5 40.5t44.5 110.5q0 37 -13.5 64t-37 45t-55 27t-66.5 9
q-20 0 -39 -0.5t-39 -1.5l92 321h314z" />
    <glyph glyph-name="six" unicode="6" 
d="M459 599q-43 19 -86 19q-59 0 -103 -23.5t-75.5 -62t-51.5 -88t-31 -101.5q32 30 72.5 45.5t85.5 15.5q39 0 72.5 -13t58 -36.5t38 -57t13.5 -73.5q0 -52 -17.5 -96t-49 -76t-75.5 -50t-97 -18q-50 0 -87 16t-62.5 44t-38 66.5t-12.5 84.5q0 51 8 107.5t26 111.5
t46.5 105t69 88t93.5 60.5t121 22.5q28 0 55 -4t53 -13zM364 211q0 57 -36 90.5t-93 33.5q-28 0 -55 -9.5t-48 -28.5q-12 -11 -19 -22t-10.5 -23t-4.5 -26t-1 -30q0 -30 7 -56t22.5 -44.5t39.5 -29.5t57 -11t59 13t44.5 34.5t28 49.5t9.5 59z" />
    <glyph glyph-name="seven" unicode="7" 
d="M496 511q-81 -110 -143 -197t-112 -157q-28 -41 -49 -74t-35.5 -61.5t-23.5 -53.5t-13 -50h-97q11 55 42 115.5t88 138.5l254 343h-349l15 74h440z" />
    <glyph glyph-name="eight" unicode="8" 
d="M479 546q0 -38 -12.5 -66.5t-33.5 -51t-49.5 -40t-60.5 -32.5q24 -15 45 -32t36.5 -37.5t25 -45t9.5 -54.5q0 -51 -20 -89t-53 -64t-76 -39t-89 -13q-36 0 -72 9.5t-64 29t-45.5 49t-17.5 69.5q0 45 15 78t40 58t58 44t69 36q-20 13 -38 29.5t-32 35t-22.5 40.5t-8.5 48
q0 44 18 78t48 57.5t68 36t79 12.5q33 0 65.5 -9t59 -27t42.5 -45.5t16 -64.5zM397 540q0 22 -9 39t-24 28t-34 16.5t-40 5.5q-24 0 -46 -7.5t-39 -21t-27.5 -33.5t-10.5 -45q0 -23 8.5 -42t22.5 -34.5t32 -28t37 -24.5q26 12 49.5 25.5t41.5 31t28.5 39.5t10.5 51zM355 172
q0 27 -10.5 48.5t-27 39t-37 32t-41.5 26.5q-29 -13 -56.5 -28t-48.5 -35t-33.5 -46t-12.5 -61q0 -26 11 -45.5t28.5 -32.5t40.5 -19t47 -6q28 0 53 9t44.5 25.5t31 40t11.5 52.5z" />
    <glyph glyph-name="nine" unicode="9" 
d="M24 -9q41 -19 86 -19q58 0 102 23.5t75.5 62.5t51.5 88.5t31 101.5q-31 -30 -71.5 -46t-85.5 -16q-39 0 -72.5 13t-58 36.5t-38 57t-13.5 74.5q0 52 17.5 96t49 76t75 50t96.5 18q49 0 87 -16t63 -44.5t38 -67t13 -84.5q0 -51 -8 -107.5t-26 -111.5t-46.5 -104.5
t-69 -87.5t-93.5 -60.5t-121 -22.5q-28 0 -55.5 4t-53.5 13zM119 380q0 -57 36 -90.5t93 -33.5q28 0 54.5 9.5t47.5 28.5q25 22 30 45t5 55q0 61 -29.5 101.5t-95.5 40.5q-33 0 -59 -13t-44.5 -34.5t-28 -49.5t-9.5 -59z" />
    <glyph glyph-name="colon" unicode=":" horiz-adv-x="250" 
d="M196 434q0 -28 -17.5 -46.5t-45.5 -18.5q-21 0 -36 12.5t-15 34.5q0 27 17 46t46 19q21 0 36 -12.5t15 -34.5zM118 60q0 -28 -17 -47t-46 -19q-22 0 -36.5 12.5t-14.5 35.5q0 26 17 45.5t46 19.5q21 0 36 -12.5t15 -34.5z" />
    <glyph glyph-name="semicolon" unicode=";" horiz-adv-x="250" 
d="M203 434q0 -28 -17 -46.5t-46 -18.5q-21 0 -36 12.5t-15 34.5q0 27 17 46t46 19q21 0 36 -12.5t15 -34.5zM122 83q0 -69 -36 -126.5t-88 -96.5h-70q22 22 42.5 46t36 50.5t25 55.5t9.5 62q0 18 -3 36h82q2 -7 2 -13.5v-13.5z" />
    <glyph glyph-name="less" unicode="&#x3c;" 
d="M19 232v78l461 191v-90l-358 -140l358 -140v-91z" />
    <glyph glyph-name="equal" unicode="=" 
d="M19 352v78h461v-78h-461zM19 115v78h461v-78h-461z" />
    <glyph glyph-name="greater" unicode="&#x3e;" 
d="M19 40v91l358 140l-358 139v91l461 -192v-77z" />
    <glyph glyph-name="question" unicode="?" horiz-adv-x="458" 
d="M452 583q0 -48 -20.5 -88t-52 -73t-71 -59.5t-76.5 -48.5q-4 -15 -8.5 -33t-9.5 -37t-9.5 -37.5t-7.5 -32.5h-62l27 168q35 22 70.5 46.5t64 53t46.5 61.5t18 72q0 49 -31.5 75.5t-79.5 26.5q-45 0 -78.5 -21.5t-59.5 -57.5l-40 58q41 48 89 70.5t111 22.5
q36 0 68.5 -11.5t57 -33.5t39.5 -52.5t15 -68.5zM196 59q0 -27 -17 -46t-45 -19q-22 0 -36.5 12.5t-14.5 34.5q0 27 17 46t46 19q21 0 35.5 -12.5t14.5 -34.5z" />
    <glyph glyph-name="at" unicode="@" horiz-adv-x="706" 
d="M682 370q0 -55 -13 -111.5t-40.5 -102.5t-70.5 -75.5t-102 -29.5q-28 0 -44 12.5t-14 41.5q1 9 3 17.5t4 18.5q-14 -17 -30.5 -34t-35.5 -31t-40 -22.5t-43 -8.5q-29 0 -49 12.5t-32 32t-17 44.5t-5 50q0 49 13.5 101.5t41 96t70 71t99.5 27.5q26 0 51.5 -7.5t39.5 -27.5
l5 24h72l-74 -340q-2 -11 0.5 -18t13.5 -7q26 0 50 21t42 57t29 84t11 102q0 53 -16 92.5t-45 66t-68.5 39.5t-87.5 13q-87 0 -149 -37t-102.5 -96t-59.5 -133t-19 -147q0 -59 19 -102t53.5 -71.5t82.5 -42t107 -13.5q54 0 109 17t95 50l19 -51q-50 -36 -112.5 -52.5
t-128.5 -16.5q-67 0 -124 17.5t-98 52t-64.5 87t-23.5 121.5q0 57 11.5 114t34 109t56.5 97t78.5 78t100 52t121.5 19q60 0 110.5 -17.5t87 -50.5t57.5 -81.5t21 -111.5zM448 365q3 15 -1.5 26t-14.5 18t-23.5 10.5t-27.5 3.5q-41 0 -69.5 -22t-46 -55.5t-25.5 -72.5t-8 -72
q0 -14 2 -29.5t8 -28t16.5 -21t27.5 -8.5q15 0 29.5 7.5t28 18t25 23t20.5 22.5q26 29 32 54z" />
    <glyph glyph-name="A" unicode="A" horiz-adv-x="620" 
d="M441 0l-24 182h-283l-100 -182h-94l395 708h104l97 -708h-95zM378 497q-2 12 -4 29l-3 35q-1 18 -2.5 33.5t-1.5 24.5h-2q-3 -8 -10.5 -23t-16 -32.5t-18 -35.5t-16.5 -32l-131 -240h236z" />
    <glyph glyph-name="B" unicode="B" horiz-adv-x="619" 
d="M573 552q0 -34 -11.5 -62t-31.5 -49t-47 -35.5t-57 -21.5v-2q51 -14 79.5 -54t28.5 -92q0 -68 -31 -113.5t-78 -72.5t-103 -38.5t-106 -11.5h-204l150 706h192q40 0 79.5 -8t70.5 -26t50 -47.5t19 -72.5zM482 536q0 27 -12.5 45t-32.5 29.5t-46 16t-54 4.5h-98l-47 -218
h121q30 0 60 6.5t54 20.5t39.5 37.5t15.5 58.5zM441 232q0 27 -11 47.5t-30 34t-44.5 20.5t-53.5 7h-125l-58 -267h110q39 0 77 8t68 26t48.5 48.5t18.5 75.5z" />
    <glyph glyph-name="C" unicode="C" horiz-adv-x="619" 
d="M581 585q-28 31 -66 45t-80 14q-75 0 -132 -32t-95.5 -84t-57.5 -118t-19 -134q0 -48 13 -87t38.5 -66.5t63 -43t87.5 -15.5q45 0 86.5 14.5t73.5 44.5l24 -72q-42 -35 -95 -51.5t-108 -16.5q-65 0 -116.5 21.5t-87.5 59.5t-55.5 91.5t-19.5 116.5q0 86 28.5 167.5
t81 145t126.5 102t165 38.5q54 0 103 -14.5t87 -50.5z" />
    <glyph glyph-name="D" unicode="D" horiz-adv-x="715" 
d="M681 431q0 -110 -36.5 -191.5t-100.5 -134.5t-151.5 -79t-190.5 -26h-188l150 706h190q66 0 125.5 -15.5t104 -49t71 -85.5t26.5 -125zM585 420q0 55 -19 94.5t-52.5 65t-79 37.5t-98.5 12h-96l-118 -552h101q81 0 148 22.5t114.5 66t73.5 107.5t26 147z" />
    <glyph glyph-name="E" unicode="E" horiz-adv-x="533" 
d="M514 627h-276l-46 -214h271l-16 -77h-271l-56 -257h306l-16 -79h-398l150 706h368z" />
    <glyph glyph-name="F" unicode="F" horiz-adv-x="537" 
d="M530 627h-292l-49 -229h287l-16 -79h-288l-68 -319h-92l150 706h385z" />
    <glyph glyph-name="G" unicode="G" horiz-adv-x="674" 
d="M608 582q-32 35 -75.5 48.5t-91.5 13.5q-77 0 -135 -31.5t-97 -83t-58.5 -118t-19.5 -135.5q0 -99 52 -158.5t154 -59.5q33 0 61.5 5t52.5 13l38 176h-147l16 80h237l-66 -309q-39 -19 -93 -29.5t-104 -10.5q-67 0 -122 19.5t-94 56.5t-60 90.5t-21 122.5q0 88 29 169.5
t82 144.5t128.5 101t168.5 38q59 0 113.5 -15t96.5 -54z" />
    <glyph glyph-name="H" unicode="H" horiz-adv-x="713" 
d="M551 0h-92l71 335h-355l-70 -335h-93l150 706h92l-62 -292h354l63 292h92z" />
    <glyph glyph-name="I" unicode="I" horiz-adv-x="278" 
d="M110 0h-92l150 706h92z" />
    <glyph glyph-name="J" unicode="J" horiz-adv-x="284" 
d="M125 41q-12 -56 -35.5 -103t-59 -81t-83 -53t-107.5 -19q-8 0 -16 0.5t-19 1.5l19 72q5 -1 10.5 -1h10.5q40 0 71.5 14t54.5 39t38.5 60t24.5 77l140 658h92z" />
    <glyph glyph-name="K" unicode="K" horiz-adv-x="609" 
d="M331 401q30 -21 52 -48.5t38 -58t28 -64t24 -67.5q14 -41 29 -83t37 -80h-101q-20 33 -31 69t-22 69q-10 32 -20.5 60.5t-24 54t-31.5 48t-45 42.5l-109 -100l-51 -243h-92l150 706h92l-77 -360l366 360h112z" />
    <glyph glyph-name="L" unicode="L" horiz-adv-x="515" 
d="M415 0h-403l150 706h92l-134 -626h311z" />
    <glyph glyph-name="M" unicode="M" horiz-adv-x="846" 
d="M686 0h-90l78 436q3 14 6 31.5t7 36.5t7.5 37.5t7.5 34.5h-2q-17 -32 -36.5 -63.5t-45.5 -70.5l-215 -320h-75l-71 318q-6 28 -13.5 67t-12.5 69h-2q-5 -30 -12 -63.5t-16 -69.5l-107 -443h-82l171 706h105l82 -368q7 -30 11.5 -55.5t9.5 -54.5h2q14 25 27.5 47t31.5 50
l247 381h108z" />
    <glyph glyph-name="N" unicode="N" horiz-adv-x="725" 
d="M563 0h-84l-210 441q-16 34 -29 66t-20 56h-2l-121 -563h-85l150 706h83l205 -437q22 -47 35 -81t18 -54h2l123 572h85z" />
    <glyph glyph-name="O" unicode="O" horiz-adv-x="711" 
d="M676 465q0 -57 -11 -115t-32.5 -112t-54 -101t-75.5 -81.5t-97 -54.5t-118 -20q-60 0 -107 19t-79.5 53.5t-49.5 83t-17 106.5q0 57 11 115t32.5 112t54 101t75.5 81.5t97 54.5t118 20q60 0 107 -19t79.5 -53.5t49.5 -83t17 -106.5zM580 455q0 40 -9.5 74.5t-30 60.5
t-52 41t-75.5 15q-75 0 -129 -38t-88 -96t-50 -127t-16 -132q0 -40 10 -74.5t30 -60.5t51.5 -41t75.5 -15q75 0 129 38t88 96t50 127t16 132z" />
    <glyph glyph-name="P" unicode="P" horiz-adv-x="567" 
d="M562 521q0 -70 -28 -118.5t-73.5 -79t-104 -44t-118.5 -13.5h-78l-56 -266h-92l150 706h164q48 0 91 -10.5t75.5 -33t51 -57.5t18.5 -84zM468 508q0 35 -12 58.5t-32.5 38t-48.5 20.5t-59 6h-77l-63 -287h76q39 0 78 8.5t69.5 28t49.5 51t19 76.5z" />
    <glyph glyph-name="Q" unicode="Q" horiz-adv-x="711" 
d="M676 465q0 -72 -17.5 -146t-52.5 -137.5t-87 -112t-122 -70.5q21 -51 66.5 -96t102.5 -78l-78 -39q-56 36 -103 86.5t-67 110.5q-8 -1 -15 -1.5t-15 -0.5q-60 0 -107 19t-79.5 53.5t-49.5 83t-17 106.5q0 57 11 115t32.5 112t54 101t75.5 81.5t97 54.5t118 20
q60 0 107 -19t79.5 -53.5t49.5 -83t17 -106.5zM580 455q0 40 -9.5 74.5t-30 60.5t-52 41t-75.5 15q-75 0 -129 -38t-88 -96t-50 -127t-16 -132q0 -40 10 -74.5t30 -60.5t51.5 -41t75.5 -15q75 0 129 38t88 96t50 127t16 132z" />
    <glyph glyph-name="R" unicode="R" horiz-adv-x="606" 
d="M570 535q0 -45 -15 -79t-41 -59t-60 -40.5t-71 -23.5v-2q30 -24 47.5 -59t32 -78.5t30.5 -93t43 -100.5h-106q-23 47 -37.5 101t-32 100t-43.5 76.5t-73 30.5h-73l-65 -308h-92l150 706h174q44 0 86 -8.5t74.5 -28.5t52 -53t19.5 -81zM477 526q0 28 -11 47.5t-30.5 32.5
t-46.5 19t-59 6h-89l-55 -249h91q39 0 75 7.5t63.5 24.5t44.5 44.5t17 67.5z" />
    <glyph glyph-name="S" unicode="S" horiz-adv-x="492" 
d="M453 594q-27 29 -64 42t-77 13q-60 0 -96.5 -31t-36.5 -82q0 -24 9 -43.5t24 -36.5t34 -31.5t38 -28.5q24 -17 47.5 -36t42 -42.5t30 -51.5t11.5 -64q0 -53 -20.5 -93.5t-55 -68.5t-79 -42.5t-91.5 -14.5q-53 0 -102 13.5t-87 48.5l40 75q29 -31 68 -45t82 -14
q28 0 55 7.5t47.5 23t33 38.5t12.5 54q0 24 -8.5 43t-22.5 36t-32 31.5t-38 29.5q-24 18 -47 37t-42 42t-30.5 51.5t-11.5 64.5q0 49 18.5 87.5t49.5 64.5t72.5 40t86.5 14q48 0 95 -13t83 -45z" />
    <glyph glyph-name="T" unicode="T" horiz-adv-x="571" 
d="M621 627h-223l-133 -627h-92l133 627h-233l16 79h548z" />
    <glyph glyph-name="U" unicode="U" horiz-adv-x="727" 
d="M564 0h-80l18 87q-47 -49 -102.5 -76.5t-125.5 -27.5q-48 0 -88 13.5t-69.5 40t-45.5 65.5t-16 89q0 23 2.5 44.5t7.5 44.5l91 426h93l-92 -430q-8 -38 -8 -73q0 -37 12.5 -63.5t34 -44t51 -26t64.5 -8.5q44 0 84.5 16.5t72.5 46.5q21 19 31.5 36t16.5 46l107 500h92z
" />
    <glyph glyph-name="V" unicode="V" horiz-adv-x="620" 
d="M277 -2h-98l-95 708h94l52 -426q5 -41 10 -91t7 -92h2q9 19 20 42t23.5 46.5t25.5 47t25 45.5l238 428h95z" />
    <glyph glyph-name="W" unicode="W" horiz-adv-x="832" 
d="M595 -2h-110l-38 364q-3 32 -5 71.5t-2 74.5h-1q-5 -14 -13 -32t-17 -37.5t-18 -39.5t-18 -37l-179 -364h-108l11 708h91l-13 -459q0 -20 -1 -42t-2 -42t-2 -37.5t-1 -29.5h1q11 29 30 71t39 84l174 358h103l29 -350q4 -45 6.5 -89t3.5 -76h2q3 11 10 30t15 42t17.5 48
t18.5 49l174 443h88z" />
    <glyph glyph-name="X" unicode="X" horiz-adv-x="559" 
d="M340 358l135 -358h-102l-104 297l-211 -297h-105l280 368l-124 338h100l94 -279l196 279h103z" />
    <glyph glyph-name="Y" unicode="Y" horiz-adv-x="548" 
d="M308 268l-56 -268h-92l56 267l-127 439h105l87 -354l227 354h103z" />
    <glyph glyph-name="Z" unicode="Z" horiz-adv-x="558" 
d="M563 632l-478 -553h384l-17 -79h-492l15 75l478 552h-357l17 79h466z" />
    <glyph glyph-name="bracketleft" unicode="[" horiz-adv-x="284" 
d="M335 655h-110l-164 -770h111l-12 -55h-182l187 880h182z" />
    <glyph glyph-name="backslash" unicode="\" horiz-adv-x="250" 
d="M139 0l-86 706h64l86 -706h-64z" />
    <glyph glyph-name="bracketright" unicode="]" horiz-adv-x="284" 
d="M76 -170h-182l11 55h110l165 770h-112l12 55h183z" />
    <glyph glyph-name="asciicircum" unicode="^" 
d="M378 184l-129 308l-129 -308h-88l179 405h77l179 -405h-89z" />
    <glyph glyph-name="underscore" unicode="_" 
d="M399 -215h-500l15 68h500z" />
    <glyph glyph-name="grave" unicode="`" 
d="M281 531l-123 175h94l90 -175h-61z" />
    <glyph glyph-name="grave" unicode="&#x300;" 
d="M281 531l-123 175h94l90 -175h-61z" />
    <glyph glyph-name="grave" unicode="&#x2cb;" 
d="M281 531l-123 175h94l90 -175h-61z" />
    <glyph glyph-name="a" unicode="a" horiz-adv-x="511" 
d="M382 86q-3 -15 -0.5 -24.5t16.5 -9.5q10 0 20 4l-3 -55q-11 -3 -25.5 -5.5t-29.5 -2.5q-63 0 -63 46q0 14 5 32l6 26q-15 -18 -35 -37.5t-43 -35.5t-47.5 -26.5t-49.5 -10.5q-36 0 -59.5 14.5t-37.5 37.5t-20 51.5t-6 57.5q0 57 16.5 115.5t49 106t81 77.5t113.5 30
q30 0 59.5 -9.5t45.5 -32.5l5 29h82zM352 344q4 19 -2 32.5t-18 22t-28.5 12.5t-32.5 4q-47 0 -79.5 -25t-53 -62.5t-30 -81t-9.5 -81.5q0 -43 15.5 -73t51.5 -30q19 0 38.5 10.5t37.5 26t33.5 33.5t27.5 34q8 11 12.5 20.5t7.5 21.5z" />
    <glyph glyph-name="b" unicode="b" horiz-adv-x="517" 
d="M341 478q34 0 57.5 -14t38 -37t21 -52t6.5 -58q0 -56 -16.5 -114.5t-49.5 -106.5t-82 -78.5t-114 -30.5q-34 0 -62 10t-44 33l-7 -30h-82l157 740h85l-78 -364q15 16 33.5 34t40 33t46 25t50.5 10zM375 299q0 43 -15 73t-52 30q-21 0 -41 -10.5t-38.5 -25.5t-34 -33
t-27.5 -33q-16 -19 -20 -42l-30 -138q-4 -19 2 -32.5t18.5 -22t28.5 -12.5t33 -4q48 0 81.5 24.5t54.5 62t30.5 81t9.5 82.5z" />
    <glyph glyph-name="c" unicode="c" horiz-adv-x="418" 
d="M367 369q-16 19 -40.5 30t-53.5 11q-44 0 -76.5 -23t-54.5 -58.5t-32.5 -76.5t-10.5 -77q0 -56 27.5 -89t82.5 -33q28 0 55 11t49 28l22 -59q-29 -22 -66.5 -35t-76.5 -13q-45 0 -79.5 13.5t-57 37.5t-34 57.5t-11.5 72.5q0 54 17 109.5t50.5 100.5t83.5 74t115 29
q37 0 71 -12t57 -34z" />
    <glyph glyph-name="d" unicode="d" horiz-adv-x="513" 
d="M99 166q0 -42 14.5 -73t52.5 -31q21 0 41 10t38.5 25.5t34 33.5t27.5 33q15 19 20 42l30 137q4 19 -2 32.5t-18.5 22.5t-29.5 13t-33 4q-48 0 -81.5 -25t-54.5 -62.5t-30 -81t-9 -80.5zM386 86q-3 -15 0 -24.5t17 -9.5q10 0 20 4l-4 -55q-11 -3 -25 -5.5t-29 -2.5
q-63 0 -63 46q0 14 5 32l6 26q-13 -14 -32 -33.5t-42 -36.5t-50 -29t-56 -12q-32 0 -55 13t-38 34.5t-22.5 51t-7.5 62.5q0 56 16.5 114.5t49 106.5t81.5 78.5t114 30.5q14 0 29 -1.5t29.5 -6t26.5 -12.5t21 -21l65 304h83z" />
    <glyph glyph-name="e" unicode="e" horiz-adv-x="457" 
d="M422 338q0 -17 -3.5 -36t-9.5 -39l-312 -57q-3 -17 -3 -38q0 -55 31.5 -85.5t88.5 -30.5q37 0 70 12.5t59 31.5l20 -61q-32 -22 -74.5 -36t-93.5 -14q-91 0 -138 49t-47 129q0 52 16 108t48.5 102t82.5 76t118 30q28 0 54.5 -8t47 -25t33 -44t12.5 -64zM336 312
q5 17 5 32q0 38 -23 56.5t-55 18.5q-31 0 -56 -12.5t-44 -33t-32 -47.5t-21 -56z" />
    <glyph glyph-name="f" unicode="f" horiz-adv-x="292" 
d="M103 395h-83l13 61h83l23 109q8 39 24.5 72.5t42.5 59t61.5 40t82.5 14.5q27 0 55.5 -6.5t51.5 -22.5l-32 -66q-15 13 -35.5 19.5t-43.5 6.5q-31 0 -52 -10.5t-35 -27.5t-22 -39t-13 -44l-23 -105h122l-12 -61h-124l-88 -416q-42 -194 -197 -194q-26 0 -50 6t-45 20
l29 64q29 -26 67 -26q49 0 74.5 35.5t37.5 95.5z" />
    <glyph glyph-name="g" unicode="g" horiz-adv-x="452" 
d="M395 353q0 -41 -14.5 -75.5t-40.5 -59t-61 -38.5t-76 -14q-26 0 -48 6q-11 3 -19.5 3.5t-19.5 -4.5q-19 -8 -27.5 -20.5t-8.5 -25.5q0 -37 66 -46l103 -13q60 -8 90 -39.5t30 -82.5q0 -33 -15 -61.5t-43.5 -50.5t-70 -34.5t-94.5 -12.5q-44 0 -80.5 9t-63 26t-41.5 41
t-15 55q0 43 26 72.5t72 43.5v2q-17 10 -29.5 28.5t-12.5 45.5q0 28 19 57t68 45q-27 33 -27 82q0 41 14.5 75.5t40.5 59t61 38.5t76 14q39 0 70 -14q19 34 41.5 52.5t60.5 18.5q24 0 47 -10l-25 -67q-12 8 -34 8q-17 0 -28.5 -8t-21.5 -22q31 -33 31 -84zM282 -69
q0 27 -18 41.5t-50 19.5l-75 11q-7 1 -13 1.5t-11 0.5q-17 0 -33 -5.5t-29 -15t-20.5 -24t-7.5 -32.5q0 -37 33 -61.5t98 -24.5q25 0 48 5.5t40 16.5t27.5 27.5t10.5 39.5zM144 295q0 -33 17.5 -52.5t48.5 -19.5q25 0 44.5 10.5t33 28.5t20 41t6.5 48q0 33 -18 52t-48 19
q-26 0 -45 -10.5t-32.5 -28t-20 -40.5t-6.5 -48z" />
    <glyph glyph-name="h" unicode="h" horiz-adv-x="535" 
d="M92 0h-85l157 740h85l-79 -365q17 18 37 36.5t43 33t49 24t55 9.5q50 0 80.5 -29.5t30.5 -76.5q0 -17 -2.5 -34t-5.5 -32l-64 -306h-85l61 292q2 11 4 23t2 24q0 33 -17 48t-43 15q-21 0 -42 -10.5t-40.5 -26t-37 -34t-29.5 -34.5q-8 -11 -12.5 -20t-6.5 -20z" />
    <glyph glyph-name="i" unicode="i" horiz-adv-x="239" 
d="M191 464l-99 -464h-84l98 464h85zM244 685q0 -23 -15.5 -40t-41.5 -17q-21 0 -33 11.5t-12 28.5q0 24 15.5 40.5t41.5 16.5q21 0 33 -11.5t12 -28.5z" />
    <glyph glyph-name="j" unicode="j" horiz-adv-x="240" 
d="M246 685q0 -23 -15.5 -40t-41.5 -17q-21 0 -33 11.5t-13 28.5q0 24 16 40.5t42 16.5q21 0 33 -11.5t12 -28.5zM89 -21q-20 -92 -67.5 -143t-129.5 -51q-55 0 -95 26l29 64q15 -12 31.5 -18.5t36.5 -6.5q47 0 73 34t39 96l102 484h84z" />
    <glyph glyph-name="k" unicode="k" horiz-adv-x="459" 
d="M124 156l-32 -156h-85l158 740h85l-106 -492l213 216h99l-203 -194q20 -12 34 -29.5t25.5 -38.5t20 -44.5t15.5 -46.5q9 -27 19 -56t26 -55h-91q-14 18 -22 42.5t-15 45.5q-13 42 -27.5 73t-46.5 57z" />
    <glyph glyph-name="l" unicode="l" horiz-adv-x="247" 
d="M111 95q-3 -16 0.5 -26.5t20.5 -10.5q14 0 29 5l-6 -61q-13 -4 -29.5 -6.5t-34.5 -2.5q-47 0 -60 28t-3 75l137 644h84z" />
    <glyph glyph-name="m" unicode="m" horiz-adv-x="804" 
d="M377 0h-85l62 292q2 11 4 23t2 24q0 33 -16 48t-41 15q-19 0 -38.5 -10t-37.5 -25.5t-34 -34t-28 -35.5q-8 -11 -12 -20.5t-6 -20.5l-55 -256h-85l99 464h81l-20 -93q17 21 36 40t40.5 34t46 24t53.5 9q50 0 77.5 -30.5t26.5 -81.5q18 22 38 42.5t42.5 36t47 24.5t53.5 9
q48 0 77 -29t29 -77q0 -17 -2 -33t-6 -33l-64 -306h-85l62 292q2 11 4 23t2 24q0 33 -16 48t-41 15q-19 0 -38.5 -10t-37.5 -25.5t-34 -34t-28 -35.5q-15 -21 -19 -42z" />
    <glyph glyph-name="n" unicode="n" horiz-adv-x="535" 
d="M465 372q0 -17 -2 -33t-6 -33l-64 -306h-85l61 292q2 11 4 23t2 24q0 33 -17 48t-43 15q-21 0 -42 -10t-40.5 -25.5t-36.5 -34t-30 -35.5q-8 -11 -12.5 -20.5t-6.5 -20.5l-55 -256h-85l99 464h81l-21 -93q18 20 39 39.5t44.5 34.5t49.5 24t55 9q51 0 80.5 -29t30.5 -77z
" />
    <glyph glyph-name="o" unicode="o" horiz-adv-x="494" 
d="M445 307q0 -56 -17.5 -114t-51 -104.5t-83 -76t-114.5 -29.5q-82 0 -128 48t-46 126q0 57 17.5 114.5t51.5 104t84 76t115 29.5q81 0 126.5 -48t45.5 -126zM357 296q0 51 -22 83.5t-72 32.5q-44 0 -76 -24.5t-52.5 -61.5t-30.5 -79t-10 -78q0 -51 22.5 -83.5t72.5 -32.5
q44 0 76 24.5t52 61t30 79t10 78.5z" />
    <glyph glyph-name="p" unicode="p" horiz-adv-x="514" 
d="M375 298q0 42 -14.5 73t-52.5 31q-21 0 -41 -10t-38.5 -25.5t-34.5 -33.5t-27 -33q-15 -19 -20 -42l-30 -137q-4 -19 2 -32.5t18.5 -22.5t29 -13t33.5 -4q48 0 81.5 25t54.5 62.5t30 81t9 80.5zM166 371q13 14 31 32.5t40.5 35t48.5 28t55 11.5q32 0 55 -13t38 -34.5
t22.5 -51t7.5 -62.5q0 -56 -16.5 -114.5t-49 -106.5t-81.5 -78.5t-114 -30.5q-29 0 -58.5 7.5t-46.5 33.5l-52 -238h-83l125 588q3 15 0 24t-17 9q-10 0 -20 -4l4 56q11 3 26 5.5t31 2.5q64 0 64 -46q0 -8 -1.5 -16t-3.5 -16z" />
    <glyph glyph-name="q" unicode="q" horiz-adv-x="514" 
d="M323 -210h-83l62 296q-15 -17 -33 -34.5t-39.5 -32t-46 -24t-50.5 -9.5q-35 0 -58.5 14.5t-37.5 37t-20.5 51t-6.5 57.5q0 57 16.5 115.5t49.5 106.5t82 78.5t114 30.5q35 0 62.5 -9.5t44.5 -32.5l6 29h81zM357 343q4 20 -2.5 33.5t-19 22t-29 12.5t-31.5 4
q-47 0 -80.5 -23.5t-54.5 -60t-31 -81t-10 -87.5q0 -20 3.5 -38.5t11 -32.5t20.5 -22t32 -8q21 0 41 10t38.5 25t34 33t27.5 34q15 19 20 42z" />
    <glyph glyph-name="r" unicode="r" horiz-adv-x="338" 
d="M88 378q3 15 0 24t-17 9q-10 0 -20 -4l4 56q11 3 25 5.5t30 2.5q62 0 62 -46q0 -8 -1.5 -15.5t-3.5 -16.5l-7 -33q18 24 35 45.5t35 37.5t37 25.5t42 9.5q11 0 21 -2t18 -5l-29 -84q-8 3 -16 5t-16 2q-32 0 -62.5 -26t-55.5 -61q-10 -14 -14.5 -24t-7.5 -24l-55 -259h-85
z" />
    <glyph glyph-name="s" unicode="s" horiz-adv-x="364" 
d="M307 382q-19 19 -44 27.5t-54 8.5q-42 0 -64 -19t-22 -47q0 -29 21 -47t47 -35q17 -11 34.5 -24t32 -29t23.5 -36t9 -45q0 -36 -15 -64.5t-40 -47.5t-56 -29t-64 -10q-37 0 -75 9t-63 33l31 62q20 -20 47.5 -29.5t56.5 -9.5q18 0 35 4t30 13t21 22.5t8 31.5
q0 28 -19.5 47t-55.5 43q-16 11 -32 23t-28.5 26.5t-20 33t-7.5 41.5q0 32 12 59t34 46.5t53 30t68 10.5t69.5 -9t58.5 -31z" />
    <glyph glyph-name="t" unicode="t" horiz-adv-x="307" 
d="M300 395h-122l-55 -260q-2 -8 -3.5 -17t-1.5 -17q0 -26 17 -38.5t43 -12.5q14 0 28 2.5t25 7.5v-61q-19 -7 -44 -10.5t-46 -3.5q-22 0 -42 5t-35 16.5t-24.5 29t-9.5 41.5q0 11 2 23.5t4 23.5l58 271h-84l14 61h82l21 102l91 28l-27 -130h123z" />
    <glyph glyph-name="u" unicode="u" horiz-adv-x="515" 
d="M387 86q-3 -15 0 -24.5t17 -9.5q10 0 20 4l-4 -55q-11 -3 -25.5 -5.5t-29.5 -2.5q-62 0 -62 46q0 7 1 15.5t3 16.5l7 28q-18 -21 -38 -41t-43 -36t-48.5 -26t-53.5 -10q-48 0 -76.5 29t-29.5 77q0 17 2 33.5t6 33.5l65 305h85l-62 -292q-2 -11 -4 -23t-2 -23
q0 -33 16 -48.5t41 -15.5q19 0 38.5 10t37.5 25.5t34 34t28 35.5q14 20 18 41l55 256h85z" />
    <glyph glyph-name="v" unicode="v" horiz-adv-x="413" 
d="M368 464q6 -18 9.5 -42.5t3.5 -49.5q0 -48 -16 -93t-44.5 -91t-68 -92.5t-85.5 -97.5h-89l-44 466h83l25 -292q2 -30 3.5 -55.5t1.5 -47.5h1q41 49 71 90.5t49.5 77.5t29 69t9.5 65q0 29 -4 51t-9 42h74z" />
    <glyph glyph-name="w" unicode="w" horiz-adv-x="645" 
d="M599 464q5 -18 8.5 -42.5t3.5 -49.5q0 -48 -14 -93t-40 -91t-63 -92.5t-83 -97.5h-89l-19 194q-20 -45 -54.5 -92t-81.5 -102h-89l-44 466h83l25 -292q2 -30 3.5 -55.5t1.5 -47.5h1q66 78 100 133.5t45 102.5l-15 159h83l25 -292q3 -30 4 -55.5t1 -47.5h1
q42 49 69.5 90.5t44.5 77.5t24 69t7 65q0 29 -3.5 51t-8.5 42h74z" />
    <glyph glyph-name="x" unicode="x" horiz-adv-x="400" 
d="M201 298q25 49 47.5 82.5t46.5 54.5t51 30t61 9l-12 -74q-24 0 -43 -9t-38 -29t-39 -51t-45 -76l92 -235h-88l-69 173q-26 -52 -49.5 -87t-48 -56t-51.5 -30t-61 -9l12 74q24 0 43.5 9t38.5 29.5t40 53.5t48 82l-88 225h88z" />
    <glyph glyph-name="y" unicode="y" horiz-adv-x="409" 
d="M377 382q0 -47 -13 -89.5t-36 -85t-54.5 -87t-68.5 -94.5q-40 -55 -75 -99.5t-69.5 -76t-70 -49t-76.5 -17.5q-26 0 -50 6.5t-43 22.5l28 62q13 -13 30.5 -19t35.5 -6q48 0 91.5 42t93.5 109l-81 463h83l49 -296q5 -26 7.5 -46l5.5 -44h1q32 46 57.5 84t43.5 73.5
t27.5 71t9.5 74.5q0 23 -3.5 44t-8.5 39h75q5 -17 8 -40t3 -42z" />
    <glyph glyph-name="z" unicode="z" horiz-adv-x="401" 
d="M377 394l-304 -330h253l-12 -64h-348l15 68l308 333h-230l13 63h321z" />
    <glyph glyph-name="braceleft" unicode="{" horiz-adv-x="317" 
d="M367 654q-36 1 -60 -5.5t-40 -20.5t-25 -35.5t-15 -50.5l-28 -125q-14 -69 -47 -104t-84 -46q39 -17 59.5 -54t8.5 -95l-25 -121q-12 -57 10 -84.5t83 -27.5l-12 -55q-44 0 -73.5 9.5t-48 25.5t-26.5 37t-8 45q0 10 1 19t3 19l28 132q13 63 -9 94.5t-65 33.5l10 50
q50 2 82 31t47 98l29 141q9 40 24 68t40.5 45.5t62.5 25t90 6.5z" />
    <glyph glyph-name="bar" unicode="|" horiz-adv-x="250" 
d="M43 -216h-70l213 1000h70z" />
    <glyph glyph-name="braceright" unicode="}" horiz-adv-x="317" 
d="M272 245q-50 -2 -82 -31t-47 -98l-29 -141q-9 -40 -24 -68t-40.5 -45.5t-62.5 -25t-90 -6.5l12 56q36 -1 60.5 5.5t40 20.5t25 35.5t15.5 50.5l27 125q14 69 47.5 104t83.5 46q-39 17 -59 54t-8 95l25 121q11 57 -11 84.5t-82 27.5l11 55q43 0 73 -9.5t48.5 -25.5
t26.5 -37t8 -45q0 -21 -4 -38l-28 -132q-13 -63 9.5 -94.5t64.5 -33.5z" />
    <glyph glyph-name="asciitilde" unicode="~" 
d="M474 256q-23 -25 -52 -40t-64 -15q-28 0 -55.5 10t-54.5 22t-53.5 22t-52.5 10q-40 0 -67 -18t-50 -46v87q22 25 52 40t64 15q28 0 55.5 -10t54.5 -22.5t53.5 -22.5t52.5 -10q40 0 67 18.5t50 45.5v-86z" />
    <glyph glyph-name="exclamdown" unicode="&#xa1;" horiz-adv-x="268" 
d="M154 292q-6 -42 -17 -108.5t-24.5 -143.5t-29 -159t-31.5 -155h-96q16 74 34.5 156t37.5 159t36 143t29 108h61zM206 425q0 -27 -17.5 -45.5t-45.5 -18.5q-21 0 -35.5 12t-14.5 35q0 27 17 45.5t45 18.5q22 0 36.5 -12.5t14.5 -34.5z" />
    <glyph glyph-name="cent" unicode="&#xa2;" 
d="M183 -82l15 70q-74 15 -112 77t-38 165q0 69 19.5 134t56 116.5t88.5 85t116 39.5l14 65h57l-14 -65q39 -3 68 -15t55 -32l-36 -66q-20 19 -45.5 30.5t-55.5 13.5l-103 -481q38 0 68 11t55 33l20 -63q-34 -28 -72.5 -39.5t-84.5 -13.5l-14 -65h-57zM132 234
q0 -68 19 -110.5t63 -57.5l98 463q-47 -11 -80.5 -41t-56 -71.5t-33 -89.5t-10.5 -93z" />
    <glyph glyph-name="sterling" unicode="&#xa3;" 
d="M51 333h79q-6 23 -10.5 47.5t-4.5 50.5q0 37 16 69t45 56t69 37.5t89 13.5q48 0 87.5 -11.5t66.5 -34.5l-35 -66q-44 39 -116 39q-61 0 -96.5 -30.5t-35.5 -81.5q0 -23 4.5 -45.5t9.5 -43.5h192l-12 -61h-165q3 -14 5.5 -27.5t2.5 -27.5q0 -46 -27.5 -79t-79.5 -67h278
l-15 -71h-384l12 66q39 21 64 39t40 36t20.5 36t5.5 39q0 14 -2.5 27.5t-6.5 28.5h-108z" />
    <glyph glyph-name="currency" unicode="&#xa4;" 
d="M384 271q0 -36 -15 -64l98 -98l-54 -56l-97 96q-29 -17 -65 -17t-66 19l-99 -99l-55 57l102 100q-15 27 -15 62q0 34 14 62l-100 101l55 56l98 -98q14 8 30.5 13t35.5 5q35 0 64 -18l99 99l54 -56l-99 -99q15 -30 15 -65zM325 271q0 35 -21 59.5t-54 24.5
q-34 0 -54 -24.5t-20 -59.5q0 -36 20 -60t54 -24q33 0 54 24t21 60z" />
    <glyph glyph-name="yen" unicode="&#xa5;" 
d="M27 167h142l16 76h-140l11 59h122l-101 287h93l85 -256l177 256h88l-210 -287h125l-12 -59h-147l-16 -76h145l-11 -58h-146l-22 -109h-92l23 109h-141z" />
    <glyph glyph-name="brokenbar" unicode="&#xa6;" horiz-adv-x="258" 
d="M86 428v276h83v-276h-83zM86 2v276h83v-276h-83z" />
    <glyph glyph-name="section" unicode="&#xa7;" horiz-adv-x="537" 
d="M471 605q-26 28 -60.5 39t-72.5 11q-24 0 -46.5 -6t-39.5 -18.5t-27.5 -31.5t-10.5 -45q0 -21 8.5 -38t22.5 -32.5t33.5 -29.5t41.5 -29q23 -15 47.5 -34t45 -42t34 -51.5t13.5 -62.5q0 -30 -9 -55t-24 -45.5t-34.5 -36t-41.5 -26.5q12 -17 19.5 -40t7.5 -49
q0 -48 -19 -85t-50.5 -62t-73 -38t-85.5 -13q-48 0 -95 12.5t-83 44.5l38 68q27 -29 64.5 -41t77.5 -12q25 0 50 6t44 19t31 34t12 50q0 24 -10.5 43.5t-28 36.5t-39 32.5t-42.5 30.5q-22 15 -43.5 33t-38.5 39t-27.5 45.5t-10.5 53.5q0 60 32 103t79 62q-14 20 -22 43.5
t-8 49.5q0 45 17 80t46 58.5t67 36t80 12.5q45 0 88.5 -12t77.5 -41zM371 220q0 22 -9 41t-23.5 35.5t-32.5 30t-35 25.5q-16 12 -31.5 23t-29.5 22q-34 -10 -55.5 -36t-21.5 -64q0 -37 26.5 -64.5t62.5 -53.5q20 -14 40.5 -29t37.5 -29q30 12 50.5 37t20.5 62z" />
    <glyph glyph-name="dieresis" unicode="&#xa8;" 
d="M208 687q0 -23 -15 -38.5t-40 -15.5q-20 0 -31.5 10.5t-11.5 27.5q0 23 15 38.5t39 15.5q20 0 31.5 -10.5t12.5 -27.5zM390 687q0 -23 -15 -38.5t-39 -15.5q-20 0 -31.5 10.5t-12.5 27.5q0 23 15 38.5t40 15.5q20 0 31.5 -10.5t11.5 -27.5z" />
    <glyph glyph-name="dieresis" unicode="&#x308;" 
d="M208 687q0 -23 -15 -38.5t-40 -15.5q-20 0 -31.5 10.5t-11.5 27.5q0 23 15 38.5t39 15.5q20 0 31.5 -10.5t12.5 -27.5zM390 687q0 -23 -15 -38.5t-39 -15.5q-20 0 -31.5 10.5t-12.5 27.5q0 23 15 38.5t40 15.5q20 0 31.5 -10.5t11.5 -27.5z" />
    <glyph glyph-name="copyright" unicode="&#xa9;" horiz-adv-x="847" 
d="M803 429q0 -80 -27 -160.5t-81.5 -145t-136 -105t-190.5 -40.5q-68 0 -127 20.5t-102.5 59.5t-68.5 95t-25 126q0 80 27 160.5t81.5 145t136 105t190.5 40.5q68 0 127 -20.5t102.5 -59.5t68.5 -95t25 -126zM747 419q0 62 -20 110.5t-56 82t-86.5 51t-112.5 17.5
q-92 0 -161 -34.5t-116 -90t-70.5 -125.5t-23.5 -141q0 -62 20 -110.5t56 -82t86.5 -51t112.5 -17.5q91 0 160.5 34.5t116.5 90t70.5 125.5t23.5 141zM570 495q-20 22 -44 31.5t-51 9.5q-47 0 -82.5 -20t-59.5 -52t-36 -73.5t-12 -83.5q0 -59 31.5 -94t94.5 -35q29 0 55 9.5
t50 31.5l18 -56q-30 -25 -65.5 -36t-72.5 -11q-42 0 -76 13.5t-58 38.5t-36.5 59t-12.5 75q0 56 18 109t52.5 94.5t83 67t110.5 25.5q35 0 68.5 -10t59.5 -36z" />
    <glyph glyph-name="ordfeminine" unicode="&#xaa;" horiz-adv-x="369" 
d="M320 364q-2 -12 -0.5 -20.5t12.5 -8.5q7 0 16 3l-3 -45q-9 -2 -20.5 -4t-24.5 -2q-51 0 -51 37q0 6 1 13t3 14l4 16q-10 -14 -23.5 -29t-29 -27t-33 -20t-36.5 -8q-24 0 -41 10.5t-27.5 27t-15 38t-4.5 42.5q0 42 11.5 86t34.5 79.5t58 58t82 22.5q23 0 42.5 -7t31.5 -24
q2 5 2.5 10.5t2.5 11.5h67zM291 546q5 27 -13.5 39t-41.5 12q-32 0 -54 -18t-36 -45t-20.5 -58.5t-6.5 -57.5q0 -30 9.5 -51t34.5 -21q13 0 26 7t25.5 18t23 23.5t17.5 23.5q8 12 13.5 27.5t9.5 33t7 35t6 32.5z" />
    <glyph glyph-name="guillemotleft" unicode="&#xab;" horiz-adv-x="472" 
d="M81 229l87 -194h-64l-113 196l175 192h76zM292 229l87 -194h-64l-113 196l175 192h76z" />
    <glyph glyph-name="logicalnot" unicode="&#xac;" 
d="M402 24v208h-383v79h461v-287h-78z" />
    <glyph glyph-name="registered" unicode="&#xae;" horiz-adv-x="847" 
d="M803 429q0 -80 -27 -160.5t-81.5 -145t-136 -105t-190.5 -40.5q-68 0 -127 20.5t-102.5 59.5t-68.5 95t-25 126q0 80 27 160.5t81.5 145t136 105t190.5 40.5q68 0 127 -20.5t102.5 -59.5t68.5 -95t25 -126zM747 419q0 62 -20 110.5t-56 82t-86.5 51t-112.5 17.5
q-92 0 -161 -34.5t-116 -90t-70.5 -125.5t-23.5 -141q0 -62 20 -110.5t56 -82t86.5 -51t112.5 -17.5q91 0 160.5 34.5t116.5 90t70.5 125.5t23.5 141zM601 470q0 -59 -37.5 -91t-91.5 -43q23 -52 48.5 -103.5t53.5 -105.5h-83l-77 175q-5 11 -11.5 15.5t-17.5 4.5h-46
l-41 -195h-71l100 458h119q29 0 57 -5.5t49.5 -19t35 -35.5t13.5 -55zM529 464q0 19 -8 31.5t-20.5 20t-29 10t-33.5 2.5h-54l-32 -152h52q22 0 44.5 4t40.5 14t29 27t11 43z" />
    <glyph glyph-name="macron" unicode="&#xaf;" 
d="M377 641h-265l11 57h265z" />
    <glyph glyph-name="macron" unicode="&#x304;" 
d="M377 641h-265l11 57h265z" />
    <glyph glyph-name="macron" unicode="&#x2c9;" 
d="M377 641h-265l11 57h265z" />
    <glyph glyph-name="degree" unicode="&#xb0;" horiz-adv-x="371" 
d="M352 580q0 -33 -11.5 -63t-31.5 -53t-48 -37t-62 -14q-49 0 -83 29.5t-34 80.5q0 33 11.5 63t31.5 53t48.5 36.5t61.5 13.5q49 0 83 -29t34 -80zM295 573q0 29 -18 45.5t-47 16.5q-22 0 -39 -9t-28 -24t-17 -34t-6 -39q0 -29 17.5 -45.5t46.5 -16.5q22 0 39 9t28.5 24
t17.5 34t6 39z" />
    <glyph glyph-name="plusminus" unicode="&#xb1;" 
d="M289 233v-102h-78v102h-192v79h192v171h77v-171h192v-79h-191zM19 0v78h461v-78h-461z" />
    <glyph glyph-name="twosuperior" unicode="&#xb2;" horiz-adv-x="356" 
d="M370 644q0 -34 -12 -60.5t-31.5 -48t-44 -39t-49.5 -34.5q-34 -23 -66 -49t-41 -56h199l-12 -64h-283l11 55q7 25 21.5 46.5t34 40.5t42 35t43.5 30q17 11 36.5 24.5t36 29t27.5 34.5t11 42q0 32 -22 51t-55 19q-27 0 -52 -13t-42 -33l-24 58q29 26 62.5 39.5t75.5 13.5
q26 0 50.5 -8t43 -23t29.5 -37.5t11 -52.5z" />
    <glyph glyph-name="threesuperior" unicode="&#xb3;" horiz-adv-x="356" 
d="M358 655q0 -44 -28 -73t-70 -43v-1q36 -11 55.5 -36.5t19.5 -59.5q0 -37 -14.5 -66.5t-40 -50.5t-59 -32t-71.5 -11q-35 0 -67.5 9.5t-57.5 27.5l33 60q16 -14 40 -26t52 -12q45 0 75.5 25t30.5 72q0 34 -26 51.5t-64 17.5h-42l12 57h39q18 0 37 4t34.5 13t25.5 23.5
t10 35.5q0 30 -22 46t-51 16q-28 0 -51.5 -10t-41.5 -27l-18 59q29 21 61 30.5t70 9.5q24 0 47 -6.5t41.5 -20t29.5 -34t11 -48.5z" />
    <glyph glyph-name="acute" unicode="&#xb4;" 
d="M203 531h-66l127 175h99z" />
    <glyph glyph-name="acute" unicode="&#x301;" 
d="M203 531h-66l127 175h99z" />
    <glyph glyph-name="acute" unicode="&#x2ca;" 
d="M203 531h-66l127 175h99z" />
    <glyph glyph-name="mu" unicode="&#xb5;" horiz-adv-x="530" 
d="M150 -14q-23 0 -37.5 9t-21.5 23l-43 -228h-85l143 674h85l-62 -292q-2 -11 -4 -23t-2 -23q0 -33 16 -48.5t41 -15.5q19 0 38.5 10t37.5 25.5t34 34t28 35.5q14 20 18 41l55 256h85l-81 -379q-3 -13 -0.5 -23t17.5 -10q5 0 10 1t10 3l-4 -55q-10 -4 -25 -6t-30 -2
q-72 0 -54 82l6 25q-19 -22 -39.5 -42.5t-42.5 -36.5t-45.5 -25.5t-47.5 -9.5z" />
    <glyph glyph-name="paragraph" unicode="&#xb6;" horiz-adv-x="563" 
d="M534 648l-141 -666q-20 -92 -78 -145t-150 -53q-30 0 -58.5 8t-52.5 25l33 66q36 -30 84 -30q57 0 93 34t50 96l141 665h-69l-138 -648h-79l47 224q-64 14 -99.5 60t-35.5 121q0 65 20 120t57 95.5t89.5 63t118.5 22.5h270l-12 -58h-90z" />
    <glyph glyph-name="periodcentered" unicode="&#xb7;" horiz-adv-x="250" 
d="M160 246q0 -27 -17 -46t-46 -19q-22 0 -36.5 12.5t-14.5 34.5q0 27 17 46t46 19q22 0 36.5 -12.5t14.5 -34.5z" />
    <glyph glyph-name="periodcentered" unicode="&#x2219;" horiz-adv-x="250" 
d="M160 246q0 -27 -17 -46t-46 -19q-22 0 -36.5 12.5t-14.5 34.5q0 27 17 46t46 19q22 0 36.5 -12.5t14.5 -34.5z" />
    <glyph glyph-name="cedilla" unicode="&#xb8;" 
d="M227 -209q-21 0 -38.5 6t-31.5 15l16 49q10 -7 23.5 -12t27.5 -5q25 0 44.5 15t19.5 48q0 29 -10 53t-24 48h47q16 -25 28.5 -53t12.5 -59q0 -43 -30.5 -74t-84.5 -31z" />
    <glyph glyph-name="cedilla" unicode="&#x327;" 
d="M227 -209q-21 0 -38.5 6t-31.5 15l16 49q10 -7 23.5 -12t27.5 -5q25 0 44.5 15t19.5 48q0 29 -10 53t-24 48h47q16 -25 28.5 -53t12.5 -59q0 -43 -30.5 -74t-84.5 -31z" />
    <glyph glyph-name="onesuperior" unicode="&#xb9;" horiz-adv-x="297" 
d="M192 293h-74l81 378q-24 -16 -56.5 -30t-60.5 -24l-16 58q36 14 78 34t79 43h66z" />
    <glyph glyph-name="ordmasculine" unicode="&#xba;" horiz-adv-x="363" 
d="M370 518q0 -42 -13 -84.5t-38 -76.5t-61.5 -55t-83.5 -21q-60 0 -94.5 35t-34.5 96q0 42 13 84.5t38 76.5t61.5 55t83.5 21q61 0 95 -35t34 -96zM299 512q0 35 -15.5 59t-50.5 24q-31 0 -53 -18t-36 -45t-20.5 -57.5t-6.5 -55.5q0 -35 15 -59t50 -24q31 0 53 18t36.5 45
t21 57.5t6.5 55.5z" />
    <glyph glyph-name="guillemotright" unicode="&#xbb;" horiz-adv-x="472" 
d="M351 229l-87 194h64l113 -196l-175 -192h-76zM140 229l-87 194h64l113 -196l-175 -192h-76z" />
    <glyph glyph-name="onequarter" unicode="&#xbc;" horiz-adv-x="746" 
d="M169 247h-74l81 378q-24 -16 -56.5 -30t-60.5 -24l-16 58q36 14 78 34t79 43h66zM118 0h-79l560 706h80zM678 101h-60l-23 -101h-71l22 101h-204l13 66l239 292h98l-63 -301h60zM605 387q-8 -11 -20 -28.5t-26 -35.5l-138 -165h136l49 229h-1z" />
    <glyph glyph-name="onehalf" unicode="&#xbd;" horiz-adv-x="817" 
d="M169 247h-74l81 378q-24 -16 -56.5 -30t-60.5 -24l-16 58q36 14 78 34t79 43h66zM118 0h-79l560 706h80zM757 351q0 -34 -12 -60.5t-31.5 -48t-44 -39t-49.5 -34.5q-34 -23 -66 -49t-41 -56h199l-12 -64h-283l11 55q7 25 21.5 46.5t34 40.5t42 35t43.5 30
q17 11 36.5 24.5t36 29t27.5 34.5t11 42q0 32 -22 51t-55 19q-27 0 -52 -13t-42 -33l-24 58q29 26 62.5 39.5t75.5 13.5q26 0 50.5 -8t43 -23t29.5 -37.5t11 -52.5z" />
    <glyph glyph-name="threequarters" unicode="&#xbe;" horiz-adv-x="827" 
d="M335 609q0 -44 -28 -73t-70 -43v-1q36 -11 55.5 -36.5t19.5 -59.5q0 -37 -14.5 -66.5t-40 -50.5t-59 -32t-71.5 -11q-35 0 -67.5 9.5t-57.5 27.5l33 60q16 -14 40 -26t52 -12q45 0 75.5 25t30.5 72q0 34 -26 51.5t-64 17.5h-42l12 57h39q18 0 37 4t34.5 13t25.5 23.5
t10 35.5q0 30 -22 46t-51 16q-28 0 -51.5 -10t-41.5 -27l-18 59q29 21 61 30.5t70 9.5q24 0 47 -6.5t41.5 -20t29.5 -34t11 -48.5zM197 0h-79l560 706h80zM759 101h-60l-23 -101h-71l22 101h-204l13 66l239 292h98l-63 -301h60zM686 387q-8 -11 -20 -28.5t-26 -35.5
l-138 -165h136l49 229h-1z" />
    <glyph glyph-name="questiondown" unicode="&#xbf;" horiz-adv-x="458" 
d="M342 -189q-41 -48 -89 -71t-111 -23q-36 0 -68.5 12t-57 33.5t-39.5 52.5t-15 69q0 48 20.5 87.5t52 72.5t70.5 59.5t77 48.5q4 15 8.5 33t9.5 37t10 37.5t8 32.5h61l-27 -167q-35 -23 -71 -47.5t-64.5 -52.5t-46.5 -61t-18 -72q0 -49 32 -76t80 -27q45 0 78.5 21.5
t59.5 57.5zM331 425q0 -27 -17 -46t-46 -19q-21 0 -35.5 12.5t-14.5 34.5q0 28 17 46.5t45 18.5q21 0 36 -12.5t15 -34.5z" />
    <glyph glyph-name="Agrave" unicode="&#xc0;" horiz-adv-x="620" 
d="M441 0l-24 182h-283l-100 -182h-94l395 708h104l97 -708h-95zM378 497q-2 12 -4 29l-3 35q-1 18 -2.5 33.5t-1.5 24.5h-2q-3 -8 -10.5 -23t-16 -32.5t-18 -35.5t-16.5 -32l-131 -240h236zM358 745l-120 135h94l90 -135h-64z" />
    <glyph glyph-name="Aacute" unicode="&#xc1;" horiz-adv-x="620" 
d="M441 0l-24 182h-283l-100 -182h-94l395 708h104l97 -708h-95zM378 497q-2 12 -4 29l-3 35q-1 18 -2.5 33.5t-1.5 24.5h-2q-3 -8 -10.5 -23t-16 -32.5t-18 -35.5t-16.5 -32l-131 -240h236zM432 745h-70l127 155h99z" />
    <glyph glyph-name="Acircumflex" unicode="&#xc2;" horiz-adv-x="620" 
d="M441 0l-24 182h-283l-100 -182h-94l395 708h104l97 -708h-95zM378 497q-2 12 -4 29l-3 35q-1 18 -2.5 33.5t-1.5 24.5h-2q-3 -8 -10.5 -23t-16 -32.5t-18 -35.5t-16.5 -32l-131 -240h236zM480 745l-77 84l-101 -84h-69l129 135h92l91 -135h-65z" />
    <glyph glyph-name="Atilde" unicode="&#xc3;" horiz-adv-x="620" 
d="M441 0l-24 182h-283l-100 -182h-94l395 708h104l97 -708h-95zM378 497q-2 12 -3.5 29.5l-3 35t-3 33t-1.5 24.5h-2q-3 -8 -10.5 -23t-16 -32.5t-18 -35.5t-16.5 -32l-131 -240h236zM578 884q-5 -23 -13 -44t-20.5 -37.5t-30.5 -26.5t-43 -10q-19 0 -37.5 8t-36 18t-35 18
t-33.5 8q-26 0 -39.5 -20t-17.5 -40h-54q4 23 12 44t21 37.5t31 26.5t43 10q19 0 37.5 -8t36 -18t34.5 -18t34 -8q13 0 23 5.5t16.5 14.5t11 19.5t6.5 20.5h54v0z" />
    <glyph glyph-name="Adieresis" unicode="&#xc4;" horiz-adv-x="620" 
d="M441 0l-24 182h-283l-100 -182h-94l395 708h104l97 -708h-95zM378 497q-2 12 -4 29l-3 35q-1 18 -2.5 33.5t-1.5 24.5h-2q-3 -8 -10.5 -23t-16 -32.5t-18 -35.5t-16.5 -32l-131 -240h236zM554 868q0 -23 -15 -39t-39 -16q-20 0 -31.5 10.5t-12.5 27.5q0 23 15 38.5
t40 15.5q20 0 31.5 -10t11.5 -27zM372 868q0 -23 -15 -39t-40 -16q-20 0 -31.5 10.5t-11.5 27.5q0 23 15 38.5t39 15.5q20 0 31.5 -10t12.5 -27z" />
    <glyph glyph-name="Aring" unicode="&#xc5;" horiz-adv-x="620" 
d="M441 0l-24 182h-283l-100 -182h-94l395 708h104l97 -708h-95zM378 497q-2 12 -4 29l-3 35q-1 18 -2.5 33.5t-1.5 24.5h-2q-3 -8 -10.5 -23t-16 -32.5t-18 -35.5t-16.5 -32l-131 -240h236zM514 861q0 -25 -9 -46.5t-25 -38t-37.5 -26t-46.5 -9.5q-35 0 -60.5 20t-25.5 57
q0 25 9 46.5t25 38t37.5 26t46.5 9.5q35 0 60.5 -20t25.5 -57zM467 856q0 20 -11.5 32.5t-32.5 12.5q-33 0 -49.5 -24.5t-16.5 -53.5q0 -21 11.5 -33t32.5 -12q33 0 49.5 24t16.5 54z" />
    <glyph glyph-name="AE" unicode="&#xc6;" horiz-adv-x="870" 
d="M850 627h-310l-11 -251h271l-15 -77h-259l-9 -220h266l-16 -79h-344l13 287h-217l-182 -287h-97l454 706h472zM439 641l-178 -280h178l12 280h-12z" />
    <glyph glyph-name="Ccedilla" unicode="&#xc7;" horiz-adv-x="619" 
d="M224 -209q-21 0 -38.5 6t-31.5 15l16 49q10 -7 23.5 -12t27.5 -5q25 0 44.5 15t19.5 48q0 29 -10 53q-6 13 -13 27q-34 5 -65 17q-51 22 -87 60t-55.5 91.5t-19.5 116.5q0 86 28.5 167.5t81 145t126.5 102t165 38.5q54 0 103 -14.5t87 -50.5l-45 -75q-28 31 -66 45
t-80 14q-75 0 -132 -32t-95.5 -84t-57.5 -118t-19 -134q0 -48 13 -87t38.5 -66.5t63 -43t87.5 -15.5q45 0 86.5 14.5t73.5 44.5l24 -72q-42 -35 -95 -51.5t-108 -16.5h-1q7 -14 13 -28q13 -28 13 -59q0 -43 -30.5 -74t-84.5 -31z" />
    <glyph glyph-name="Egrave" unicode="&#xc8;" horiz-adv-x="533" 
d="M514 627h-276l-46 -214h271l-16 -77h-271l-56 -257h306l-16 -79h-398l150 706h368zM334 745l-120 135h94l90 -135h-64z" />
    <glyph glyph-name="Eacute" unicode="&#xc9;" horiz-adv-x="533" 
d="M514 627h-276l-46 -214h271l-16 -77h-271l-56 -257h306l-16 -79h-398l150 706h368zM370 745h-70l127 155h99z" />
    <glyph glyph-name="Ecircumflex" unicode="&#xca;" horiz-adv-x="533" 
d="M514 627h-276l-46 -214h271l-16 -77h-271l-56 -257h306l-16 -79h-398l150 706h368zM442 745l-77 84l-101 -84h-69l129 135h92l91 -135h-65z" />
    <glyph glyph-name="Edieresis" unicode="&#xcb;" horiz-adv-x="533" 
d="M514 627h-276l-46 -214h271l-16 -77h-271l-56 -257h306l-16 -79h-398l150 706h368zM329 868q0 -23 -15 -39t-40 -16q-20 0 -31.5 10.5t-11.5 27.5q0 23 15 38.5t39 15.5q20 0 31.5 -10t12.5 -27zM511 868q0 -23 -15 -39t-39 -16q-20 0 -31.5 10.5t-12.5 27.5
q0 23 15 38.5t40 15.5q20 0 31.5 -10t11.5 -27z" />
    <glyph glyph-name="Igrave" unicode="&#xcc;" horiz-adv-x="278" 
d="M110 0h-92l150 706h92zM185 745l-120 135h94l90 -135h-64z" />
    <glyph glyph-name="Iacute" unicode="&#xcd;" horiz-adv-x="278" 
d="M110 0h-92l150 706h92zM256 745h-70l127 155h99z" />
    <glyph glyph-name="Icircumflex" unicode="&#xce;" horiz-adv-x="278" 
d="M110 0h-92l150 706h92zM313 745l-77 84l-101 -84h-69l129 135h92l91 -135h-65z" />
    <glyph glyph-name="Idieresis" unicode="&#xcf;" horiz-adv-x="278" 
d="M110 0h-92l150 706h92zM203 868q0 -23 -15 -39t-40 -16q-20 0 -31.5 10.5t-11.5 27.5q0 23 15 38.5t39 15.5q20 0 31.5 -10t12.5 -27zM385 868q0 -23 -15 -39t-39 -16q-20 0 -31.5 10.5t-12.5 27.5q0 23 15 38.5t40 15.5q20 0 31.5 -10t11.5 -27z" />
    <glyph glyph-name="Eth" unicode="&#xd0;" horiz-adv-x="716" 
d="M681 429q0 -110 -36.5 -190.5t-100.5 -133.5t-151.5 -79t-190.5 -26h-188l72 339h-83l16 72h82l63 295h190q66 0 125.5 -15.5t104.5 -49t71 -86t26 -126.5zM585 420q0 55 -19 94t-52 64.5t-78.5 37.5t-99.5 12h-96l-47 -217h176l-15 -72h-176l-56 -262h101q81 0 148 22.5
t114.5 66t73.5 107.5t26 147z" />
    <glyph glyph-name="Ntilde" unicode="&#xd1;" horiz-adv-x="725" 
d="M563 0h-84l-210 441q-16 34 -29 66t-20 56h-2l-121 -563h-85l150 706h83l205 -437q22 -47 35 -81t18 -54h2l123 572h85zM620 884q-5 -23 -13 -44t-20.5 -37.5t-30.5 -26.5t-43 -10q-19 0 -37.5 8t-36 18t-35 18t-33.5 8q-26 0 -39.5 -20t-17.5 -40h-54q4 23 12 44
t21 37.5t31 26.5t43 10q19 0 37.5 -8t36 -18t34.5 -18t34 -8q13 0 23 5.5t16.5 14.5t11 19.5t6.5 20.5h54z" />
    <glyph glyph-name="Ograve" unicode="&#xd2;" horiz-adv-x="711" 
d="M676 465q0 -57 -11 -115t-32.5 -112t-54 -101t-75.5 -81.5t-97 -54.5t-118 -20q-60 0 -107 19t-79.5 53.5t-49.5 83t-17 106.5q0 57 11 115t32.5 112t54 101t75.5 81.5t97 54.5t118 20q60 0 107 -19t79.5 -53.5t49.5 -83t17 -106.5zM580 455q0 40 -9.5 74.5t-30 60.5
t-52 41t-75.5 15q-75 0 -129 -38t-88 -96t-50 -127t-16 -132q0 -40 10 -74.5t30 -60.5t51.5 -41t75.5 -15q75 0 129 38t88 96t50 127t16 132zM398 745l-120 135h94l90 -135h-64z" />
    <glyph glyph-name="Oacute" unicode="&#xd3;" horiz-adv-x="711" 
d="M676 465q0 -57 -11 -115t-32.5 -112t-54 -101t-75.5 -81.5t-97 -54.5t-118 -20q-60 0 -107 19t-79.5 53.5t-49.5 83t-17 106.5q0 57 11 115t32.5 112t54 101t75.5 81.5t97 54.5t118 20q60 0 107 -19t79.5 -53.5t49.5 -83t17 -106.5zM580 455q0 40 -9.5 74.5t-30 60.5
t-52 41t-75.5 15q-75 0 -129 -38t-88 -96t-50 -127t-16 -132q0 -40 10 -74.5t30 -60.5t51.5 -41t75.5 -15q75 0 129 38t88 96t50 127t16 132zM439 745h-70l127 155h99z" />
    <glyph glyph-name="Ocircumflex" unicode="&#xd4;" horiz-adv-x="711" 
d="M676 465q0 -57 -11 -115t-32.5 -112t-54 -101t-75.5 -81.5t-97 -54.5t-118 -20q-60 0 -107 19t-79.5 53.5t-49.5 83t-17 106.5q0 57 11 115t32.5 112t54 101t75.5 81.5t97 54.5t118 20q60 0 107 -19t79.5 -53.5t49.5 -83t17 -106.5zM580 455q0 40 -9.5 74.5t-30 60.5
t-52 41t-75.5 15q-75 0 -129 -38t-88 -96t-50 -127t-16 -132q0 -40 10 -74.5t30 -60.5t51.5 -41t75.5 -15q75 0 129 38t88 96t50 127t16 132zM506 745l-77 84l-101 -84h-69l129 135h92l91 -135h-65z" />
    <glyph glyph-name="Otilde" unicode="&#xd5;" horiz-adv-x="711" 
d="M676 465q0 -57 -11 -115t-32.5 -112t-54 -101t-75.5 -81.5t-97 -54.5t-118 -20q-60 0 -107 19t-79.5 53.5t-49.5 83t-17 106.5q0 57 11 115t32.5 112t54 101t75.5 81.5t97 54.5t118 20q60 0 107 -19t79.5 -53.5t49.5 -83t17 -106.5zM580 455q0 40 -9.5 74.5t-30 60.5
t-52 41t-75.5 15q-75 0 -129 -38t-88 -96t-50 -127t-16 -132q0 -40 10 -74.5t30 -60.5t51.5 -41t75.5 -15q75 0 129 38t88 96t50 127t16 132zM595 884q-5 -23 -13 -44t-20.5 -37.5t-30.5 -26.5t-43 -10q-19 0 -37.5 8t-36 18t-35 18t-33.5 8q-26 0 -39.5 -20t-17.5 -40h-54
q4 23 12 44t21 37.5t31 26.5t43 10q19 0 37.5 -8t36 -18t34.5 -18t34 -8q13 0 23 5.5t16.5 14.5t11 19.5t6.5 20.5h54z" />
    <glyph glyph-name="Odieresis" unicode="&#xd6;" horiz-adv-x="711" 
d="M676 465q0 -57 -11 -115t-32.5 -112t-54 -101t-75.5 -81.5t-97 -54.5t-118 -20q-60 0 -107 19t-79.5 53.5t-49.5 83t-17 106.5q0 57 11 115t32.5 112t54 101t75.5 81.5t97 54.5t118 20q60 0 107 -19t79.5 -53.5t49.5 -83t17 -106.5zM580 455q0 40 -9.5 74.5t-30 60.5
t-52 41t-75.5 15q-75 0 -129 -38t-88 -96t-50 -127t-16 -132q0 -40 10 -74.5t30 -60.5t51.5 -41t75.5 -15q75 0 129 38t88 96t50 127t16 132zM405 868q0 -23 -15 -39t-40 -16q-20 0 -31.5 10.5t-11.5 27.5q0 23 15 38.5t39 15.5q20 0 31.5 -10t12.5 -27zM587 868
q0 -23 -15 -39t-39 -16q-20 0 -31.5 10.5t-12.5 27.5q0 23 15 38.5t40 15.5q20 0 31.5 -10t11.5 -27z" />
    <glyph glyph-name="multiply" unicode="&#xd7;" 
d="M413 53l-163 162l-164 -163l-55 57l164 162l-163 163l55 56l163 -162l164 163l54 -56l-163 -163l162 -163z" />
    <glyph glyph-name="Oslash" unicode="&#xd8;" horiz-adv-x="711" 
d="M648 598q14 -28 21 -61.5t7 -71.5q0 -57 -11 -115t-32.5 -112t-54 -101t-75.5 -81.5t-97 -54.5t-118 -20q-66 0 -116 22.5t-82 64.5l-115 -110l-34 39l122 115q-28 55 -28 131q0 57 11 115t32.5 112t54 101t76 81.5t97 54.5t118.5 20t114 -22t82 -63l107 103l34 -39z
M581 455q0 39 -12 69l-409 -391q20 -33 53.5 -52t84.5 -19q75 0 129 38t88 96t50 127t16 132zM550 577q-20 32 -53 50.5t-83 18.5q-75 0 -129 -38t-88 -96t-50 -127t-16 -132q0 -36 11 -66z" />
    <glyph glyph-name="Ugrave" unicode="&#xd9;" horiz-adv-x="727" 
d="M564 0h-80l18 87q-47 -49 -102.5 -76.5t-125.5 -27.5q-48 0 -88 13.5t-69.5 40t-45.5 65.5t-16 89q0 23 2.5 44.5t7.5 44.5l91 426h93l-92 -430q-8 -38 -8 -73q0 -37 12.5 -63.5t34 -44t51 -26t64.5 -8.5q44 0 84.5 16.5t72.5 46.5q21 19 31.5 36t16.5 46l107 500h92z
M413 745l-120 135h94l90 -135h-64z" />
    <glyph glyph-name="Uacute" unicode="&#xda;" horiz-adv-x="727" 
d="M564 0h-80l18 87q-47 -49 -102.5 -76.5t-125.5 -27.5q-48 0 -88 13.5t-69.5 40t-45.5 65.5t-16 89q0 23 2.5 44.5t7.5 44.5l91 426h93l-92 -430q-8 -38 -8 -73q0 -37 12.5 -63.5t34 -44t51 -26t64.5 -8.5q44 0 84.5 16.5t72.5 46.5q21 19 31.5 36t16.5 46l107 500h92z
M461 745h-70l127 155h99z" />
    <glyph glyph-name="Ucircumflex" unicode="&#xdb;" horiz-adv-x="727" 
d="M564 0h-80l18 87q-47 -49 -102.5 -76.5t-125.5 -27.5q-48 0 -88 13.5t-69.5 40t-45.5 65.5t-16 89q0 23 2.5 44.5t7.5 44.5l91 426h93l-92 -430q-8 -38 -8 -73q0 -37 12.5 -63.5t34 -44t51 -26t64.5 -8.5q44 0 84.5 16.5t72.5 46.5q21 19 31.5 36t16.5 46l107 500h92z
M529 745l-77 84l-101 -84h-69l129 135h92l91 -135h-65z" />
    <glyph glyph-name="Udieresis" unicode="&#xdc;" horiz-adv-x="727" 
d="M564 0h-80l18 87q-47 -49 -102.5 -76.5t-125.5 -27.5q-48 0 -88 13.5t-69.5 40t-45.5 65.5t-16 89q0 23 2.5 44.5t7.5 44.5l91 426h93l-92 -430q-8 -38 -8 -73q0 -37 12.5 -63.5t34 -44t51 -26t64.5 -8.5q44 0 84.5 16.5t72.5 46.5q21 19 31.5 36t16.5 46l107 500h92z
M422 868q0 -23 -15 -39t-40 -16q-20 0 -31.5 10.5t-11.5 27.5q0 23 15 38.5t39 15.5q20 0 31.5 -10t12.5 -27zM604 868q0 -23 -15 -39t-39 -16q-20 0 -31.5 10.5t-12.5 27.5q0 23 15 38.5t40 15.5q20 0 31.5 -10t11.5 -27z" />
    <glyph glyph-name="Yacute" unicode="&#xdd;" horiz-adv-x="548" 
d="M308 268l-56 -268h-92l56 267l-127 439h105l87 -354l227 354h103zM386 745h-70l127 155h99z" />
    <glyph glyph-name="Thorn" unicode="&#xde;" horiz-adv-x="567" 
d="M548 460q0 -70 -28 -118.5t-73.5 -78.5t-103.5 -43.5t-118 -13.5h-78l-43 -206h-92l149 706h92l-12 -61h72q48 0 91 -10.5t75 -33t50.5 -57.5t18.5 -84zM454 447q0 35 -12 58.5t-32.5 38t-48.5 20.5t-59 6h-77l-61 -286h75q39 0 77.5 8.5t69 28t49.5 50.5t19 76z" />
    <glyph glyph-name="germandbls" unicode="&#xdf;" horiz-adv-x="552" 
d="M422 465q-60 -24 -87 -46t-27 -57q0 -29 17.5 -47t49.5 -42q18 -12 35.5 -25.5t32 -30t23 -36.5t8.5 -45q0 -36 -15 -64.5t-39.5 -47.5t-56 -29t-64.5 -10q-37 0 -75 9t-63 33l31 62q20 -20 47.5 -29.5t56.5 -9.5q18 0 35 4t30 13t21 22.5t8 31.5q0 29 -19 48t-56 46
q-20 14 -36 28t-28 30t-18.5 35.5t-6.5 46.5q0 57 37 93.5t106 64.5q45 18 72 38t27 54q0 35 -29.5 55t-77.5 20q-64 0 -101 -34.5t-51 -97.5l-122 -571q-41 -193 -197 -193q-25 0 -49.5 6t-45.5 20l29 66q28 -25 67 -25q49 0 74 34t38 94l123 581q20 92 84.5 141.5
t155.5 49.5q37 0 71 -9t59 -26.5t40 -43t15 -57.5q0 -34 -10 -57.5t-27 -40t-41 -29t-51 -23.5z" />
    <glyph glyph-name="agrave" unicode="&#xe0;" horiz-adv-x="511" 
d="M382 86q-3 -15 -0.5 -24.5t16.5 -9.5q10 0 20 4l-3 -55q-11 -3 -25.5 -5.5t-29.5 -2.5q-63 0 -63 46q0 14 5 32l6 26q-15 -18 -35 -37.5t-43 -35.5t-47.5 -26.5t-49.5 -10.5q-36 0 -59.5 14.5t-37.5 37.5t-20 51.5t-6 57.5q0 57 16.5 115.5t49 106t81 77.5t113.5 30
q30 0 59.5 -9.5t45.5 -32.5l5 29h82zM352 344q4 19 -2 32.5t-18 22t-28.5 12.5t-32.5 4q-47 0 -79.5 -25t-53 -62.5t-30 -81t-9.5 -81.5q0 -43 15.5 -73t51.5 -30q19 0 38.5 10.5t37.5 26t33.5 33.5t27.5 34q8 11 12.5 20.5t7.5 21.5zM266 531l-123 175h94l90 -175h-61z" />
    <glyph glyph-name="aacute" unicode="&#xe1;" horiz-adv-x="511" 
d="M382 86q-3 -15 -0.5 -24.5t16.5 -9.5q10 0 20 4l-3 -55q-11 -3 -25.5 -5.5t-29.5 -2.5q-63 0 -63 46q0 14 5 32l6 26q-15 -18 -35 -37.5t-43 -35.5t-47.5 -26.5t-49.5 -10.5q-36 0 -59.5 14.5t-37.5 37.5t-20 51.5t-6 57.5q0 57 16.5 115.5t49 106t81 77.5t113.5 30
q30 0 59.5 -9.5t45.5 -32.5l5 29h82zM352 344q4 19 -2 32.5t-18 22t-28.5 12.5t-32.5 4q-47 0 -79.5 -25t-53 -62.5t-30 -81t-9.5 -81.5q0 -43 15.5 -73t51.5 -30q19 0 38.5 10.5t37.5 26t33.5 33.5t27.5 34q8 11 12.5 20.5t7.5 21.5zM319 531h-66l127 175h99z" />
    <glyph glyph-name="acircumflex" unicode="&#xe2;" horiz-adv-x="511" 
d="M382 86q-3 -15 -0.5 -24.5t16.5 -9.5q10 0 20 4l-3 -55q-11 -3 -25.5 -5.5t-29.5 -2.5q-63 0 -63 46q0 14 5 32l6 26q-15 -18 -35 -37.5t-43 -35.5t-47.5 -26.5t-49.5 -10.5q-36 0 -59.5 14.5t-37.5 37.5t-20 51.5t-6 57.5q0 57 16.5 115.5t49 106t81 77.5t113.5 30
q30 0 59.5 -9.5t45.5 -32.5l5 29h82zM352 344q4 19 -2 32.5t-18 22t-28.5 12.5t-32.5 4q-47 0 -79.5 -25t-53 -62.5t-30 -81t-9.5 -81.5q0 -43 15.5 -73t51.5 -30q19 0 38.5 10.5t37.5 26t33.5 33.5t27.5 34q8 11 12.5 20.5t7.5 21.5zM369 531l-81 124l-105 -124h-65
l129 175h92l91 -175h-61z" />
    <glyph glyph-name="atilde" unicode="&#xe3;" horiz-adv-x="511" 
d="M382 86q-3 -15 -0.5 -24.5t16.5 -9.5q10 0 20 4l-3 -55q-11 -3 -25.5 -5.5t-29.5 -2.5q-63 0 -63 46q0 14 5 32l6 26q-15 -18 -35 -37.5t-43 -35.5t-47.5 -26.5t-49.5 -10.5q-36 0 -59.5 14.5t-37.5 37.5t-20 51.5t-6 57.5q0 57 16.5 115.5t49 106t81 77.5t113.5 30
q30 0 59.5 -9.5t45.5 -32.5l5 29h82zM352 344q4 19 -2 32.5t-18 22t-28.5 12.5t-32.5 4q-47 0 -79.5 -25t-53 -62.5t-30 -81t-9.5 -81.5q0 -43 15.5 -73t51.5 -30q19 0 38.5 10.5t37.5 26t33.5 33.5t27.5 34q8 11 12.5 20.5t7.5 21.5zM468 695q-5 -23 -13 -44t-20.5 -37.5
t-30.5 -26.5t-43 -10q-19 0 -37.5 8t-36 18t-35 18t-33.5 8q-26 0 -39.5 -20t-17.5 -40h-54q4 23 12 44t21 37.5t31 26.5t43 10q19 0 37.5 -8t36 -18t34.5 -18t34 -8q13 0 23 5.5t16.5 14.5t11 19.5t6.5 20.5h54z" />
    <glyph glyph-name="adieresis" unicode="&#xe4;" horiz-adv-x="511" 
d="M382 86q-3 -15 -0.5 -24.5t16.5 -9.5q10 0 20 4l-3 -55q-11 -3 -25.5 -5.5t-29.5 -2.5q-63 0 -63 46q0 14 5 32l6 26q-15 -18 -35 -37.5t-43 -35.5t-47.5 -26.5t-49.5 -10.5q-36 0 -59.5 14.5t-37.5 37.5t-20 51.5t-6 57.5q0 57 16.5 115.5t49 106t81 77.5t113.5 30
q30 0 59.5 -9.5t45.5 -32.5l5 29h82zM352 344q4 19 -2 32.5t-18 22t-28.5 12.5t-32.5 4q-47 0 -79.5 -25t-53 -62.5t-30 -81t-9.5 -81.5q0 -43 15.5 -73t51.5 -30q19 0 38.5 10.5t37.5 26t33.5 33.5t27.5 34q8 11 12.5 20.5t7.5 21.5zM446 687q0 -23 -15 -38.5t-39 -15.5
q-20 0 -31.5 10.5t-12.5 27.5q0 23 15 38.5t40 15.5q20 0 31.5 -10.5t11.5 -27.5zM264 687q0 -23 -15 -38.5t-40 -15.5q-20 0 -31.5 10.5t-11.5 27.5q0 23 15 38.5t39 15.5q20 0 31.5 -10.5t12.5 -27.5z" />
    <glyph glyph-name="aring" unicode="&#xe5;" horiz-adv-x="511" 
d="M382 86q-3 -15 -0.5 -24.5t16.5 -9.5q10 0 20 4l-3 -55q-11 -3 -25.5 -5.5t-29.5 -2.5q-63 0 -63 46q0 14 5 32l6 26q-15 -18 -35 -37.5t-43 -35.5t-47.5 -26.5t-49.5 -10.5q-36 0 -59.5 14.5t-37.5 37.5t-20 51.5t-6 57.5q0 57 16.5 115.5t49 106t81 77.5t113.5 30
q30 0 59.5 -9.5t45.5 -32.5l5 29h82zM352 344q4 19 -2 32.5t-18 22t-28.5 12.5t-32.5 4q-47 0 -79.5 -25t-53 -62.5t-30 -81t-9.5 -81.5q0 -43 15.5 -73t51.5 -30q19 0 38.5 10.5t37.5 26t33.5 33.5t27.5 34q8 11 12.5 20.5t7.5 21.5zM400 665q0 -25 -9 -46.5t-25 -37.5
t-37.5 -25.5t-46.5 -9.5q-35 0 -60.5 19.5t-25.5 57.5q0 24 9 46t25 38t37.5 25.5t46.5 9.5q35 0 60.5 -19.5t25.5 -57.5zM353 660q0 20 -11.5 33t-32.5 13q-33 0 -49.5 -24.5t-16.5 -54.5q0 -20 11.5 -32t32.5 -12q33 0 49.5 24t16.5 53z" />
    <glyph glyph-name="ae" unicode="&#xe6;" horiz-adv-x="750" 
d="M716 338q0 -17 -3.5 -36t-9.5 -39l-312 -57q-2 -8 -3 -18t-1 -20q1 -55 32 -85.5t88 -30.5q37 0 70 12.5t59 31.5l20 -61q-32 -22 -74.5 -36t-93.5 -14q-72 0 -113 31.5t-55 87.5q-20 -24 -41.5 -45t-44.5 -37t-48 -25.5t-53 -9.5q-36 0 -59.5 14.5t-37.5 37.5t-20 51.5
t-6 57.5q0 57 16.5 115.5t49 106t81 77.5t113.5 30q55 0 89 -20.5t43 -49.5q30 32 71.5 52t95.5 20q28 0 54.5 -8t47 -25t33 -44t12.5 -64zM340 314q5 13 8.5 23.5t3.5 20.5q0 31 -25.5 44t-55.5 13q-47 0 -79.5 -25t-53 -62.5t-30 -81t-9.5 -81.5q0 -43 15.5 -73t51.5 -30
q19 0 38 9t36 23t31.5 30.5t25.5 31.5q8 11 11 23t5 29q2 20 8.5 48.5t18.5 57.5zM630 312q4 13 4 32q0 38 -22.5 56.5t-55.5 18.5q-31 0 -56 -12.5t-43.5 -33t-32 -47.5t-21.5 -56z" />
    <glyph glyph-name="ccedilla" unicode="&#xe7;" horiz-adv-x="418" 
d="M106 -209q-21 0 -38.5 6t-31.5 15l16 49q10 -7 23.5 -12t27.5 -5q25 0 44.5 15t19.5 48q0 29 -10 53q-6 15 -14 30q-16 3 -31 9q-34 13 -56.5 37t-34 57.5t-11.5 72.5q0 54 17 109.5t50.5 100.5t83.5 74t115 29q37 0 71 -12t57 -34l-37 -64q-16 19 -40.5 30t-53.5 11
q-44 0 -76.5 -23t-54.5 -58.5t-32.5 -76.5t-10.5 -77q0 -56 27.5 -89t82.5 -33q28 0 55 11t49 28l22 -59q-29 -22 -67 -35q-36 -12 -74 -13l14 -30q13 -28 13 -59q0 -43 -30.5 -74t-84.5 -31z" />
    <glyph glyph-name="egrave" unicode="&#xe8;" horiz-adv-x="457" 
d="M422 338q0 -17 -3.5 -36t-9.5 -39l-312 -57q-3 -17 -3 -38q0 -55 31.5 -85.5t88.5 -30.5q37 0 70 12.5t59 31.5l20 -61q-32 -22 -74.5 -36t-93.5 -14q-91 0 -138 49t-47 129q0 52 16 108t48.5 102t82.5 76t118 30q28 0 54.5 -8t47 -25t33 -44t12.5 -64zM336 312
q5 17 5 32q0 38 -23 56.5t-55 18.5q-31 0 -56 -12.5t-44 -33t-32 -47.5t-21 -56zM239 531l-123 175h94l90 -175h-61z" />
    <glyph glyph-name="eacute" unicode="&#xe9;" horiz-adv-x="457" 
d="M422 338q0 -17 -3.5 -36t-9.5 -39l-312 -57q-3 -17 -3 -38q0 -55 31.5 -85.5t88.5 -30.5q37 0 70 12.5t59 31.5l20 -61q-32 -22 -74.5 -36t-93.5 -14q-91 0 -138 49t-47 129q0 52 16 108t48.5 102t82.5 76t118 30q28 0 54.5 -8t47 -25t33 -44t12.5 -64zM336 312
q5 17 5 32q0 38 -23 56.5t-55 18.5q-31 0 -56 -12.5t-44 -33t-32 -47.5t-21 -56zM289 531h-66l127 175h99z" />
    <glyph glyph-name="ecircumflex" unicode="&#xea;" horiz-adv-x="457" 
d="M422 338q0 -17 -3.5 -36t-9.5 -39l-312 -57q-3 -17 -3 -38q0 -55 31.5 -85.5t88.5 -30.5q37 0 70 12.5t59 31.5l20 -61q-32 -22 -74.5 -36t-93.5 -14q-91 0 -138 49t-47 129q0 52 16 108t48.5 102t82.5 76t118 30q28 0 54.5 -8t47 -25t33 -44t12.5 -64zM336 312
q5 17 5 32q0 38 -23 56.5t-55 18.5q-31 0 -56 -12.5t-44 -33t-32 -47.5t-21 -56zM366 531l-81 124l-105 -124h-65l129 175h92l91 -175h-61z" />
    <glyph glyph-name="edieresis" unicode="&#xeb;" horiz-adv-x="457" 
d="M422 338q0 -17 -3.5 -36t-9.5 -39l-312 -57q-3 -17 -3 -38q0 -55 31.5 -85.5t88.5 -30.5q37 0 70 12.5t59 31.5l20 -61q-32 -22 -74.5 -36t-93.5 -14q-91 0 -138 49t-47 129q0 52 16 108t48.5 102t82.5 76t118 30q28 0 54.5 -8t47 -25t33 -44t12.5 -64zM336 312
q5 17 5 32q0 38 -23 56.5t-55 18.5q-31 0 -56 -12.5t-44 -33t-32 -47.5t-21 -56zM251 687q0 -23 -15 -38.5t-40 -15.5q-20 0 -31.5 10.5t-11.5 27.5q0 23 15 38.5t39 15.5q20 0 31.5 -10.5t12.5 -27.5zM433 687q0 -23 -15 -38.5t-39 -15.5q-20 0 -31.5 10.5t-12.5 27.5
q0 23 15 38.5t40 15.5q20 0 31.5 -10.5t11.5 -27.5z" />
    <glyph glyph-name="igrave" unicode="&#xec;" horiz-adv-x="239" 
d="M191 464l-99 -464h-84l98 464h85zM118 531l-123 175h94l90 -175h-61z" />
    <glyph glyph-name="iacute" unicode="&#xed;" horiz-adv-x="239" 
d="M191 464l-99 -464h-84l98 464h85zM187 531h-66l127 175h99z" />
    <glyph glyph-name="icircumflex" unicode="&#xee;" horiz-adv-x="239" 
d="M191 464l-99 -464h-84l98 464h85zM252 531l-81 124l-105 -124h-65l129 175h92l91 -175h-61z" />
    <glyph glyph-name="idieresis" unicode="&#xef;" horiz-adv-x="239" 
d="M191 464l-99 -464h-84l98 464h85zM139 687q0 -23 -15 -38.5t-40 -15.5q-20 0 -31.5 10.5t-11.5 27.5q0 23 15 38.5t39 15.5q20 0 31.5 -10.5t12.5 -27.5zM321 687q0 -23 -15 -38.5t-39 -15.5q-20 0 -31.5 10.5t-12.5 27.5q0 23 15 38.5t40 15.5q20 0 31.5 -10.5
t11.5 -27.5z" />
    <glyph glyph-name="eth" unicode="&#xf0;" 
d="M291 640q-20 17 -44.5 27t-55.5 10q-23 0 -45.5 -4t-42.5 -15l-6 75q49 18 103 18q91 0 156 -62l85 56l37 -49l-82 -54q30 -48 45.5 -113.5t15.5 -142.5q0 -84 -19.5 -157.5t-55.5 -128t-86.5 -86t-113.5 -31.5q-85 0 -131 48t-46 126q0 57 17.5 114.5t52 104t84.5 76
t116 29.5q29 0 56 -11.5t41 -35.5q0 46 -9 88t-29 74l-88 -58l-37 49zM363 296q0 51 -23 83.5t-75 32.5q-45 0 -77.5 -24.5t-53.5 -61.5t-30.5 -79t-9.5 -78q0 -51 23.5 -83.5t74.5 -32.5q45 0 77.5 24t53.5 60t30.5 78.5t9.5 80.5z" />
    <glyph glyph-name="ntilde" unicode="&#xf1;" horiz-adv-x="535" 
d="M465 372q0 -17 -2 -33t-6 -33l-64 -306h-85l61 292q2 11 4 23t2 24q0 33 -17 48t-43 15q-21 0 -42 -10t-40.5 -25.5t-36.5 -34t-30 -35.5q-8 -11 -12.5 -20.5t-6.5 -20.5l-55 -256h-85l99 464h81l-21 -93q18 20 39 39.5t44.5 34.5t49.5 24t55 9q51 0 80.5 -29t30.5 -77z
M498 695q-5 -23 -13 -44t-20.5 -37.5t-30.5 -26.5t-43 -10q-19 0 -37.5 8t-36 18t-35 18t-33.5 8q-26 0 -39.5 -20t-17.5 -40h-54q4 23 12 44t21 37.5t31 26.5t43 10q19 0 37.5 -8t36 -18t34.5 -18t34 -8q13 0 23 5.5t16.5 14.5t11 19.5t6.5 20.5h54z" />
    <glyph glyph-name="ograve" unicode="&#xf2;" horiz-adv-x="494" 
d="M445 307q0 -56 -17.5 -114t-51 -104.5t-83 -76t-114.5 -29.5q-82 0 -128 48t-46 126q0 57 17.5 114.5t51.5 104t84 76t115 29.5q81 0 126.5 -48t45.5 -126zM357 296q0 51 -22 83.5t-72 32.5q-44 0 -76 -24.5t-52.5 -61.5t-30.5 -79t-10 -78q0 -51 22.5 -83.5t72.5 -32.5
q44 0 76 24.5t52 61t30 79t10 78.5zM245 531l-123 175h94l90 -175h-61z" />
    <glyph glyph-name="oacute" unicode="&#xf3;" horiz-adv-x="494" 
d="M445 307q0 -56 -17.5 -114t-51 -104.5t-83 -76t-114.5 -29.5q-82 0 -128 48t-46 126q0 57 17.5 114.5t51.5 104t84 76t115 29.5q81 0 126.5 -48t45.5 -126zM357 296q0 51 -22 83.5t-72 32.5q-44 0 -76 -24.5t-52.5 -61.5t-30.5 -79t-10 -78q0 -51 22.5 -83.5t72.5 -32.5
q44 0 76 24.5t52 61t30 79t10 78.5zM310 531h-66l127 175h99z" />
    <glyph glyph-name="ocircumflex" unicode="&#xf4;" horiz-adv-x="494" 
d="M445 307q0 -56 -17.5 -114t-51 -104.5t-83 -76t-114.5 -29.5q-82 0 -128 48t-46 126q0 57 17.5 114.5t51.5 104t84 76t115 29.5q81 0 126.5 -48t45.5 -126zM357 296q0 51 -22 83.5t-72 32.5q-44 0 -76 -24.5t-52.5 -61.5t-30.5 -79t-10 -78q0 -51 22.5 -83.5t72.5 -32.5
q44 0 76 24.5t52 61t30 79t10 78.5zM375 531l-81 124l-105 -124h-65l129 175h92l91 -175h-61z" />
    <glyph glyph-name="otilde" unicode="&#xf5;" horiz-adv-x="494" 
d="M445 307q0 -56 -17.5 -114t-51 -104.5t-83 -76t-114.5 -29.5q-82 0 -128 48t-46 126q0 57 17.5 114.5t51.5 104t84 76t115 29.5q81 0 126.5 -48t45.5 -126zM357 296q0 51 -22 83.5t-72 32.5q-44 0 -76 -24.5t-52.5 -61.5t-30.5 -79t-10 -78q0 -51 22.5 -83.5t72.5 -32.5
q44 0 76 24.5t52 61t30 79t10 78.5zM475 695q-5 -23 -13 -44t-20.5 -37.5t-30.5 -26.5t-43 -10q-19 0 -37.5 8t-36 18t-35 18t-33.5 8q-26 0 -39.5 -20t-17.5 -40h-54q4 23 12 44t21 37.5t31 26.5t43 10q19 0 37.5 -8t36 -18t34.5 -18t34 -8q13 0 23 5.5t16.5 14.5t11 19.5
t6.5 20.5h54z" />
    <glyph glyph-name="odieresis" unicode="&#xf6;" horiz-adv-x="494" 
d="M445 307q0 -56 -17.5 -114t-51 -104.5t-83 -76t-114.5 -29.5q-82 0 -128 48t-46 126q0 57 17.5 114.5t51.5 104t84 76t115 29.5q81 0 126.5 -48t45.5 -126zM357 296q0 51 -22 83.5t-72 32.5q-44 0 -76 -24.5t-52.5 -61.5t-30.5 -79t-10 -78q0 -51 22.5 -83.5t72.5 -32.5
q44 0 76 24.5t52 61t30 79t10 78.5zM256 687q0 -23 -15 -38.5t-40 -15.5q-20 0 -31.5 10.5t-11.5 27.5q0 23 15 38.5t39 15.5q20 0 31.5 -10.5t12.5 -27.5zM438 687q0 -23 -15 -38.5t-39 -15.5q-20 0 -31.5 10.5t-12.5 27.5q0 23 15 38.5t40 15.5q20 0 31.5 -10.5
t11.5 -27.5z" />
    <glyph glyph-name="divide" unicode="&#xf7;" 
d="M306 457q0 -24 -15.5 -38t-39.5 -14q-26 0 -42 14.5t-16 37.5q0 22 14.5 37.5t43.5 15.5q26 0 40.5 -14.5t14.5 -38.5zM19 233v79h461v-79h-461zM306 89q0 -24 -15.5 -38.5t-39.5 -14.5q-26 0 -42 14.5t-16 38.5q0 21 14.5 37t43.5 16q26 0 40.5 -15t14.5 -38z" />
    <glyph glyph-name="oslash" unicode="&#xf8;" horiz-adv-x="494" 
d="M445 307q0 -56 -17.5 -114t-51 -104.5t-83 -76t-114.5 -29.5q-43 0 -76 13.5t-55 38.5l-80 -72l-31 35l85 76q-17 39 -17 83q0 57 17.5 114.5t51.5 104t84 76t115 29.5q45 0 78 -15t56 -42l83 77l31 -35l-90 -82q14 -36 14 -77zM96 189q-2 -26 3 -45l243 222
q-11 21 -30.5 33.5t-48.5 12.5q-42 0 -72.5 -21.5t-50.5 -54t-30.5 -72t-13.5 -75.5zM354 261q3 29 0 53l-243 -221q23 -40 78 -40q39 0 69 19.5t50.5 50t31.5 67t14 71.5z" />
    <glyph glyph-name="ugrave" unicode="&#xf9;" horiz-adv-x="515" 
d="M387 86q-3 -15 0 -24.5t17 -9.5q10 0 20 4l-4 -55q-11 -3 -25.5 -5.5t-29.5 -2.5q-62 0 -62 46q0 7 1 15.5t3 16.5l7 28q-18 -21 -38 -41t-43 -36t-48.5 -26t-53.5 -10q-48 0 -76.5 29t-29.5 77q0 17 2 33.5t6 33.5l65 305h85l-62 -292q-2 -11 -4 -23t-2 -23
q0 -33 16 -48.5t41 -15.5q19 0 38.5 10t37.5 25.5t34 34t28 35.5q14 20 18 41l55 256h85zM263 531l-123 175h94l90 -175h-61z" />
    <glyph glyph-name="uacute" unicode="&#xfa;" horiz-adv-x="515" 
d="M387 86q-3 -15 0 -24.5t17 -9.5q10 0 20 4l-4 -55q-11 -3 -25.5 -5.5t-29.5 -2.5q-62 0 -62 46q0 7 1 15.5t3 16.5l7 28q-18 -21 -38 -41t-43 -36t-48.5 -26t-53.5 -10q-48 0 -76.5 29t-29.5 77q0 17 2 33.5t6 33.5l65 305h85l-62 -292q-2 -11 -4 -23t-2 -23
q0 -33 16 -48.5t41 -15.5q19 0 38.5 10t37.5 25.5t34 34t28 35.5q14 20 18 41l55 256h85zM323 531h-66l127 175h99z" />
    <glyph glyph-name="ucircumflex" unicode="&#xfb;" horiz-adv-x="515" 
d="M387 86q-3 -15 0 -24.5t17 -9.5q10 0 20 4l-4 -55q-11 -3 -25.5 -5.5t-29.5 -2.5q-62 0 -62 46q0 7 1 15.5t3 16.5l7 28q-18 -21 -38 -41t-43 -36t-48.5 -26t-53.5 -10q-48 0 -76.5 29t-29.5 77q0 17 2 33.5t6 33.5l65 305h85l-62 -292q-2 -11 -4 -23t-2 -23
q0 -33 16 -48.5t41 -15.5q19 0 38.5 10t37.5 25.5t34 34t28 35.5q14 20 18 41l55 256h85zM384 531l-81 124l-105 -124h-65l129 175h92l91 -175h-61z" />
    <glyph glyph-name="udieresis" unicode="&#xfc;" horiz-adv-x="515" 
d="M387 86q-3 -15 0 -24.5t17 -9.5q10 0 20 4l-4 -55q-11 -3 -25.5 -5.5t-29.5 -2.5q-62 0 -62 46q0 7 1 15.5t3 16.5l7 28q-18 -21 -38 -41t-43 -36t-48.5 -26t-53.5 -10q-48 0 -76.5 29t-29.5 77q0 17 2 33.5t6 33.5l65 305h85l-62 -292q-2 -11 -4 -23t-2 -23
q0 -33 16 -48.5t41 -15.5q19 0 38.5 10t37.5 25.5t34 34t28 35.5q14 20 18 41l55 256h85zM271 687q0 -23 -15 -38.5t-40 -15.5q-20 0 -31.5 10.5t-11.5 27.5q0 23 15 38.5t39 15.5q20 0 31.5 -10.5t12.5 -27.5zM453 687q0 -23 -15 -38.5t-39 -15.5q-20 0 -31.5 10.5
t-12.5 27.5q0 23 15 38.5t40 15.5q20 0 31.5 -10.5t11.5 -27.5z" />
    <glyph glyph-name="yacute" unicode="&#xfd;" horiz-adv-x="409" 
d="M377 382q0 -47 -13 -89.5t-36 -85t-54.5 -87t-68.5 -94.5q-40 -55 -75 -99.5t-69.5 -76t-70 -49t-76.5 -17.5q-26 0 -50 6.5t-43 22.5l28 62q13 -13 30.5 -19t35.5 -6q48 0 91.5 42t93.5 109l-81 463h83l49 -296q5 -26 7.5 -46l5.5 -44h1q32 46 57.5 84t43.5 73.5
t27.5 71t9.5 74.5q0 23 -3.5 44t-8.5 39h75q5 -17 8 -40t3 -42zM238 531h-66l127 175h99z" />
    <glyph glyph-name="thorn" unicode="&#xfe;" horiz-adv-x="514" 
d="M343 478q32 0 55 -13t38 -34.5t22 -51t7 -62.5q0 -56 -16.5 -114.5t-49 -106.5t-81 -78.5t-113.5 -30.5q-29 0 -59 7.5t-47 33.5l-51 -238h-84l202 950h84l-78 -365q15 17 33.5 35t40.5 33t46 25t51 10zM119 121q-4 -19 2 -32.5t18.5 -22.5t28.5 -13t33 -4q49 0 82.5 25
t54 62.5t29.5 81t9 80.5q0 21 -3 40t-11 33t-21 22.5t-32 8.5q-20 0 -40.5 -10t-38.5 -25.5t-34 -33.5t-27 -33q-8 -9 -13.5 -19.5t-7.5 -22.5z" />
    <glyph glyph-name="ydieresis" unicode="&#xff;" horiz-adv-x="409" 
d="M377 382q0 -47 -13 -89.5t-36 -85t-54.5 -87t-68.5 -94.5q-40 -55 -75 -99.5t-69.5 -76t-70 -49t-76.5 -17.5q-26 0 -50 6.5t-43 22.5l28 62q13 -13 30.5 -19t35.5 -6q48 0 91.5 42t93.5 109l-81 463h83l49 -296q5 -26 7.5 -46l5.5 -44h1q32 46 57.5 84t43.5 73.5
t27.5 71t9.5 74.5q0 23 -3.5 44t-8.5 39h75q5 -17 8 -40t3 -42zM172 687q0 -23 -15 -38.5t-40 -15.5q-20 0 -31.5 10.5t-11.5 27.5q0 23 15 38.5t39 15.5q20 0 31.5 -10.5t12.5 -27.5zM354 687q0 -23 -15 -38.5t-39 -15.5q-20 0 -31.5 10.5t-12.5 27.5q0 23 15 38.5t40 15.5
q20 0 31.5 -10.5t11.5 -27.5z" />
    <glyph glyph-name="Amacron" unicode="&#x100;" horiz-adv-x="620" 
d="M441 0l-24 182h-283l-100 -182h-94l395 708h104l97 -708h-95zM378 497q-2 12 -4 29l-3 35q-1 18 -2.5 33.5t-1.5 24.5h-2q-3 -8 -10.5 -23t-16 -32.5t-18 -35.5t-16.5 -32l-131 -240h236zM536 818h-265l11 56h265z" />
    <glyph glyph-name="amacron" unicode="&#x101;" horiz-adv-x="511" 
d="M382 86q-3 -15 -0.5 -24.5t16.5 -9.5q10 0 20 4l-3 -55q-11 -3 -25.5 -5.5t-29.5 -2.5q-63 0 -63 46q0 14 5 32l6 26q-15 -18 -35 -37.5t-43 -35.5t-47.5 -26.5t-49.5 -10.5q-36 0 -59.5 14.5t-37.5 37.5t-20 51.5t-6 57.5q0 57 16.5 115.5t49 106t81 77.5t113.5 30
q30 0 59.5 -9.5t45.5 -32.5l5 29h82zM352 344q4 19 -2 32.5t-18 22t-28.5 12.5t-32.5 4q-47 0 -79.5 -25t-53 -62.5t-30 -81t-9.5 -81.5q0 -43 15.5 -73t51.5 -30q19 0 38.5 10.5t37.5 26t33.5 33.5t27.5 34q8 11 12.5 20.5t7.5 21.5zM427 641h-265l11 57h265z" />
    <glyph glyph-name="Abreve" unicode="&#x102;" horiz-adv-x="620" 
d="M441 0l-24 182h-283l-100 -182h-94l395 708h104l97 -708h-95zM378 497q-2 12 -3.5 29.5l-3 35t-3 33t-1.5 24.5h-2q-3 -8 -10.5 -23t-16 -32.5t-18 -35.5t-16.5 -32l-131 -240h236zM556 881q-11 -68 -54 -96.5t-107 -28.5q-29 0 -54.5 7t-44.5 22t-30 38.5t-9 57.5h49
q2 -38 27 -55t66 -17q45 0 70 15t36 57h51v0z" />
    <glyph glyph-name="abreve" unicode="&#x103;" horiz-adv-x="511" 
d="M382 86q-3 -15 -0.5 -24.5t16.5 -9.5q10 0 20 4l-3 -55q-11 -3 -25.5 -5.5t-29.5 -2.5q-63 0 -63 46q0 14 5 32l6 26q-15 -18 -35 -37.5t-43 -35.5t-47.5 -26.5t-49.5 -10.5q-36 0 -59.5 14.5t-37.5 37.5t-20 51.5t-6 57.5q0 57 16.5 115.5t49 106t81 77.5t113.5 30
q30 0 59.5 -9.5t45.5 -32.5l5 29h82zM352 344q4 19 -2 32.5t-18 22t-28.5 12.5t-32.5 4q-47 0 -79.5 -25t-53 -62.5t-30 -81t-9.5 -81.5q0 -43 15.5 -73t51.5 -30q19 0 38.5 10.5t37.5 26t33.5 33.5t27.5 34q8 11 12.5 20.5t7.5 21.5zM442 697q-11 -69 -54 -101.5
t-107 -32.5q-29 0 -54.5 8.5t-44.5 25t-30 41.5t-9 59h49q2 -39 27 -60t66 -21q45 0 70 19.5t36 61.5h51z" />
    <glyph glyph-name="Aogonek" unicode="&#x104;" horiz-adv-x="620" 
d="M519 -187q-38 -22 -84 -22q-32 0 -57.5 19.5t-25.5 55.5q0 42 24 74.5t64 67.5l-23 174h-283l-100 -182h-94l395 708h104l97 -708h-48q-31 -30 -50 -54q-22 -27 -22 -59q0 -20 12 -31.5t33 -11.5q26 0 53 16zM378 497q-2 12 -4 29l-3 35q-1 18 -2.5 33.5t-1.5 24.5h-2
q-3 -8 -10.5 -23t-16 -32.5t-18 -35.5t-16.5 -32l-131 -240h236z" />
    <glyph glyph-name="aogonek" unicode="&#x105;" horiz-adv-x="511" 
d="M389 -187q-38 -22 -84 -22q-32 0 -57.5 19.5t-25.5 55.5q0 42 24 75q23 32 63 66q-12 12 -12 32q0 14 5 32l6 26q-15 -18 -35 -37.5t-43 -35.5t-47.5 -26.5t-49.5 -10.5q-36 0 -59.5 14.5t-37.5 37.5t-20 51.5t-6 57.5q0 57 16.5 115.5t49 106t81 77.5t113.5 30
q30 0 59.5 -9.5t45.5 -32.5l5 29h82l-80 -378q-3 -15 -0.5 -24.5t16.5 -9.5q10 0 20 4l-3 -55q-11 -3 -25.5 -5.5t-29.5 -2.5h-9q-26 -26 -43 -47q-22 -27 -22 -59q0 -20 12 -31.5t33 -11.5q26 0 53 16zM352 344q4 19 -2 32.5t-18 22t-28.5 12.5t-32.5 4q-47 0 -79.5 -25
t-53 -62.5t-30 -81t-9.5 -81.5q0 -43 15.5 -73t51.5 -30q19 0 38.5 10.5t37.5 26t33.5 33.5t27.5 34q8 11 12.5 20.5t7.5 21.5z" />
    <glyph glyph-name="Cacute" unicode="&#x106;" horiz-adv-x="619" 
d="M581 585q-28 31 -66 45t-80 14q-75 0 -132 -32t-95.5 -84t-57.5 -118t-19 -134q0 -48 13 -87t38.5 -66.5t63 -43t87.5 -15.5q45 0 86.5 14.5t73.5 44.5l24 -72q-42 -35 -95 -51.5t-108 -16.5q-65 0 -116.5 21.5t-87.5 59.5t-55.5 91.5t-19.5 116.5q0 86 28.5 167.5
t81 145t126.5 102t165 38.5q54 0 103 -14.5t87 -50.5zM462 745h-70l127 155h99z" />
    <glyph glyph-name="cacute" unicode="&#x107;" horiz-adv-x="418" 
d="M367 369q-16 19 -40.5 30t-53.5 11q-44 0 -76.5 -23t-54.5 -58.5t-32.5 -76.5t-10.5 -77q0 -56 27.5 -89t82.5 -33q28 0 55 11t49 28l22 -59q-29 -22 -66.5 -35t-76.5 -13q-45 0 -79.5 13.5t-57 37.5t-34 57.5t-11.5 72.5q0 54 17 109.5t50.5 100.5t83.5 74t115 29
q37 0 71 -12t57 -34zM301 531h-66l127 175h99z" />
    <glyph glyph-name="Ccircumflex" unicode="&#x108;" horiz-adv-x="619" 
d="M581 585q-28 31 -66 45t-80 14q-75 0 -132 -32t-95.5 -84t-57.5 -118t-19 -134q0 -48 13 -87t38.5 -66.5t63 -43t87.5 -15.5q45 0 86.5 14.5t73.5 44.5l24 -72q-42 -35 -95 -51.5t-108 -16.5q-65 0 -116.5 21.5t-87.5 59.5t-55.5 91.5t-19.5 116.5q0 86 28.5 167.5
t81 145t126.5 102t165 38.5q54 0 103 -14.5t87 -50.5zM521 745l-77 84l-101 -84h-69l129 135h92l91 -135h-65z" />
    <glyph glyph-name="ccircumflex" unicode="&#x109;" horiz-adv-x="418" 
d="M367 369q-16 19 -40.5 30t-53.5 11q-44 0 -76.5 -23t-54.5 -58.5t-32.5 -76.5t-10.5 -77q0 -56 27.5 -89t82.5 -33q28 0 55 11t49 28l22 -59q-29 -22 -66.5 -35t-76.5 -13q-45 0 -79.5 13.5t-57 37.5t-34 57.5t-11.5 72.5q0 54 17 109.5t50.5 100.5t83.5 74t115 29
q37 0 71 -12t57 -34zM358 531l-81 124l-105 -124h-65l129 175h92l91 -175h-61z" />
    <glyph glyph-name="Cdotaccent" unicode="&#x10a;" horiz-adv-x="619" 
d="M581 585q-28 31 -66 45t-80 14q-75 0 -132 -32t-95.5 -84t-57.5 -118t-19 -134q0 -48 13 -87t38.5 -66.5t63 -43t87.5 -15.5q45 0 86.5 14.5t73.5 44.5l24 -72q-42 -35 -95 -51.5t-108 -16.5q-65 0 -116.5 21.5t-87.5 59.5t-55.5 91.5t-19.5 116.5q0 86 28.5 167.5
t81 145t126.5 102t165 38.5q54 0 103 -14.5t87 -50.5zM496 868q0 -23 -15 -39t-40 -16q-20 0 -31.5 10.5t-11.5 27.5q0 23 15 38.5t40 15.5q20 0 31 -10t12 -27z" />
    <glyph glyph-name="cdotaccent" unicode="&#x10b;" horiz-adv-x="418" 
d="M367 369q-16 19 -40.5 30t-53.5 11q-44 0 -76.5 -23t-54.5 -58.5t-32.5 -76.5t-10.5 -77q0 -56 27.5 -89t82.5 -33q28 0 55 11t49 28l22 -59q-29 -22 -66.5 -35t-76.5 -13q-45 0 -79.5 13.5t-57 37.5t-34 57.5t-11.5 72.5q0 54 17 109.5t50.5 100.5t83.5 74t115 29
q37 0 71 -12t57 -34zM342 687q0 -23 -15 -38.5t-40 -15.5q-20 0 -31.5 10.5t-11.5 27.5q0 23 15 38.5t40 15.5q20 0 31 -10.5t12 -27.5z" />
    <glyph glyph-name="Ccaron" unicode="&#x10c;" horiz-adv-x="619" 
d="M581 585q-28 31 -66 45t-80 14q-75 0 -132 -32t-95.5 -84t-57.5 -118t-19 -134q0 -48 13 -87t38.5 -66.5t63 -43t87.5 -15.5q45 0 86.5 14.5t73.5 44.5l24 -72q-42 -35 -95 -51.5t-108 -16.5q-65 0 -116.5 21.5t-87.5 59.5t-55.5 91.5t-19.5 116.5q0 86 28.5 167.5
t81 145t126.5 102t165 38.5q54 0 103 -14.5t87 -50.5zM474 745h-92l-91 135h65l77 -84l101 84h69z" />
    <glyph glyph-name="ccaron" unicode="&#x10d;" horiz-adv-x="418" 
d="M367 369q-16 19 -40.5 30t-53.5 11q-44 0 -76.5 -23t-54.5 -58.5t-32.5 -76.5t-10.5 -77q0 -56 27.5 -89t82.5 -33q28 0 55 11t49 28l22 -59q-29 -22 -66.5 -35t-76.5 -13q-45 0 -79.5 13.5t-57 37.5t-34 57.5t-11.5 72.5q0 54 17 109.5t50.5 100.5t83.5 74t115 29
q37 0 71 -12t57 -34zM303 531h-92l-91 175h62l80 -124l105 124h65z" />
    <glyph glyph-name="Dcaron" unicode="&#x10e;" horiz-adv-x="716" 
d="M681 431q0 -110 -36.5 -191.5t-100.5 -134.5t-151.5 -79t-190.5 -26h-188l150 706h190q66 0 125.5 -15.5t104 -49t71 -85.5t26.5 -125zM585 420q0 55 -19 94.5t-52.5 65t-79 37.5t-98.5 12h-96l-118 -552h101q81 0 148 22.5t114.5 66t73.5 107.5t26 147zM437 745h-92
l-91 135h65l77 -84l101 84h69z" />
    <glyph glyph-name="dcaron" unicode="&#x10f;" horiz-adv-x="513" 
d="M99 166q0 -42 14.5 -73t52.5 -31q21 0 41 10t38.5 25.5t34 33.5t27.5 33q15 19 20 42l30 137q4 19 -2 32.5t-18.5 22.5t-29.5 13t-33 4q-48 0 -81.5 -25t-54.5 -62.5t-30 -81t-9 -80.5zM386 86q-3 -15 0 -24.5t17 -9.5q10 0 20 4l-4 -55q-11 -3 -25 -5.5t-29 -2.5
q-63 0 -63 46q0 14 5 32l6 26q-13 -14 -32 -33.5t-42 -36.5t-50 -29t-56 -12q-32 0 -55 13t-38 34.5t-22.5 51t-7.5 62.5q0 56 16.5 114.5t49 106.5t81.5 78.5t114 30.5q14 0 29 -1.5t29.5 -6t26.5 -12.5t21 -21l65 304h83zM675 708q0 -42 -23 -74.5t-57 -53.5h-61
q30 26 51 55t21 71q0 19 -6 34h71q4 -13 4 -32z" />
    <glyph glyph-name="Dcroat" unicode="&#x110;" horiz-adv-x="716" 
d="M681 429q0 -110 -36.5 -190.5t-100.5 -133.5t-151.5 -79t-190.5 -26h-188l72 339h-83l16 72h82l63 295h190q66 0 125.5 -15.5t104.5 -49t71 -86t26 -126.5zM585 420q0 55 -19 94t-52 64.5t-78.5 37.5t-99.5 12h-96l-47 -217h176l-15 -72h-176l-56 -262h101q81 0 148 22.5
t114.5 66t73.5 107.5t26 147z" />
    <glyph glyph-name="dcroat" unicode="&#x111;" horiz-adv-x="503" 
d="M307 93q-13 -15 -31 -33.5t-40.5 -35t-48.5 -27.5t-55 -11q-32 0 -55.5 13t-38.5 34.5t-22 51t-7 62.5q0 56 16.5 114.5t49 106.5t81.5 78.5t114 30.5q29 0 58.5 -7.5t46.5 -33.5l32 148h-138l13 61h137l22 95h83l-21 -95h75l-12 -61h-75l-106 -498q-3 -15 0 -24.5
t17 -9.5q5 0 10 1t10 3l-4 -55q-10 -3 -26 -5.5t-32 -2.5q-36 0 -51.5 18t-7.5 56zM98 166q0 -42 14.5 -73t52.5 -31q21 0 41 10t38.5 25t34.5 33t27 34q15 19 20 42l30 137q4 19 -2 32.5t-18.5 22.5t-29.5 13t-33 4q-48 0 -81.5 -25t-54.5 -62.5t-30 -81t-9 -80.5z" />
    <glyph glyph-name="Emacron" unicode="&#x112;" horiz-adv-x="533" 
d="M514 627h-276l-46 -214h271l-16 -77h-271l-56 -257h306l-16 -79h-398l150 706h368zM498 818h-265l11 56h265z" />
    <glyph glyph-name="emacron" unicode="&#x113;" horiz-adv-x="457" 
d="M422 338q0 -17 -3.5 -36t-9.5 -39l-312 -57q-3 -17 -3 -38q0 -55 31.5 -85.5t88.5 -30.5q37 0 70 12.5t59 31.5l20 -61q-32 -22 -74.5 -36t-93.5 -14q-91 0 -138 49t-47 129q0 52 16 108t48.5 102t82.5 76t118 30q28 0 54.5 -8t47 -25t33 -44t12.5 -64zM336 312
q5 17 5 32q0 38 -23 56.5t-55 18.5q-31 0 -56 -12.5t-44 -33t-32 -47.5t-21 -56zM415 641h-265l11 57h265z" />
    <glyph glyph-name="Ebreve" unicode="&#x114;" horiz-adv-x="533" 
d="M514 627h-276l-46 -214h271l-16 -77h-271l-56 -257h306l-16 -79h-398l150 706h368zM512 881q-11 -68 -54 -96.5t-107 -28.5q-29 0 -54.5 7t-44.5 22t-30 38.5t-9 57.5h49q2 -38 27 -55t66 -17q45 0 70 15t36 57h51z" />
    <glyph glyph-name="ebreve" unicode="&#x115;" horiz-adv-x="457" 
d="M422 338q0 -17 -3.5 -36t-9.5 -39l-312 -57q-3 -17 -3 -38q0 -55 31.5 -85.5t88.5 -30.5q37 0 70 12.5t59 31.5l20 -61q-32 -22 -74.5 -36t-93.5 -14q-91 0 -138 49t-47 129q0 52 16 108t48.5 102t82.5 76t118 30q28 0 54.5 -8t47 -25t33 -44t12.5 -64zM336 312
q5 17 5 32q0 38 -23 56.5t-55 18.5q-31 0 -56 -12.5t-44 -33t-32 -47.5t-21 -56zM431 697q-11 -69 -54 -101.5t-107 -32.5q-29 0 -54.5 8.5t-44.5 25t-30 41.5t-9 59h49q2 -39 27 -60t66 -21q45 0 70 19.5t36 61.5h51z" />
    <glyph glyph-name="Edotaccent" unicode="&#x116;" horiz-adv-x="533" 
d="M514 627h-276l-46 -214h271l-16 -77h-271l-56 -257h306l-16 -79h-398l150 706h368zM412 868q0 -23 -15 -39t-40 -16q-20 0 -31.5 10.5t-11.5 27.5q0 23 15 38.5t40 15.5q20 0 31 -10t12 -27z" />
    <glyph glyph-name="edotaccent" unicode="&#x117;" horiz-adv-x="457" 
d="M422 338q0 -17 -3.5 -36t-9.5 -39l-312 -57q-3 -17 -3 -38q0 -55 31.5 -85.5t88.5 -30.5q37 0 70 12.5t59 31.5l20 -61q-32 -22 -74.5 -36t-93.5 -14q-91 0 -138 49t-47 129q0 52 16 108t48.5 102t82.5 76t118 30q28 0 54.5 -8t47 -25t33 -44t12.5 -64zM336 312
q5 17 5 32q0 38 -23 56.5t-55 18.5q-31 0 -56 -12.5t-44 -33t-32 -47.5t-21 -56zM348 687q0 -23 -15 -38.5t-40 -15.5q-20 0 -31.5 10.5t-11.5 27.5q0 23 15 38.5t40 15.5q20 0 31 -10.5t12 -27.5z" />
    <glyph glyph-name="Eogonek" unicode="&#x118;" horiz-adv-x="533" 
d="M409 -187q-38 -22 -84 -22q-32 0 -57.5 19.5t-25.5 55.5q0 42 24 75q21 28 54 59h-308l150 706h368l-16 -79h-276l-46 -214h271l-16 -77h-271l-56 -257h306l-16 -79h-32q-31 -30 -50 -54q-22 -27 -22 -59q0 -20 12 -31.5t33 -11.5q26 0 53 16z" />
    <glyph glyph-name="eogonek" unicode="&#x119;" horiz-adv-x="457" 
d="M363 35q-22 -15 -43.5 -32.5t-38 -37t-26.5 -39.5t-10 -39q0 -20 12 -31.5t33 -11.5q26 0 53 16l5 -47q-38 -22 -84 -22q-32 0 -57.5 19.5t-25.5 55.5q0 37 18 66t49 58q-28 -5 -53 -5q-91 0 -138 49t-47 129q0 52 16 108t48.5 102t82.5 76t118 30q28 0 54.5 -8t47 -25
t33 -44t12.5 -64q0 -17 -3.5 -36t-9.5 -39l-312 -57q-3 -17 -3 -38q0 -55 31.5 -85.5t88.5 -30.5q37 0 70 12.5t59 31.5zM336 312q5 17 5 32q0 38 -23 56.5t-55 18.5q-31 0 -56 -12.5t-44 -33t-32 -47.5t-21 -56z" />
    <glyph glyph-name="Ecaron" unicode="&#x11a;" horiz-adv-x="533" 
d="M514 627h-276l-46 -214h271l-16 -77h-271l-56 -257h306l-16 -79h-398l150 706h368zM398 745h-92l-91 135h65l77 -84l101 84h69z" />
    <glyph glyph-name="ecaron" unicode="&#x11b;" horiz-adv-x="457" 
d="M422 338q0 -17 -3.5 -36t-9.5 -39l-312 -57q-3 -17 -3 -38q0 -55 31.5 -85.5t88.5 -30.5q37 0 70 12.5t59 31.5l20 -61q-32 -22 -74.5 -36t-93.5 -14q-91 0 -138 49t-47 129q0 52 16 108t48.5 102t82.5 76t118 30q28 0 54.5 -8t47 -25t33 -44t12.5 -64zM336 312
q5 17 5 32q0 38 -23 56.5t-55 18.5q-31 0 -56 -12.5t-44 -33t-32 -47.5t-21 -56zM312 531h-92l-91 175h62l80 -124l105 124h65z" />
    <glyph glyph-name="Gcircumflex" unicode="&#x11c;" horiz-adv-x="674" 
d="M608 582q-32 35 -75.5 48.5t-91.5 13.5q-77 0 -135 -31.5t-97 -83t-58.5 -118t-19.5 -135.5q0 -99 52 -158.5t154 -59.5q33 0 61.5 5t52.5 13l38 176h-147l16 80h237l-66 -309q-39 -19 -93 -29.5t-104 -10.5q-67 0 -122 19.5t-94 56.5t-60 90.5t-21 122.5q0 88 29 169.5
t82 144.5t128.5 101t168.5 38q59 0 113.5 -15t96.5 -54zM537 745l-77 84l-101 -84h-69l129 135h92l91 -135h-65z" />
    <glyph glyph-name="gcircumflex" unicode="&#x11d;" horiz-adv-x="452" 
d="M352 571l-77 84l-101 -84h-69l129 135h92l91 -135h-65zM395 353q0 -41 -14.5 -75.5t-40.5 -59t-61 -38.5t-76 -14q-26 0 -48 6q-11 3 -19.5 3.5t-19.5 -4.5q-19 -8 -27.5 -20.5t-8.5 -25.5q0 -37 66 -46l103 -13q60 -8 90 -39.5t30 -82.5q0 -33 -15 -61.5t-43.5 -50.5
t-70 -34.5t-94.5 -12.5q-44 0 -80.5 9t-63 26t-41.5 41t-15 55q0 43 26 72.5t72 43.5v2q-17 10 -29.5 28.5t-12.5 45.5q0 28 19 57t68 45q-27 33 -27 82q0 41 14.5 75.5t40.5 59t61 38.5t76 14q39 0 70 -14q19 34 41.5 52.5t60.5 18.5q24 0 47 -10l-25 -67q-12 8 -34 8
q-17 0 -28.5 -8t-21.5 -22q31 -33 31 -84zM282 -69q0 27 -18 41.5t-50 19.5l-75 11q-7 1 -13 1.5t-11 0.5q-17 0 -33 -5.5t-29 -15t-20.5 -24t-7.5 -32.5q0 -37 33 -61.5t98 -24.5q25 0 48 5.5t40 16.5t27.5 27.5t10.5 39.5zM144 295q0 -33 17.5 -52.5t48.5 -19.5
q25 0 44.5 10.5t33 28.5t20 41t6.5 48q0 33 -18 52t-48 19q-26 0 -45 -10.5t-32.5 -28t-20 -40.5t-6.5 -48z" />
    <glyph glyph-name="Gbreve" unicode="&#x11e;" horiz-adv-x="674" 
d="M608 582q-32 35 -75.5 48.5t-91.5 13.5q-77 0 -135 -31.5t-97 -83t-58.5 -118t-19.5 -135.5q0 -99 52 -158.5t154 -59.5q33 0 61.5 5t52.5 13l38 176h-147l16 80h237l-66 -309q-39 -19 -93 -29.5t-104 -10.5q-67 0 -122 19.5t-94 56.5t-60 90.5t-21 122.5q0 88 29 169.5
t82 144.5t128.5 101t168.5 38q59 0 113.5 -15t96.5 -54zM598 881q-11 -68 -54 -96.5t-107 -28.5q-29 0 -54.5 7t-44.5 22t-30 38.5t-9 57.5h49q2 -38 27 -55t66 -17q45 0 70 15t36 57h51z" />
    <glyph glyph-name="gbreve" unicode="&#x11f;" horiz-adv-x="452" 
d="M395 353q0 -41 -14.5 -75.5t-40.5 -59t-61 -38.5t-76 -14q-26 0 -48 6q-11 3 -19.5 3.5t-19.5 -4.5q-19 -8 -27.5 -20.5t-8.5 -25.5q0 -37 66 -46l103 -13q60 -8 90 -39.5t30 -82.5q0 -33 -15 -61.5t-43.5 -50.5t-70 -34.5t-94.5 -12.5q-44 0 -80.5 9t-63 26t-41.5 41
t-15 55q0 43 26 72.5t72 43.5v2q-17 10 -29.5 28.5t-12.5 45.5q0 28 19 57t68 45q-27 33 -27 82q0 41 14.5 75.5t40.5 59t61 38.5t76 14q39 0 70 -14q19 34 41.5 52.5t60.5 18.5q24 0 47 -10l-25 -67q-12 8 -34 8q-17 0 -28.5 -8t-21.5 -22q31 -33 31 -84zM282 -69
q0 27 -18 41.5t-50 19.5l-75 11q-7 1 -13 1.5t-11 0.5q-17 0 -33 -5.5t-29 -15t-20.5 -24t-7.5 -32.5q0 -37 33 -61.5t98 -24.5q25 0 48 5.5t40 16.5t27.5 27.5t10.5 39.5zM144 295q0 -33 17.5 -52.5t48.5 -19.5q25 0 44.5 10.5t33 28.5t20 41t6.5 48q0 33 -18 52t-48 19
q-26 0 -45 -10.5t-32.5 -28t-20 -40.5t-6.5 -48zM427 697q-11 -69 -54 -101.5t-107 -32.5q-29 0 -54.5 8.5t-44.5 25t-30 41.5t-9 59h49q2 -39 27 -60t66 -21q45 0 70 19.5t36 61.5h51z" />
    <glyph glyph-name="Gdotaccent" unicode="&#x120;" horiz-adv-x="674" 
d="M608 582q-32 35 -75.5 48.5t-91.5 13.5q-77 0 -135 -31.5t-97 -83t-58.5 -118t-19.5 -135.5q0 -99 52 -158.5t154 -59.5q33 0 61.5 5t52.5 13l38 176h-147l16 80h237l-66 -309q-39 -19 -93 -29.5t-104 -10.5q-67 0 -122 19.5t-94 56.5t-60 90.5t-21 122.5q0 88 29 169.5
t82 144.5t128.5 101t168.5 38q59 0 113.5 -15t96.5 -54zM506 868q0 -23 -15 -39t-40 -16q-20 0 -31.5 10.5t-11.5 27.5q0 23 15 38.5t40 15.5q20 0 31 -10t12 -27z" />
    <glyph glyph-name="gdotaccent" unicode="&#x121;" horiz-adv-x="452" 
d="M395 353q0 -41 -14.5 -75.5t-40.5 -59t-61 -38.5t-76 -14q-26 0 -48 6q-11 3 -19.5 3.5t-19.5 -4.5q-19 -8 -27.5 -20.5t-8.5 -25.5q0 -37 66 -46l103 -13q60 -8 90 -39.5t30 -82.5q0 -33 -15 -61.5t-43.5 -50.5t-70 -34.5t-94.5 -12.5q-44 0 -80.5 9t-63 26t-41.5 41
t-15 55q0 43 26 72.5t72 43.5v2q-17 10 -29.5 28.5t-12.5 45.5q0 28 19 57t68 45q-27 33 -27 82q0 41 14.5 75.5t40.5 59t61 38.5t76 14q39 0 70 -14q19 34 41.5 52.5t60.5 18.5q24 0 47 -10l-25 -67q-12 8 -34 8q-17 0 -28.5 -8t-21.5 -22q31 -33 31 -84zM282 -69
q0 27 -18 41.5t-50 19.5l-75 11q-7 1 -13 1.5t-11 0.5q-17 0 -33 -5.5t-29 -15t-20.5 -24t-7.5 -32.5q0 -37 33 -61.5t98 -24.5q25 0 48 5.5t40 16.5t27.5 27.5t10.5 39.5zM144 295q0 -33 17.5 -52.5t48.5 -19.5q25 0 44.5 10.5t33 28.5t20 41t6.5 48q0 33 -18 52t-48 19
q-26 0 -45 -10.5t-32.5 -28t-20 -40.5t-6.5 -48zM326 687q0 -23 -15 -38.5t-40 -15.5q-20 0 -31.5 10.5t-11.5 27.5q0 23 15 38.5t40 15.5q20 0 31 -10.5t12 -27.5z" />
    <glyph glyph-name="Gcommaaccent" unicode="&#x122;" horiz-adv-x="674" 
d="M608 582q-32 35 -75.5 48.5t-91.5 13.5q-77 0 -135 -31.5t-97 -83t-58.5 -118t-19.5 -135.5q0 -99 52 -158.5t154 -59.5q33 0 61.5 5t52.5 13l38 176h-147l16 80h237l-66 -309q-39 -19 -93 -29.5t-104 -10.5q-67 0 -122 19.5t-94 56.5t-60 90.5t-21 122.5q0 88 29 169.5
t82 144.5t128.5 101t168.5 38q59 0 113.5 -15t96.5 -54zM340 -70q0 -42 -23 -74.5t-57 -53.5h-61q30 26 51 55t21 71q0 19 -6 34h71q4 -13 4 -32z" />
    <glyph glyph-name="gcommaaccent" unicode="&#x123;" horiz-adv-x="452" 
d="M395 353q0 -41 -14.5 -75.5t-40.5 -59t-61 -38.5t-76 -14q-26 0 -48 6q-11 3 -19.5 3.5t-19.5 -4.5q-19 -8 -27.5 -20.5t-8.5 -25.5q0 -37 66 -46l103 -13q60 -8 90 -39.5t30 -82.5q0 -33 -15 -61.5t-43.5 -50.5t-70 -34.5t-94.5 -12.5q-44 0 -80.5 9t-63 26t-41.5 41
t-15 55q0 43 26 72.5t72 43.5v2q-17 10 -29.5 28.5t-12.5 45.5q0 28 19 57t68 45q-27 33 -27 82q0 41 14.5 75.5t40.5 59t61 38.5t76 14q39 0 70 -14q19 34 41.5 52.5t60.5 18.5q24 0 47 -10l-25 -67q-12 8 -34 8q-17 0 -28.5 -8t-21.5 -22q31 -33 31 -84zM282 -69
q0 27 -18 41.5t-50 19.5l-75 11q-7 1 -13 1.5t-11 0.5q-17 0 -33 -5.5t-29 -15t-20.5 -24t-7.5 -32.5q0 -37 33 -61.5t98 -24.5q25 0 48 5.5t40 16.5t27.5 27.5t10.5 39.5zM144 295q0 -33 17.5 -52.5t48.5 -19.5q25 0 44.5 10.5t33 28.5t20 41t6.5 48q0 33 -18 52t-48 19
q-26 0 -45 -10.5t-32.5 -28t-20 -40.5t-6.5 -48zM216 617q0 42 23 75t58 53h60q-29 -25 -50 -54.5t-21 -71.5q0 -19 6 -34h-72q-4 15 -4 32z" />
    <glyph glyph-name="Hcircumflex" unicode="&#x124;" horiz-adv-x="713" 
d="M551 0h-92l71 335h-355l-70 -335h-93l150 706h92l-62 -292h354l63 292h92zM526 745l-77 84l-101 -84h-69l129 135h92l91 -135h-65z" />
    <glyph glyph-name="hcircumflex" unicode="&#x125;" horiz-adv-x="535" 
d="M92 0h-85l157 740h85l-79 -365q17 18 37 36.5t43 33t49 24t55 9.5q50 0 80.5 -29.5t30.5 -76.5q0 -17 -2.5 -34t-5.5 -32l-64 -306h-85l61 292q2 11 4 23t2 24q0 33 -17 48t-43 15q-21 0 -42 -10.5t-40.5 -26t-37 -34t-29.5 -34.5q-8 -11 -12.5 -20t-6.5 -20zM304 751
l-81 124l-105 -124h-65l129 175h92l91 -175h-61z" />
    <glyph glyph-name="Hbar" unicode="&#x126;" horiz-adv-x="713" 
d="M58 591h79l25 115h92l-25 -115h355l25 115h92l-25 -115h82l-15 -69h-82l-110 -522h-92l71 335h-355l-70 -335h-93l111 522h-80zM546 414l23 108h-354l-23 -108h354z" />
    <glyph glyph-name="hbar" unicode="&#x127;" horiz-adv-x="535" 
d="M92 0h-85l124 584h-77l13 61h77l20 95h85l-21 -95h135l-12 -61h-136l-45 -209q17 18 37 36.5t43 33t49 24t55 9.5q50 0 80.5 -29.5t30.5 -76.5q0 -17 -2.5 -34t-5.5 -32l-64 -306h-85l61 292q2 11 4 23t2 24q0 33 -17 48t-43 15q-21 0 -42.5 -10t-41 -26t-36.5 -34.5
t-29 -34.5q-16 -21 -19 -40z" />
    <glyph glyph-name="Itilde" unicode="&#x128;" horiz-adv-x="278" 
d="M110 0h-92l150 706h92zM416 884q-5 -23 -13 -44t-20.5 -37.5t-30.5 -26.5t-43 -10q-19 0 -37.5 8t-36 18t-35 18t-33.5 8q-26 0 -39.5 -20t-17.5 -40h-54q4 23 12 44t21 37.5t31 26.5t43 10q19 0 37.5 -8t36 -18t34.5 -18t34 -8q13 0 23 5.5t16.5 14.5t11 19.5t6.5 20.5
h54z" />
    <glyph glyph-name="itilde" unicode="&#x129;" horiz-adv-x="239" 
d="M191 464l-99 -464h-84l98 464h85zM301 641h-265l11 57h265z" />
    <glyph glyph-name="Imacron" unicode="&#x12a;" horiz-adv-x="278" 
d="M110 0h-92l150 706h92zM362 818h-265l11 56h265z" />
    <glyph glyph-name="imacron" unicode="&#x12b;" horiz-adv-x="239" 
d="M191 464l-99 -464h-84l98 464h85zM300 641h-265l11 57h265z" />
    <glyph glyph-name="Ibreve" unicode="&#x12c;" horiz-adv-x="278" 
d="M110 0h-92l150 706h92zM383 881q-11 -68 -54 -96.5t-107 -28.5q-29 0 -54.5 7t-44.5 22t-30 38.5t-9 57.5h49q2 -38 27 -55t66 -17q45 0 70 15t36 57h51z" />
    <glyph glyph-name="ibreve" unicode="&#x12d;" horiz-adv-x="239" 
d="M191 464l-99 -464h-84l98 464h85zM316 697q-11 -69 -54 -101.5t-107 -32.5q-29 0 -54.5 8.5t-44.5 25t-30 41.5t-9 59h49q2 -39 27 -60t66 -21q45 0 70 19.5t36 61.5h51z" />
    <glyph glyph-name="Iogonek" unicode="&#x12e;" horiz-adv-x="278" 
d="M115 -187q-38 -22 -84 -22q-32 0 -57.5 19.5t-25.5 55.5q0 42 24 75q21 28 54 59h-8l150 706h92l-150 -706h-26q-31 -30 -50 -54q-22 -27 -22 -59q0 -20 12 -31.5t33 -11.5q26 0 53 16z" />
    <glyph glyph-name="iogonek" unicode="&#x12f;" horiz-adv-x="239" 
d="M102 -187q-38 -22 -84 -22q-32 0 -57.5 19.5t-25.5 55.5q0 42 24 75q21 28 54 59h-5l98 464h85l-99 -464h-21q-31 -30 -50 -54q-22 -27 -22 -59q0 -20 12 -31.5t33 -11.5q26 0 53 16zM244 685q0 -23 -15.5 -40t-41.5 -17q-21 0 -33 11.5t-12 28.5q0 24 15.5 40.5
t41.5 16.5q21 0 33 -11.5t12 -28.5z" />
    <glyph glyph-name="Idotaccent" unicode="&#x130;" horiz-adv-x="278" 
d="M110 0h-92l150 706h92zM293 868q0 -23 -15 -39t-40 -16q-20 0 -31.5 10.5t-11.5 27.5q0 23 15 38.5t40 15.5q20 0 31 -10t12 -27z" />
    <glyph glyph-name="dotlessi" unicode="&#x131;" horiz-adv-x="239" 
d="M191 464l-99 -464h-84l98 464h85z" />
    <glyph glyph-name="IJ" unicode="&#x132;" horiz-adv-x="561" 
d="M110 0h-92l150 706h92zM402 41q-12 -56 -35.5 -103t-59 -81t-83 -53t-107.5 -19q-8 0 -16 0.5t-19 1.5l19 72q5 -1 10.5 -1h10.5q40 0 71.5 14t54.5 39t38.5 60t24.5 77l140 658h92z" />
    <glyph glyph-name="ij" unicode="&#x133;" horiz-adv-x="472" 
d="M191 464l-99 -464h-84l98 464h85zM244 685q0 -23 -15.5 -40t-41.5 -17q-21 0 -33 11.5t-12 28.5q0 24 15.5 40.5t41.5 16.5q21 0 33 -11.5t12 -28.5zM478 685q0 -23 -15.5 -40t-41.5 -17q-21 0 -33.5 11.5t-12.5 28.5q0 24 16 40.5t42 16.5q21 0 33 -11.5t12 -28.5z
M321 -21q-20 -92 -67.5 -143t-129.5 -51q-55 0 -95 26l29 64q15 -12 31.5 -18.5t36.5 -6.5q47 0 73 34t39 96l102 484h84z" />
    <glyph glyph-name="Jcircumflex" unicode="&#x134;" horiz-adv-x="284" 
d="M125 41q-12 -56 -35.5 -103t-59 -81t-83 -53t-107.5 -19q-8 0 -16 0.5t-19 1.5l19 72q5 -1 10.5 -1h10.5q40 0 71.5 14t54.5 39t38.5 60t24.5 77l140 658h92zM320 745l-77 84l-101 -84h-69l129 135h92l91 -135h-65z" />
    <glyph glyph-name="jcircumflex" unicode="&#x135;" horiz-adv-x="240" 
d="M89 -21q-20 -92 -67.5 -143t-129.5 -51q-55 0 -95 26l29 66q15 -12 31.5 -18.5t36.5 -6.5q47 0 73 33t39 95l102 484h84zM251 531l-81 124l-105 -124h-65l129 175h92l91 -175h-61z" />
    <glyph glyph-name="Kcommaaccent" unicode="&#x136;" horiz-adv-x="609" 
d="M331 401q30 -21 52 -48.5t38 -58t28 -64t24 -67.5q14 -41 29 -83t37 -80h-101q-20 33 -31 69t-22 69q-10 32 -20.5 60.5t-24 54t-31.5 48t-45 42.5l-109 -100l-51 -243h-92l150 706h92l-77 -360l366 360h112zM290 -70q0 -42 -23 -74.5t-57 -53.5h-61q30 26 51 55t21 71
q0 19 -6 34h71q4 -13 4 -32z" />
    <glyph glyph-name="kcommaaccent" unicode="&#x137;" horiz-adv-x="456" 
d="M124 156l-32 -156h-85l158 740h85l-106 -492l213 216h99l-203 -194q20 -12 34 -29.5t25.5 -38.5t20 -44.5t15.5 -46.5q9 -27 19 -56t26 -55h-91q-14 18 -22 42.5t-15 45.5q-13 42 -27.5 73t-46.5 57zM231 -70q0 -42 -23 -74.5t-57 -53.5h-61q30 26 51 55t21 71
q0 19 -6 34h71q4 -13 4 -32z" />
    <glyph glyph-name="Lacute" unicode="&#x139;" horiz-adv-x="515" 
d="M415 0h-403l150 706h92l-134 -626h311zM252 745h-70l127 155h99z" />
    <glyph glyph-name="lacute" unicode="&#x13a;" horiz-adv-x="247" 
d="M111 95q-3 -16 0.5 -26.5t20.5 -10.5q14 0 29 5l-6 -61q-13 -4 -29.5 -6.5t-34.5 -2.5q-47 0 -60 28t-3 75l137 644h84zM239 751h-66l127 175h99z" />
    <glyph glyph-name="Lcommaaccent" unicode="&#x13b;" horiz-adv-x="515" 
d="M415 0h-403l150 706h92l-134 -626h311zM258 -70q0 -42 -23 -74.5t-57 -53.5h-61q30 26 51 55t21 71q0 19 -6 34h71q4 -13 4 -32z" />
    <glyph glyph-name="lcommaaccent" unicode="&#x13c;" horiz-adv-x="247" 
d="M111 95q-3 -16 0.5 -26.5t20.5 -10.5q14 0 29 5l-6 -61q-13 -4 -29.5 -6.5t-34.5 -2.5q-47 0 -60 28t-3 75l137 644h84zM119 -70q0 -42 -23 -74.5t-57 -53.5h-61q30 26 51 55t21 71q0 19 -6 34h71q4 -13 4 -32z" />
    <glyph glyph-name="Lcaron" unicode="&#x13d;" horiz-adv-x="515" 
d="M415 0h-403l150 706h92l-134 -626h311zM260 745h-92l-91 135h65l77 -84l101 84h69z" />
    <glyph glyph-name="lcaron" unicode="&#x13e;" horiz-adv-x="247" 
d="M111 95q-3 -16 0.5 -26.5t20.5 -10.5q14 0 29 5l-6 -61q-13 -4 -29.5 -6.5t-34.5 -2.5q-47 0 -60 28t-3 75l137 644h84zM399 708q0 -42 -23 -74.5t-57 -53.5h-61q30 26 51 55t21 71q0 19 -6 34h71q4 -13 4 -32z" />
    <glyph glyph-name="Ldot" unicode="&#x13f;" horiz-adv-x="515" 
d="M415 0h-403l150 706h92l-134 -626h311zM446 385q0 -23 -15 -38.5t-40 -15.5q-20 0 -31.5 10.5t-11.5 27.5q0 23 15 38.5t40 15.5q20 0 31 -10.5t12 -27.5z" />
    <glyph glyph-name="ldot" unicode="&#x140;" horiz-adv-x="310" 
d="M111 95q-3 -16 0.5 -26.5t20.5 -10.5q14 0 29 5l-6 -61q-13 -4 -29.5 -6.5t-34.5 -2.5q-47 0 -60 28t-3 75l137 644h84zM312 255q0 -27 -17 -46t-46 -19q-22 0 -36.5 12.5t-14.5 34.5q0 27 17 46t46 19q22 0 36.5 -12.5t14.5 -34.5z" />
    <glyph glyph-name="Lslash" unicode="&#x141;" horiz-adv-x="516" 
d="M448 0h-403l60 279l-91 -47l15 76l91 47l75 351h92l-64 -296l180 94l-15 -75l-180 -95l-55 -254h311z" />
    <glyph glyph-name="lslash" unicode="&#x142;" horiz-adv-x="277" 
d="M296 456l-105 -56l-65 -305q-3 -16 0.5 -26.5t20.5 -10.5q14 0 29 5l-6 -61q-13 -4 -30 -6.5t-35 -2.5q-47 0 -60 28t-2 75l54 253l-85 -45l14 73l86 44l67 319h85l-58 -267l106 56z" />
    <glyph glyph-name="Nacute" unicode="&#x143;" horiz-adv-x="725" 
d="M563 0h-84l-210 441q-16 34 -29 66t-20 56h-2l-121 -563h-85l150 706h83l205 -437q22 -47 35 -81t18 -54h2l123 572h85zM460 745h-70l127 155h99z" />
    <glyph glyph-name="nacute" unicode="&#x144;" horiz-adv-x="535" 
d="M465 372q0 -17 -2 -33t-6 -33l-64 -306h-85l61 292q2 11 4 23t2 24q0 33 -17 48t-43 15q-21 0 -42 -10t-40.5 -25.5t-36.5 -34t-30 -35.5q-8 -11 -12.5 -20.5t-6.5 -20.5l-55 -256h-85l99 464h81l-21 -93q18 20 39 39.5t44.5 34.5t49.5 24t55 9q51 0 80.5 -29t30.5 -77z
M328 531h-66l127 175h99z" />
    <glyph glyph-name="Ncommaaccent" unicode="&#x145;" horiz-adv-x="725" 
d="M563 0h-84l-210 441q-16 34 -29 66t-20 56h-2l-121 -563h-85l150 706h83l205 -437q22 -47 35 -81t18 -54h2l123 572h85zM329 -70q0 -42 -23 -74.5t-57 -53.5h-61q30 26 51 55t21 71q0 19 -6 34h71q4 -13 4 -32z" />
    <glyph glyph-name="ncommaaccent" unicode="&#x146;" horiz-adv-x="535" 
d="M465 372q0 -17 -2 -33t-6 -33l-64 -306h-85l61 292q2 11 4 23t2 24q0 33 -17 48t-43 15q-21 0 -42 -10t-40.5 -25.5t-36.5 -34t-30 -35.5q-8 -11 -12.5 -20.5t-6.5 -20.5l-55 -256h-85l99 464h81l-21 -93q18 20 39 39.5t44.5 34.5t49.5 24t55 9q51 0 80.5 -29t30.5 -77z
M235 -70q0 -42 -23 -74.5t-57 -53.5h-61q30 26 51 55t21 71q0 19 -6 34h71q4 -13 4 -32z" />
    <glyph glyph-name="Ncaron" unicode="&#x147;" horiz-adv-x="725" 
d="M563 0h-84l-210 441q-16 34 -29 66t-20 56h-2l-121 -563h-85l150 706h83l205 -437q22 -47 35 -81t18 -54h2l123 572h85zM480 745h-92l-91 135h65l77 -84l101 84h69z" />
    <glyph glyph-name="ncaron" unicode="&#x148;" horiz-adv-x="535" 
d="M465 372q0 -17 -2 -33t-6 -33l-64 -306h-85l61 292q2 11 4 23t2 24q0 33 -17 48t-43 15q-21 0 -42 -10t-40.5 -25.5t-36.5 -34t-30 -35.5q-8 -11 -12.5 -20.5t-6.5 -20.5l-55 -256h-85l99 464h81l-21 -93q18 20 39 39.5t44.5 34.5t49.5 24t55 9q51 0 80.5 -29t30.5 -77z
M343 531h-92l-91 175h62l80 -124l105 124h65z" />
    <glyph glyph-name="Eng" unicode="&#x14a;" horiz-adv-x="725" 
d="M269 441q-17 34 -29.5 66t-19.5 56h-2l-121 -563h-85l150 706h83l206 -429q22 -48 35 -81.5t19 -54.5h2l121 565h85l-154 -728q-19 -91 -65.5 -142t-128.5 -51q-54 0 -94 27l28 62q30 -27 67 -27q51 0 79.5 42t41.5 111z" />
    <glyph glyph-name="eng" unicode="&#x14b;" horiz-adv-x="535" 
d="M369 292q2 11 4 23t2 24q0 33 -17 48t-43 15q-21 0 -42 -10t-40.5 -25.5t-37 -34t-29.5 -35.5q-16 -20 -19 -41l-55 -256h-85l99 464h81l-21 -93q18 20 39 39.5t44.5 34.5t49.5 24t55 9q51 0 80.5 -29t30.5 -77q0 -17 -2 -33t-6 -33l-69 -327q-19 -92 -67 -143t-130 -51
q-55 0 -95 26l29 66q30 -25 68 -25q47 0 72 33t39 95z" />
    <glyph glyph-name="Omacron" unicode="&#x14c;" horiz-adv-x="711" 
d="M676 465q0 -57 -11 -115t-32.5 -112t-54 -101t-75.5 -81.5t-97 -54.5t-118 -20q-60 0 -107 19t-79.5 53.5t-49.5 83t-17 106.5q0 57 11 115t32.5 112t54 101t75.5 81.5t97 54.5t118 20q60 0 107 -19t79.5 -53.5t49.5 -83t17 -106.5zM580 455q0 40 -9.5 74.5t-30 60.5
t-52 41t-75.5 15q-75 0 -129 -38t-88 -96t-50 -127t-16 -132q0 -40 10 -74.5t30 -60.5t51.5 -41t75.5 -15q75 0 129 38t88 96t50 127t16 132zM566 818h-265l11 56h265z" />
    <glyph glyph-name="omacron" unicode="&#x14d;" horiz-adv-x="494" 
d="M445 307q0 -56 -17.5 -114t-51 -104.5t-83 -76t-114.5 -29.5q-82 0 -128 48t-46 126q0 57 17.5 114.5t51.5 104t84 76t115 29.5q81 0 126.5 -48t45.5 -126zM357 296q0 51 -22 83.5t-72 32.5q-44 0 -76 -24.5t-52.5 -61.5t-30.5 -79t-10 -78q0 -51 22.5 -83.5t72.5 -32.5
q44 0 76 24.5t52 61t30 79t10 78.5zM414 641h-265l11 57h265z" />
    <glyph glyph-name="Obreve" unicode="&#x14e;" horiz-adv-x="711" 
d="M676 465q0 -57 -11 -115t-32.5 -112t-54 -101t-75.5 -81.5t-97 -54.5t-118 -20q-60 0 -107 19t-79.5 53.5t-49.5 83t-17 106.5q0 57 11 115t32.5 112t54 101t75.5 81.5t97 54.5t118 20q60 0 107 -19t79.5 -53.5t49.5 -83t17 -106.5zM580 455q0 40 -9.5 74.5t-30 60.5
t-52 41t-75.5 15q-75 0 -129 -38t-88 -96t-50 -127t-16 -132q0 -40 10 -74.5t30 -60.5t51.5 -41t75.5 -15q75 0 129 38t88 96t50 127t16 132zM583 881q-11 -68 -54 -96.5t-107 -28.5q-29 0 -54.5 7t-44.5 22t-30 38.5t-9 57.5h49q2 -38 27 -55t66 -17q45 0 70 15t36 57h51z
" />
    <glyph glyph-name="obreve" unicode="&#x14f;" horiz-adv-x="494" 
d="M445 307q0 -56 -17.5 -114t-51 -104.5t-83 -76t-114.5 -29.5q-82 0 -128 48t-46 126q0 57 17.5 114.5t51.5 104t84 76t115 29.5q81 0 126.5 -48t45.5 -126zM357 296q0 51 -22 83.5t-72 32.5q-44 0 -76 -24.5t-52.5 -61.5t-30.5 -79t-10 -78q0 -51 22.5 -83.5t72.5 -32.5
q44 0 76 24.5t52 61t30 79t10 78.5zM450 697q-11 -69 -54 -101.5t-107 -32.5q-29 0 -54.5 8.5t-44.5 25t-30 41.5t-9 59h49q2 -39 27 -60t66 -21q45 0 70 19.5t36 61.5h51z" />
    <glyph glyph-name="Ohungarumlaut" unicode="&#x150;" horiz-adv-x="711" 
d="M676 465q0 -57 -11 -115t-32.5 -112t-54 -101t-75.5 -81.5t-97 -54.5t-118 -20q-60 0 -107 19t-79.5 53.5t-49.5 83t-17 106.5q0 57 11 115t32.5 112t54 101t75.5 81.5t97 54.5t118 20q60 0 107 -19t79.5 -53.5t49.5 -83t17 -106.5zM580 455q0 40 -9.5 74.5t-30 60.5
t-52 41t-75.5 15q-75 0 -129 -38t-88 -96t-50 -127t-16 -132q0 -40 10 -74.5t30 -60.5t51.5 -41t75.5 -15q75 0 129 38t88 96t50 127t16 132zM538 745h-70l130 135h98zM359 745h-69l129 135h99z" />
    <glyph glyph-name="ohungarumlaut" unicode="&#x151;" horiz-adv-x="494" 
d="M445 307q0 -56 -17.5 -114t-51 -104.5t-83 -76t-114.5 -29.5q-82 0 -128 48t-46 126q0 57 17.5 114.5t51.5 104t84 76t115 29.5q81 0 126.5 -48t45.5 -126zM357 296q0 51 -22 83.5t-72 32.5q-44 0 -76 -24.5t-52.5 -61.5t-30.5 -79t-10 -78q0 -51 22.5 -83.5t72.5 -32.5
q44 0 76 24.5t52 61t30 79t10 78.5zM395 531h-66l130 175h98zM217 531h-66l129 175h99z" />
    <glyph glyph-name="OE" unicode="&#x152;" horiz-adv-x="983" 
d="M964 627h-277l-46 -214h271l-16 -77h-270l-56 -257h306l-16 -79h-496q-66 0 -125.5 16.5t-104.5 51t-71 87t-26 124.5q0 100 32 179.5t93 134.5t150.5 84t203.5 29h464zM494 629q-92 0 -159.5 -24.5t-112.5 -69.5t-67 -108.5t-22 -141.5q0 -54 19 -93.5t52 -65
t78.5 -37.5t99.5 -12h96l117 552h-101z" />
    <glyph glyph-name="oe" unicode="&#x153;" horiz-adv-x="788" 
d="M753 338q0 -17 -3.5 -36t-9.5 -39l-312 -57q-2 -8 -3 -18t-1 -20q1 -55 32 -85.5t88 -30.5q37 0 70 12.5t59 31.5l20 -61q-32 -22 -74.5 -36t-93.5 -14q-65 0 -104.5 27t-53.5 75q-31 -45 -77.5 -74.5t-110.5 -29.5q-82 0 -128 48t-46 126q0 57 17.5 114.5t51.5 104
t84 76t115 29.5q60 0 96 -28t50 -74q30 44 76 72t111 28q28 0 54.5 -8t47 -25t33 -44t12.5 -64zM357 296q0 51 -22 83.5t-72 32.5q-44 0 -76 -24.5t-52.5 -61.5t-30.5 -79t-10 -78q0 -51 22.5 -83.5t72.5 -32.5q44 0 76 24.5t52 61t30 79t10 78.5zM667 312q4 13 4 32
q0 38 -22.5 56.5t-55.5 18.5q-31 0 -56 -12.5t-43.5 -33t-32 -47.5t-21.5 -56z" />
    <glyph glyph-name="Racute" unicode="&#x154;" horiz-adv-x="617" 
d="M570 535q0 -45 -15 -79t-41 -59t-60 -40.5t-71 -23.5v-2q30 -24 47.5 -59t32 -78.5t30.5 -93t43 -100.5h-106q-23 47 -37.5 101t-32 100t-43.5 76.5t-73 30.5h-73l-65 -308h-92l150 706h174q44 0 86 -8.5t74.5 -28.5t52 -53t19.5 -81zM477 526q0 28 -11 47.5t-30.5 32.5
t-46.5 19t-59 6h-89l-55 -249h91q39 0 75 7.5t63.5 24.5t44.5 44.5t17 67.5zM373 745h-70l127 155h99z" />
    <glyph glyph-name="racute" unicode="&#x155;" horiz-adv-x="338" 
d="M88 378q3 15 0 24t-17 9q-10 0 -20 -4l4 56q11 3 25 5.5t30 2.5q62 0 62 -46q0 -8 -1.5 -15.5t-3.5 -16.5l-7 -33q18 24 35 45.5t35 37.5t37 25.5t42 9.5q11 0 21 -2t18 -5l-29 -84q-8 3 -16 5t-16 2q-32 0 -62.5 -26t-55.5 -61q-10 -14 -14.5 -24t-7.5 -24l-55 -259h-85
zM234 531h-66l127 175h99z" />
    <glyph glyph-name="Rcommaaccent" unicode="&#x156;" horiz-adv-x="617" 
d="M570 535q0 -45 -15 -79t-41 -59t-60 -40.5t-71 -23.5v-2q30 -24 47.5 -59t32 -78.5t30.5 -93t43 -100.5h-106q-23 47 -37.5 101t-32 100t-43.5 76.5t-73 30.5h-73l-65 -308h-92l150 706h174q44 0 86 -8.5t74.5 -28.5t52 -53t19.5 -81zM477 526q0 28 -11 47.5t-30.5 32.5
t-46.5 19t-59 6h-89l-55 -249h91q39 0 75 7.5t63.5 24.5t44.5 44.5t17 67.5zM290 -70q0 -42 -23 -74.5t-57 -53.5h-61q30 26 51 55t21 71q0 19 -6 34h71q4 -13 4 -32z" />
    <glyph glyph-name="rcommaaccent" unicode="&#x157;" horiz-adv-x="338" 
d="M88 378q3 15 0 24t-17 9q-10 0 -20 -4l4 56q11 3 25 5.5t30 2.5q62 0 62 -46q0 -8 -1.5 -15.5t-3.5 -16.5l-7 -33q18 24 35 45.5t35 37.5t37 25.5t42 9.5q11 0 21 -2t18 -5l-29 -84q-8 3 -16 5t-16 2q-32 0 -62.5 -26t-55.5 -61q-10 -14 -14.5 -24t-7.5 -24l-55 -259h-85
zM86 -70q0 -42 -23 -74.5t-57 -53.5h-61q30 26 51 55t21 71q0 19 -6 34h71q4 -13 4 -32z" />
    <glyph glyph-name="Rcaron" unicode="&#x158;" horiz-adv-x="617" 
d="M570 535q0 -45 -15 -79t-41 -59t-60 -40.5t-71 -23.5v-2q30 -24 47.5 -59t32 -78.5t30.5 -93t43 -100.5h-106q-23 47 -37.5 101t-32 100t-43.5 76.5t-73 30.5h-73l-65 -308h-92l150 706h174q44 0 86 -8.5t74.5 -28.5t52 -53t19.5 -81zM477 526q0 28 -11 47.5t-30.5 32.5
t-46.5 19t-59 6h-89l-55 -249h91q39 0 75 7.5t63.5 24.5t44.5 44.5t17 67.5zM402 745h-92l-91 135h65l77 -84l101 84h69z" />
    <glyph glyph-name="rcaron" unicode="&#x159;" horiz-adv-x="338" 
d="M88 378q3 15 0 24t-17 9q-10 0 -20 -4l4 56q11 3 25 5.5t30 2.5q62 0 62 -46q0 -8 -1.5 -15.5t-3.5 -16.5l-7 -33q18 24 35 45.5t35 37.5t37 25.5t42 9.5q11 0 21 -2t18 -5l-29 -84q-8 3 -16 5t-16 2q-32 0 -62.5 -26t-55.5 -61q-10 -14 -14.5 -24t-7.5 -24l-55 -259h-85
zM247 531h-92l-91 175h62l80 -124l105 124h65z" />
    <glyph glyph-name="Sacute" unicode="&#x15a;" horiz-adv-x="492" 
d="M453 594q-27 29 -64 42t-77 13q-60 0 -96.5 -31t-36.5 -82q0 -24 9 -43.5t24 -36.5t34 -31.5t38 -28.5q24 -17 47.5 -36t42 -42.5t30 -51.5t11.5 -64q0 -53 -20.5 -93.5t-55 -68.5t-79 -42.5t-91.5 -14.5q-53 0 -102 13.5t-87 48.5l40 75q29 -31 68 -45t82 -14
q28 0 55 7.5t47.5 23t33 38.5t12.5 54q0 24 -8.5 43t-22.5 36t-32 31.5t-38 29.5q-24 18 -47 37t-42 42t-30.5 51.5t-11.5 64.5q0 49 18.5 87.5t49.5 64.5t72.5 40t86.5 14q48 0 95 -13t83 -45zM336 745h-70l127 155h99z" />
    <glyph glyph-name="sacute" unicode="&#x15b;" horiz-adv-x="364" 
d="M307 382q-19 19 -44 27.5t-54 8.5q-42 0 -64 -19t-22 -47q0 -29 21 -47t47 -35q17 -11 34.5 -24t32 -29t23.5 -36t9 -45q0 -36 -15 -64.5t-40 -47.5t-56 -29t-64 -10q-37 0 -75 9t-63 33l31 62q20 -20 47.5 -29.5t56.5 -9.5q18 0 35 4t30 13t21 22.5t8 31.5
q0 28 -19.5 47t-55.5 43q-16 11 -32 23t-28.5 26.5t-20 33t-7.5 41.5q0 32 12 59t34 46.5t53 30t68 10.5t69.5 -9t58.5 -31zM236 531h-66l127 175h99z" />
    <glyph glyph-name="Scircumflex" unicode="&#x15c;" horiz-adv-x="492" 
d="M453 594q-27 29 -64 42t-77 13q-60 0 -96.5 -31t-36.5 -82q0 -24 9 -43.5t24 -36.5t34 -31.5t38 -28.5q24 -17 47.5 -36t42 -42.5t30 -51.5t11.5 -64q0 -53 -20.5 -93.5t-55 -68.5t-79 -42.5t-91.5 -14.5q-53 0 -102 13.5t-87 48.5l40 75q29 -31 68 -45t82 -14
q28 0 55 7.5t47.5 23t33 38.5t12.5 54q0 24 -8.5 43t-22.5 36t-32 31.5t-38 29.5q-24 18 -47 37t-42 42t-30.5 51.5t-11.5 64.5q0 49 18.5 87.5t49.5 64.5t72.5 40t86.5 14q48 0 95 -13t83 -45zM401 745l-77 84l-101 -84h-69l129 135h92l91 -135h-65z" />
    <glyph glyph-name="scircumflex" unicode="&#x15d;" horiz-adv-x="364" 
d="M307 382q-19 19 -44 27.5t-54 8.5q-42 0 -64 -19t-22 -47q0 -29 21 -47t47 -35q17 -11 34.5 -24t32 -29t23.5 -36t9 -45q0 -36 -15 -64.5t-40 -47.5t-56 -29t-64 -10q-37 0 -75 9t-63 33l31 62q20 -20 47.5 -29.5t56.5 -9.5q18 0 35 4t30 13t21 22.5t8 31.5
q0 28 -19.5 47t-55.5 43q-16 11 -32 23t-28.5 26.5t-20 33t-7.5 41.5q0 32 12 59t34 46.5t53 30t68 10.5t69.5 -9t58.5 -31zM303 531l-81 124l-105 -124h-65l129 175h92l91 -175h-61z" />
    <glyph glyph-name="Scedilla" unicode="&#x15e;" horiz-adv-x="492" 
d="M97 -209q-21 0 -38.5 6t-31.5 15l16 49q10 -7 23.5 -12t27.5 -5q25 0 44.5 15t19.5 48q0 29 -10 53q-5 12 -11 24q-36 3 -70 13q-49 13 -87 48l40 75q29 -31 68 -45t82 -14q28 0 55 7.5t47.5 23t33 38.5t12.5 54q0 24 -8.5 43t-22.5 36t-32 31.5t-38 29.5q-24 18 -47 37
t-42 42t-30.5 51.5t-11.5 64.5q0 49 18.5 87.5t49.5 64.5t72.5 40t86.5 14q48 0 95 -13t83 -45l-38 -73q-27 29 -64 42t-77 13q-60 0 -96.5 -31t-36.5 -82q0 -24 9 -43.5t24 -36.5t34 -31.5t38 -28.5q24 -17 47.5 -36t42 -42.5t30 -51.5t11.5 -64q0 -53 -20.5 -93.5
t-55 -68.5t-79.5 -42q-36 -12 -74 -14q7 -14 13 -29q13 -28 13 -59q0 -43 -30.5 -74t-84.5 -31z" />
    <glyph glyph-name="scedilla" unicode="&#x15f;" horiz-adv-x="364" 
d="M57 -209q-21 0 -38.5 6t-31.5 15l16 49q10 -7 23.5 -12t27.5 -5q25 0 44.5 15t19.5 48q0 29 -10 53l-12 26q-28 1 -56 8q-38 9 -63 33l31 62q20 -20 47.5 -29.5t56.5 -9.5q18 0 35 4t30 13t21 22.5t8 31.5q0 28 -19.5 47t-55.5 43q-16 11 -32 23t-28.5 26.5t-20 33
t-7.5 41.5q0 32 12 59t34 46.5t53 30t68 10.5t69.5 -9t58.5 -31l-31 -59q-19 19 -44 27.5t-54 8.5q-42 0 -64 -19t-22 -47q0 -29 21 -47t47 -35q17 -11 34.5 -24t32 -29t23.5 -36t9 -45q0 -36 -15 -64.5t-40 -47.5t-56 -29q-18 -5 -36 -8q9 -15 16 -32q13 -28 13 -59
q0 -43 -30.5 -74t-84.5 -31z" />
    <glyph glyph-name="Scaron" unicode="&#x160;" horiz-adv-x="492" 
d="M453 594q-27 29 -64 42t-77 13q-60 0 -96.5 -31t-36.5 -82q0 -24 9 -43.5t24 -36.5t34 -31.5t38 -28.5q24 -17 47.5 -36t42 -42.5t30 -51.5t11.5 -64q0 -53 -20.5 -93.5t-55 -68.5t-79 -42.5t-91.5 -14.5q-53 0 -102 13.5t-87 48.5l40 75q29 -31 68 -45t82 -14
q28 0 55 7.5t47.5 23t33 38.5t12.5 54q0 24 -8.5 43t-22.5 36t-32 31.5t-38 29.5q-24 18 -47 37t-42 42t-30.5 51.5t-11.5 64.5q0 49 18.5 87.5t49.5 64.5t72.5 40t86.5 14q48 0 95 -13t83 -45zM357 745h-92l-91 135h65l77 -84l101 84h69z" />
    <glyph glyph-name="scaron" unicode="&#x161;" horiz-adv-x="364" 
d="M307 382q-19 19 -44 27.5t-54 8.5q-42 0 -64 -19t-22 -47q0 -29 21 -47t47 -35q17 -11 34.5 -24t32 -29t23.5 -36t9 -45q0 -36 -15 -64.5t-40 -47.5t-56 -29t-64 -10q-37 0 -75 9t-63 33l31 62q20 -20 47.5 -29.5t56.5 -9.5q18 0 35 4t30 13t21 22.5t8 31.5
q0 28 -19.5 47t-55.5 43q-16 11 -32 23t-28.5 26.5t-20 33t-7.5 41.5q0 32 12 59t34 46.5t53 30t68 10.5t69.5 -9t58.5 -31zM251 531h-92l-91 175h62l80 -124l105 124h65z" />
    <glyph glyph-name="Tcommaaccent" unicode="&#x162;" horiz-adv-x="571" 
d="M621 627h-223l-133 -627h-92l133 627h-233l16 79h548zM256 -70q0 -42 -23 -74.5t-57 -53.5h-61q30 26 51 55t21 71q0 19 -6 34h71q4 -13 4 -32z" />
    <glyph glyph-name="Tcommaaccent" unicode="&#x21a;" horiz-adv-x="571" 
d="M621 627h-223l-133 -627h-92l133 627h-233l16 79h548zM256 -70q0 -42 -23 -74.5t-57 -53.5h-61q30 26 51 55t21 71q0 19 -6 34h71q4 -13 4 -32z" />
    <glyph glyph-name="tcommaaccent" unicode="&#x163;" horiz-adv-x="307" 
d="M300 395h-122l-55 -260q-2 -8 -3.5 -17t-1.5 -17q0 -26 17 -38.5t43 -12.5q14 0 28 2.5t25 7.5v-61q-19 -7 -44 -10.5t-46 -3.5q-22 0 -42 5t-35 16.5t-24.5 29t-9.5 41.5q0 11 2 23.5t4 23.5l58 271h-84l14 61h82l21 102l91 28l-27 -130h123zM157 -70q0 -42 -23 -74.5
t-57 -53.5h-61q30 26 51 55t21 71q0 19 -6 34h71q4 -13 4 -32z" />
    <glyph glyph-name="tcommaaccent" unicode="&#x21b;" horiz-adv-x="307" 
d="M300 395h-122l-55 -260q-2 -8 -3.5 -17t-1.5 -17q0 -26 17 -38.5t43 -12.5q14 0 28 2.5t25 7.5v-61q-19 -7 -44 -10.5t-46 -3.5q-22 0 -42 5t-35 16.5t-24.5 29t-9.5 41.5q0 11 2 23.5t4 23.5l58 271h-84l14 61h82l21 102l91 28l-27 -130h123zM157 -70q0 -42 -23 -74.5
t-57 -53.5h-61q30 26 51 55t21 71q0 19 -6 34h71q4 -13 4 -32z" />
    <glyph glyph-name="Tcaron" unicode="&#x164;" horiz-adv-x="571" 
d="M621 627h-223l-133 -627h-92l133 627h-233l16 79h548zM416 745h-92l-91 135h65l77 -84l101 84h69z" />
    <glyph glyph-name="tcaron" unicode="&#x165;" horiz-adv-x="307" 
d="M300 395h-122l-55 -260q-2 -8 -3.5 -17t-1.5 -17q0 -26 17 -38.5t43 -12.5q14 0 28 2.5t25 7.5v-61q-19 -7 -44 -10.5t-46 -3.5q-22 0 -42 5t-35 16.5t-24.5 29t-9.5 41.5q0 11 2 23.5t4 23.5l58 271h-84l14 61h82l21 102l91 28l-27 -130h123zM412 708q0 -42 -23 -74.5
t-57 -53.5h-61q30 26 51 55t21 71q0 19 -6 34h71q4 -13 4 -32z" />
    <glyph glyph-name="Tbar" unicode="&#x166;" horiz-adv-x="571" 
d="M91 411h169l46 216h-233l16 79h548l-16 -79h-223l-46 -216h178l-15 -70h-178l-72 -341h-92l72 341h-169z" />
    <glyph glyph-name="tbar" unicode="&#x167;" horiz-adv-x="307" 
d="M139 209l-16 -74q-5 -17 -5 -34q0 -26 17 -38.5t43 -12.5q14 0 28 2.5t25 7.5v-61q-19 -7 -44 -10.5t-46 -3.5q-22 0 -42 5t-35 16.5t-24.5 29t-9.5 41.5q0 11 2 23.5t4 23.5l18 85h-73l13 62h72l28 124h-84l14 61h82l21 102l91 28l-27 -130h123l-14 -61h-122l-27 -124
h115l-12 -62h-115z" />
    <glyph glyph-name="Utilde" unicode="&#x168;" horiz-adv-x="727" 
d="M564 0h-80l18 87q-47 -49 -102.5 -76.5t-125.5 -27.5q-48 0 -88 13.5t-69.5 40t-45.5 65.5t-16 89q0 23 2.5 44.5t7.5 44.5l91 426h93l-92 -430q-8 -38 -8 -73q0 -37 12.5 -63.5t34 -44t51 -26t64.5 -8.5q44 0 84.5 16.5t72.5 46.5q21 19 31.5 36t16.5 46l107 500h92z
M633 884q-5 -23 -13 -44t-20.5 -37.5t-30.5 -26.5t-43 -10q-19 0 -37.5 8t-36 18t-35 18t-33.5 8q-26 0 -39.5 -20t-17.5 -40h-54q4 23 12 44t21 37.5t31 26.5t43 10q19 0 37.5 -8t36 -18t34.5 -18t34 -8q13 0 23 5.5t16.5 14.5t11 19.5t6.5 20.5h54z" />
    <glyph glyph-name="utilde" unicode="&#x169;" horiz-adv-x="515" 
d="M387 86q-3 -15 0 -24.5t17 -9.5q10 0 20 4l-4 -55q-11 -3 -25.5 -5.5t-29.5 -2.5q-62 0 -62 46q0 7 1 15.5t3 16.5l7 28q-18 -21 -38 -41t-43 -36t-48.5 -26t-53.5 -10q-48 0 -76.5 29t-29.5 77q0 17 2 33.5t6 33.5l65 305h85l-62 -292q-2 -11 -4 -23t-2 -23
q0 -33 16 -48.5t41 -15.5q19 0 38.5 10t37.5 25.5t34 34t28 35.5q14 20 18 41l55 256h85zM523 695q-5 -23 -13 -44t-20.5 -37.5t-30.5 -26.5t-43 -10q-19 0 -37.5 8t-36 18t-35 18t-33.5 8q-26 0 -39.5 -20t-17.5 -40h-54q4 23 12 44t21 37.5t31 26.5t43 10q19 0 37.5 -8
t36 -18t34.5 -18t34 -8q13 0 23 5.5t16.5 14.5t11 19.5t6.5 20.5h54z" />
    <glyph glyph-name="Umacron" unicode="&#x16a;" horiz-adv-x="727" 
d="M564 0h-80l18 87q-47 -49 -102.5 -76.5t-125.5 -27.5q-48 0 -88 13.5t-69.5 40t-45.5 65.5t-16 89q0 23 2.5 44.5t7.5 44.5l91 426h93l-92 -430q-8 -38 -8 -73q0 -37 12.5 -63.5t34 -44t51 -26t64.5 -8.5q44 0 84.5 16.5t72.5 46.5q21 19 31.5 36t16.5 46l107 500h92z
M587 818h-265l11 56h265z" />
    <glyph glyph-name="umacron" unicode="&#x16b;" horiz-adv-x="515" 
d="M387 86q-3 -15 0 -24.5t17 -9.5q10 0 20 4l-4 -55q-11 -3 -25.5 -5.5t-29.5 -2.5q-62 0 -62 46q0 7 1 15.5t3 16.5l7 28q-18 -21 -38 -41t-43 -36t-48.5 -26t-53.5 -10q-48 0 -76.5 29t-29.5 77q0 17 2 33.5t6 33.5l65 305h85l-62 -292q-2 -11 -4 -23t-2 -23
q0 -33 16 -48.5t41 -15.5q19 0 38.5 10t37.5 25.5t34 34t28 35.5q14 20 18 41l55 256h85zM438 641h-265l11 57h265z" />
    <glyph glyph-name="Ubreve" unicode="&#x16c;" horiz-adv-x="727" 
d="M564 0h-80l18 87q-47 -49 -102.5 -76.5t-125.5 -27.5q-48 0 -88 13.5t-69.5 40t-45.5 65.5t-16 89q0 23 2.5 44.5t7.5 44.5l91 426h93l-92 -430q-8 -38 -8 -73q0 -37 12.5 -63.5t34 -44t51 -26t64.5 -8.5q44 0 84.5 16.5t72.5 46.5q21 19 31.5 36t16.5 46l107 500h92z
M602 881q-11 -68 -54 -96.5t-107 -28.5q-29 0 -54.5 7t-44.5 22t-30 38.5t-9 57.5h49q2 -38 27 -55t66 -17q45 0 70 15t36 57h51z" />
    <glyph glyph-name="ubreve" unicode="&#x16d;" horiz-adv-x="515" 
d="M387 86q-3 -15 0 -24.5t17 -9.5q10 0 20 4l-4 -55q-11 -3 -25.5 -5.5t-29.5 -2.5q-62 0 -62 46q0 7 1 15.5t3 16.5l7 28q-18 -21 -38 -41t-43 -36t-48.5 -26t-53.5 -10q-48 0 -76.5 29t-29.5 77q0 17 2 33.5t6 33.5l65 305h85l-62 -292q-2 -11 -4 -23t-2 -23
q0 -33 16 -48.5t41 -15.5q19 0 38.5 10t37.5 25.5t34 34t28 35.5q14 20 18 41l55 256h85zM462 697q-11 -69 -54 -101.5t-107 -32.5q-29 0 -54.5 8.5t-44.5 25t-30 41.5t-9 59h49q2 -39 27 -60t66 -21q45 0 70 19.5t36 61.5h51z" />
    <glyph glyph-name="Uring" unicode="&#x16e;" horiz-adv-x="727" 
d="M564 0h-80l18 87q-47 -49 -102.5 -76.5t-125.5 -27.5q-48 0 -88 13.5t-69.5 40t-45.5 65.5t-16 89q0 23 2.5 44.5t7.5 44.5l91 426h93l-92 -430q-8 -38 -8 -73q0 -37 12.5 -63.5t34 -44t51 -26t64.5 -8.5q44 0 84.5 16.5t72.5 46.5q21 19 31.5 36t16.5 46l107 500h92z
M561 861q0 -25 -9 -46.5t-25 -38t-37.5 -26t-46.5 -9.5q-35 0 -60.5 20t-25.5 57q0 25 9 46.5t25 38t37.5 26t46.5 9.5q35 0 60.5 -20t25.5 -57zM514 856q0 20 -11.5 32.5t-32.5 12.5q-33 0 -49.5 -24.5t-16.5 -53.5q0 -21 11.5 -33t32.5 -12q33 0 49.5 24t16.5 54z" />
    <glyph glyph-name="uring" unicode="&#x16f;" horiz-adv-x="515" 
d="M387 86q-3 -15 0 -24.5t17 -9.5q10 0 20 4l-4 -55q-11 -3 -25.5 -5.5t-29.5 -2.5q-62 0 -62 46q0 7 1 15.5t3 16.5l7 28q-18 -21 -38 -41t-43 -36t-48.5 -26t-53.5 -10q-48 0 -76.5 29t-29.5 77q0 17 2 33.5t6 33.5l65 305h85l-62 -292q-2 -11 -4 -23t-2 -23
q0 -33 16 -48.5t41 -15.5q19 0 38.5 10t37.5 25.5t34 34t28 35.5q14 20 18 41l55 256h85zM413 665q0 -25 -9 -46.5t-25 -37.5t-37.5 -25.5t-46.5 -9.5q-35 0 -60.5 19.5t-25.5 57.5q0 24 9 46t25 38t37.5 25.5t46.5 9.5q35 0 60.5 -19.5t25.5 -57.5zM366 660q0 20 -11.5 33
t-32.5 13q-33 0 -49.5 -24.5t-16.5 -54.5q0 -20 11.5 -32t32.5 -12q33 0 49.5 24t16.5 53z" />
    <glyph glyph-name="Uhungarumlaut" unicode="&#x170;" horiz-adv-x="727" 
d="M564 0h-80l18 87q-47 -49 -102.5 -76.5t-125.5 -27.5q-48 0 -88 13.5t-69.5 40t-45.5 65.5t-16 89q0 23 2.5 44.5t7.5 44.5l91 426h93l-92 -430q-8 -38 -8 -73q0 -37 12.5 -63.5t34 -44t51 -26t64.5 -8.5q44 0 84.5 16.5t72.5 46.5q21 19 31.5 36t16.5 46l107 500h92z
M555 745h-70l130 135h98zM376 745h-69l129 135h99z" />
    <glyph glyph-name="uhungarumlaut" unicode="&#x171;" horiz-adv-x="515" 
d="M387 86q-3 -15 0 -24.5t17 -9.5q10 0 20 4l-4 -55q-11 -3 -25.5 -5.5t-29.5 -2.5q-62 0 -62 46q0 7 1 15.5t3 16.5l7 28q-18 -21 -38 -41t-43 -36t-48.5 -26t-53.5 -10q-48 0 -76.5 29t-29.5 77q0 17 2 33.5t6 33.5l65 305h85l-62 -292q-2 -11 -4 -23t-2 -23
q0 -33 16 -48.5t41 -15.5q19 0 38.5 10t37.5 25.5t34 34t28 35.5q14 20 18 41l55 256h85zM415 531h-66l130 175h98zM237 531h-66l129 175h99z" />
    <glyph glyph-name="Uogonek" unicode="&#x172;" horiz-adv-x="727" 
d="M565 -187q-38 -22 -84 -22q-32 0 -57.5 19.5t-25.5 55.5q0 42 24 74.5t63 66.5l17 80q-47 -49 -102.5 -76.5t-125.5 -27.5q-48 0 -88 13.5t-69.5 40t-45.5 65.5t-16 89q0 23 2.5 44.5t7.5 44.5l91 426h93l-92 -430q-8 -38 -8 -73q0 -37 12.5 -63.5t34 -44t51 -26
t64.5 -8.5q44 0 84.5 16.5t72.5 46.5q21 19 31.5 36t16.5 46l107 500h92l-151 -706h-30q-31 -30 -50 -54q-22 -27 -22 -59q0 -20 12 -31.5t33 -11.5q26 0 53 16z" />
    <glyph glyph-name="uogonek" unicode="&#x173;" horiz-adv-x="515" 
d="M397 -187q-38 -22 -84 -22q-32 0 -57.5 19.5t-25.5 55.5q0 42 24 75q23 31 62 65q-13 12 -13 33q0 7 1 15.5t3 16.5l7 28q-18 -21 -38 -41t-43 -36t-48.5 -26t-53.5 -10q-48 0 -76.5 29t-29.5 77q0 17 2 33.5t6 33.5l65 305h85l-62 -292q-2 -11 -4 -23t-2 -23
q0 -33 16 -48.5t41 -15.5q19 0 38.5 10t37.5 25.5t34 34t28 35.5q14 20 18 41l55 256h85l-81 -378q-3 -15 0 -24.5t17 -9.5q10 0 20 4l-4 -55q-11 -3 -25.5 -5.5t-29.5 -2.5h-6q-26 -26 -43 -47q-22 -27 -22 -59q0 -20 12 -31.5t33 -11.5q26 0 53 16z" />
    <glyph glyph-name="Wcircumflex" unicode="&#x174;" horiz-adv-x="832" 
d="M595 -2h-110l-38 364q-3 32 -5 71.5t-2 74.5h-1q-5 -14 -13 -32t-17 -37.5t-18 -39.5t-18 -37l-179 -364h-108l11 708h91l-13 -459q0 -20 -1 -42t-2 -42t-2 -37.5t-1 -29.5h1q11 29 30 71t39 84l174 358h103l29 -350q4 -45 6.5 -89t3.5 -76h2q3 11 10 30t15 42t17.5 48
t18.5 49l174 443h88zM588 745l-77 84l-101 -84h-69l129 135h92l91 -135h-65z" />
    <glyph glyph-name="wcircumflex" unicode="&#x175;" horiz-adv-x="645" 
d="M599 464q5 -18 8.5 -42.5t3.5 -49.5q0 -48 -14 -93t-40 -91t-63 -92.5t-83 -97.5h-89l-19 194q-20 -45 -54.5 -92t-81.5 -102h-89l-44 466h83l25 -292q2 -30 3.5 -55.5t1.5 -47.5h1q66 78 100 133.5t45 102.5l-15 159h83l25 -292q3 -30 4 -55.5t1 -47.5h1
q42 49 69.5 90.5t44.5 77.5t24 69t7 65q0 29 -3.5 51t-8.5 42h74zM436 531l-81 124l-105 -124h-65l129 175h92l91 -175h-61z" />
    <glyph glyph-name="Ycircumflex" unicode="&#x176;" horiz-adv-x="548" 
d="M308 268l-56 -268h-92l56 267l-127 439h105l87 -354l227 354h103zM453 745l-77 84l-101 -84h-69l129 135h92l91 -135h-65z" />
    <glyph glyph-name="ycircumflex" unicode="&#x177;" horiz-adv-x="409" 
d="M377 382q0 -47 -13 -89.5t-36 -85t-54.5 -87t-68.5 -94.5q-40 -55 -75 -99.5t-69.5 -76t-70 -49t-76.5 -17.5q-26 0 -50 6.5t-43 22.5l28 62q13 -13 30.5 -19t35.5 -6q48 0 91.5 42t93.5 109l-81 463h83l49 -296q5 -26 7.5 -46l5.5 -44h1q32 46 57.5 84t43.5 73.5
t27.5 71t9.5 74.5q0 23 -3.5 44t-8.5 39h75q5 -17 8 -40t3 -42zM300 531l-81 124l-105 -124h-65l129 175h92l91 -175h-61z" />
    <glyph glyph-name="Ydieresis" unicode="&#x178;" horiz-adv-x="548" 
d="M308 268l-56 -268h-92l56 267l-127 439h105l87 -354l227 354h103zM337 868q0 -23 -15 -39t-40 -16q-20 0 -31.5 10.5t-11.5 27.5q0 23 15 38.5t39 15.5q20 0 31.5 -10t12.5 -27zM519 868q0 -23 -15 -39t-39 -16q-20 0 -31.5 10.5t-12.5 27.5q0 23 15 38.5t40 15.5
q20 0 31.5 -10t11.5 -27z" />
    <glyph glyph-name="Zacute" unicode="&#x179;" horiz-adv-x="558" 
d="M563 632l-478 -553h384l-17 -79h-492l15 75l478 552h-357l17 79h466zM366 745h-70l127 155h99z" />
    <glyph glyph-name="zacute" unicode="&#x17a;" horiz-adv-x="401" 
d="M377 394l-304 -330h253l-12 -64h-348l15 68l308 333h-230l13 63h321zM262 531h-66l127 175h99z" />
    <glyph glyph-name="Zdotaccent" unicode="&#x17b;" horiz-adv-x="558" 
d="M563 632l-478 -553h384l-17 -79h-492l15 75l478 552h-357l17 79h466zM409 868q0 -23 -15 -39t-40 -16q-20 0 -31.5 10.5t-11.5 27.5q0 23 15 38.5t40 15.5q20 0 31 -10t12 -27z" />
    <glyph glyph-name="zdotaccent" unicode="&#x17c;" horiz-adv-x="401" 
d="M377 394l-304 -330h253l-12 -64h-348l15 68l308 333h-230l13 63h321zM302 687q0 -23 -15 -38.5t-40 -15.5q-20 0 -31.5 10.5t-11.5 27.5q0 23 15 38.5t40 15.5q20 0 31 -10.5t12 -27.5z" />
    <glyph glyph-name="Zcaron" unicode="&#x17d;" horiz-adv-x="558" 
d="M563 632l-478 -553h384l-17 -79h-492l15 75l478 552h-357l17 79h466zM392 745h-92l-91 135h65l77 -84l101 84h69z" />
    <glyph glyph-name="zcaron" unicode="&#x17e;" horiz-adv-x="401" 
d="M377 394l-304 -330h253l-12 -64h-348l15 68l308 333h-230l13 63h321zM278 531h-92l-91 175h62l80 -124l105 124h65z" />
    <glyph glyph-name="longs" unicode="&#x17f;" horiz-adv-x="238" 
d="M87 -21q-41 -194 -197 -194q-25 0 -49.5 6t-45.5 20l29 64q29 -26 67 -26q49 0 74 35.5t38 95.5l124 585q8 39 24.5 72.5t42.5 59t61.5 40t82.5 14.5q27 0 56 -6.5t52 -22.5l-33 -66q-31 26 -79 26q-31 0 -52 -10.5t-35 -27.5t-22.5 -39t-12.5 -44z" />
    <glyph glyph-name="florin" unicode="&#x192;" 
d="M178 273h-116l13 61h115l19 87q8 39 25 72.5t44 59t63.5 40t84.5 14.5q28 0 57 -6.5t52 -22.5l-33 -69q-32 26 -81 26q-32 0 -54 -10.5t-37 -27.5t-23.5 -39t-13.5 -44l-18 -80h154l-12 -61h-155l-37 -176q-20 -97 -70 -145t-127 -48q-25 0 -49.5 6t-45.5 20l29 65
q28 -25 67 -25q49 0 74.5 34.5t37.5 94.5z" />
    <glyph glyph-name="Aringacute" unicode="&#x1fa;" horiz-adv-x="620" 
d="M441 0l-24 182h-283l-100 -182h-94l395 708h104l97 -708h-95zM378 497q-2 12 -4 29l-3 35q-1 18 -2.5 33.5t-1.5 24.5h-2q-3 -8 -10.5 -23t-16 -32.5t-18 -35.5t-16.5 -32l-131 -240h236zM511 841q0 -25 -9 -46.5t-25 -38t-37.5 -26t-46.5 -9.5q-35 0 -60.5 20t-25.5 57
q0 25 9 46.5t25 38t37.5 26t46.5 9.5q35 0 60.5 -20t25.5 -57zM459 930h-70l127 155h99zM464 836q0 20 -11.5 32.5t-32.5 12.5q-33 0 -49.5 -24.5t-16.5 -53.5q0 -21 11.5 -33t32.5 -12q33 0 49.5 24t16.5 54z" />
    <glyph glyph-name="aringacute" unicode="&#x1fb;" horiz-adv-x="511" 
d="M382 86q-3 -15 -0.5 -24.5t16.5 -9.5q10 0 20 4l-3 -55q-11 -3 -25.5 -5.5t-29.5 -2.5q-63 0 -63 46q0 14 5 32l6 26q-15 -18 -35 -37.5t-43 -35.5t-47.5 -26.5t-49.5 -10.5q-36 0 -59.5 14.5t-37.5 37.5t-20 51.5t-6 57.5q0 57 16.5 115.5t49 106t81 77.5t113.5 30
q30 0 59.5 -9.5t45.5 -32.5l5 29h82zM352 344q4 19 -2 32.5t-18 22t-28.5 12.5t-32.5 4q-47 0 -79.5 -25t-53 -62.5t-30 -81t-9.5 -81.5q0 -43 15.5 -73t51.5 -30q19 0 38.5 10.5t37.5 26t33.5 33.5t27.5 34q8 11 12.5 20.5t7.5 21.5zM400 665q0 -25 -9 -46.5t-25 -37.5
t-37.5 -25.5t-46.5 -9.5q-35 0 -60.5 19.5t-25.5 57.5q0 24 9 46t25 38t37.5 25.5t46.5 9.5q35 0 60.5 -19.5t25.5 -57.5zM348 771h-66l127 175h99zM353 660q0 20 -11.5 33t-32.5 13q-33 0 -49.5 -24.5t-16.5 -54.5q0 -20 11.5 -32t32.5 -12q33 0 49.5 24t16.5 53z" />
    <glyph glyph-name="AEacute" unicode="&#x1fc;" horiz-adv-x="870" 
d="M850 627h-310l-11 -251h271l-15 -77h-259l-9 -220h266l-16 -79h-344l13 287h-217l-182 -287h-97l454 706h472zM439 641l-178 -280h178l12 280h-12zM553 745h-70l127 155h99z" />
    <glyph glyph-name="aeacute" unicode="&#x1fd;" horiz-adv-x="750" 
d="M716 338q0 -17 -3.5 -36t-9.5 -39l-312 -57q-2 -8 -3 -18t-1 -20q1 -55 32 -85.5t88 -30.5q37 0 70 12.5t59 31.5l20 -61q-32 -22 -74.5 -36t-93.5 -14q-72 0 -113 31.5t-55 87.5q-20 -24 -41.5 -45t-44.5 -37t-48 -25.5t-53 -9.5q-36 0 -59.5 14.5t-37.5 37.5t-20 51.5
t-6 57.5q0 57 16.5 115.5t49 106t81 77.5t113.5 30q55 0 89 -20.5t43 -49.5q30 32 71.5 52t95.5 20q28 0 54.5 -8t47 -25t33 -44t12.5 -64zM340 314q5 13 8.5 23.5t3.5 20.5q0 31 -25.5 44t-55.5 13q-47 0 -79.5 -25t-53 -62.5t-30 -81t-9.5 -81.5q0 -43 15.5 -73t51.5 -30
q19 0 38 9t36 23t31.5 30.5t25.5 31.5q8 11 11 23t5 29q2 20 8.5 48.5t18.5 57.5zM630 312q4 13 4 32q0 38 -22.5 56.5t-55.5 18.5q-31 0 -56 -12.5t-43.5 -33t-32 -47.5t-21.5 -56zM460 531h-66l127 175h99z" />
    <glyph glyph-name="Oslashacute" unicode="&#x1fe;" horiz-adv-x="711" 
d="M648 598q14 -28 21 -61.5t7 -71.5q0 -57 -11 -115t-32.5 -112t-54 -101t-75.5 -81.5t-97 -54.5t-118 -20q-66 0 -116 22.5t-82 64.5l-115 -110l-34 39l122 115q-28 55 -28 131q0 57 11 115t32.5 112t54 101t76 81.5t97 54.5t118.5 20t114 -22t82 -63l107 103l34 -39z
M581 455q0 39 -12 69l-409 -391q20 -33 53.5 -52t84.5 -19q75 0 129 38t88 96t50 127t16 132zM550 577q-20 32 -53 50.5t-83 18.5q-75 0 -129 -38t-88 -96t-50 -127t-16 -132q0 -36 11 -66zM438 745h-70l127 155h99z" />
    <glyph glyph-name="oslashacute" unicode="&#x1ff;" horiz-adv-x="494" 
d="M445 307q0 -56 -17.5 -114t-51 -104.5t-83 -76t-114.5 -29.5q-43 0 -76 13.5t-55 38.5l-80 -72l-31 35l85 76q-17 39 -17 83q0 57 17.5 114.5t51.5 104t84 76t115 29.5q45 0 78 -15t56 -42l83 77l31 -35l-90 -82q14 -36 14 -77zM96 189q-2 -26 3 -45l243 222
q-11 21 -30.5 33.5t-48.5 12.5q-42 0 -72.5 -21.5t-50.5 -54t-30.5 -72t-13.5 -75.5zM354 261q3 29 0 53l-243 -221q23 -40 78 -40q39 0 69 19.5t50.5 50t31.5 67t14 71.5zM311 531h-66l127 175h99z" />
    <glyph glyph-name="Scommaaccent" unicode="&#x218;" horiz-adv-x="492" 
d="M453 594q-27 29 -64 42t-77 13q-60 0 -96.5 -31t-36.5 -82q0 -24 9 -43.5t24 -36.5t34 -31.5t38 -28.5q24 -17 47.5 -36t42 -42.5t30 -51.5t11.5 -64q0 -53 -20.5 -93.5t-55 -68.5t-79 -42.5t-91.5 -14.5q-53 0 -102 13.5t-87 48.5l40 75q29 -31 68 -45t82 -14
q28 0 55 7.5t47.5 23t33 38.5t12.5 54q0 24 -8.5 43t-22.5 36t-32 31.5t-38 29.5q-24 18 -47 37t-42 42t-30.5 51.5t-11.5 64.5q0 49 18.5 87.5t49.5 64.5t72.5 40t86.5 14q48 0 95 -13t83 -45zM196 -70q0 -42 -23 -74.5t-57 -53.5h-61q30 26 51 55t21 71q0 19 -6 34h71
q4 -13 4 -32z" />
    <glyph glyph-name="scommaaccent" unicode="&#x219;" horiz-adv-x="364" 
d="M307 382q-19 19 -44 27.5t-54 8.5q-42 0 -64 -19t-22 -47q0 -29 21 -47t47 -35q17 -11 34.5 -24t32 -29t23.5 -36t9 -45q0 -36 -15 -64.5t-40 -47.5t-56 -29t-64 -10q-37 0 -75 9t-63 33l31 62q20 -20 47.5 -29.5t56.5 -9.5q18 0 35 4t30 13t21 22.5t8 31.5
q0 28 -19.5 47t-55.5 43q-16 11 -32 23t-28.5 26.5t-20 33t-7.5 41.5q0 32 12 59t34 46.5t53 30t68 10.5t69.5 -9t58.5 -31zM152 -70q0 -42 -23 -74.5t-57 -53.5h-61q30 26 51 55t21 71q0 19 -6 34h71q4 -13 4 -32z" />
    <glyph glyph-name="commaaccent.alt" unicode="&#x2bb;" 
d="M179 617q0 42 23 75t58 53h60q-29 -25 -50 -54.5t-21 -71.5q0 -19 6 -34h-72q-4 15 -4 32z" />
    <glyph glyph-name="commaaccent.alt" unicode="&#xe026;" 
d="M179 617q0 42 23 75t58 53h60q-29 -25 -50 -54.5t-21 -71.5q0 -19 6 -34h-72q-4 15 -4 32z" />
    <glyph glyph-name="commaaccent.alt" unicode="&#x312;" 
d="M179 617q0 42 23 75t58 53h60q-29 -25 -50 -54.5t-21 -71.5q0 -19 6 -34h-72q-4 15 -4 32z" />
    <glyph glyph-name="circumflex" unicode="&#x2c6;" 
d="M345 531l-81 124l-105 -124h-65l129 175h92l91 -175h-61z" />
    <glyph glyph-name="circumflex" unicode="&#x302;" 
d="M345 531l-81 124l-105 -124h-65l129 175h92l91 -175h-61z" />
    <glyph glyph-name="caron" unicode="&#x2c7;" 
d="M277 531h-92l-91 175h62l80 -124l105 124h65z" />
    <glyph glyph-name="caron" unicode="&#x30c;" 
d="M277 531h-92l-91 175h62l80 -124l105 124h65z" />
    <glyph glyph-name="breve" unicode="&#x2d8;" 
d="M400 697q-11 -69 -54 -101.5t-107 -32.5q-29 0 -54.5 8.5t-44.5 25t-30 41.5t-9 59h49q2 -39 27 -60t66 -21q45 0 70 19.5t36 61.5h51z" />
    <glyph glyph-name="breve" unicode="&#x306;" 
d="M400 697q-11 -69 -54 -101.5t-107 -32.5q-29 0 -54.5 8.5t-44.5 25t-30 41.5t-9 59h49q2 -39 27 -60t66 -21q45 0 70 19.5t36 61.5h51z" />
    <glyph glyph-name="dotaccent" unicode="&#x2d9;" 
d="M299 687q0 -23 -15 -38.5t-40 -15.5q-20 0 -31.5 10.5t-11.5 27.5q0 23 15 38.5t40 15.5q20 0 31 -10.5t12 -27.5z" />
    <glyph glyph-name="dotaccent" unicode="&#x307;" 
d="M299 687q0 -23 -15 -38.5t-40 -15.5q-20 0 -31.5 10.5t-11.5 27.5q0 23 15 38.5t40 15.5q20 0 31 -10.5t12 -27.5z" />
    <glyph glyph-name="ring" unicode="&#x2da;" 
d="M352 665q0 -25 -9 -46.5t-25 -37.5t-37.5 -25.5t-46.5 -9.5q-35 0 -60.5 19.5t-25.5 57.5q0 24 9 46t25 38t37.5 25.5t46.5 9.5q35 0 60.5 -19.5t25.5 -57.5zM305 660q0 20 -11.5 33t-32.5 13q-33 0 -49.5 -24.5t-16.5 -54.5q0 -20 11.5 -32t32.5 -12q33 0 49.5 24
t16.5 53z" />
    <glyph glyph-name="ring" unicode="&#x30a;" 
d="M352 665q0 -25 -9 -46.5t-25 -37.5t-37.5 -25.5t-46.5 -9.5q-35 0 -60.5 19.5t-25.5 57.5q0 24 9 46t25 38t37.5 25.5t46.5 9.5q35 0 60.5 -19.5t25.5 -57.5zM305 660q0 20 -11.5 33t-32.5 13q-33 0 -49.5 -24.5t-16.5 -54.5q0 -20 11.5 -32t32.5 -12q33 0 49.5 24
t16.5 53z" />
    <glyph glyph-name="ogonek" unicode="&#x2db;" 
d="M333 -187q-38 -22 -84 -22q-32 0 -57.5 19.5t-25.5 55.5q0 42 24 74.5t64 67.5h57q-37 -35 -59 -62t-22 -59q0 -20 12 -31.5t33 -11.5q26 0 53 16z" />
    <glyph glyph-name="ogonek" unicode="&#x328;" 
d="M333 -187q-38 -22 -84 -22q-32 0 -57.5 19.5t-25.5 55.5q0 42 24 74.5t64 67.5h57q-37 -35 -59 -62t-22 -59q0 -20 12 -31.5t33 -11.5q26 0 53 16z" />
    <glyph glyph-name="tilde" unicode="&#x2dc;" 
d="M430 695q-5 -23 -13 -44t-20.5 -37.5t-30.5 -26.5t-43 -10q-19 0 -37.5 8t-36 18t-35 18t-33.5 8q-26 0 -39.5 -20t-17.5 -40h-54q4 23 12 44t21 37.5t31 26.5t43 10q19 0 37.5 -8t36 -18t34.5 -18t34 -8q13 0 23 5.5t16.5 14.5t11 19.5t6.5 20.5h54z" />
    <glyph glyph-name="tilde" unicode="&#x303;" 
d="M430 695q-5 -23 -13 -44t-20.5 -37.5t-30.5 -26.5t-43 -10q-19 0 -37.5 8t-36 18t-35 18t-33.5 8q-26 0 -39.5 -20t-17.5 -40h-54q4 23 12 44t21 37.5t31 26.5t43 10q19 0 37.5 -8t36 -18t34.5 -18t34 -8q13 0 23 5.5t16.5 14.5t11 19.5t6.5 20.5h54z" />
    <glyph glyph-name="hungarumlaut" unicode="&#x2dd;" 
d="M291 531h-66l130 175h98zM113 531h-66l129 175h99z" />
    <glyph glyph-name="hungarumlaut" unicode="&#x30b;" 
d="M291 531h-66l130 175h98zM113 531h-66l129 175h99z" />
    <glyph glyph-name="caronSlovak" unicode="&#x315;" 
d="M320 708q0 -42 -23 -74.5t-57 -53.5h-61q30 26 51 55t21 71q0 19 -6 34h71q4 -13 4 -32z" />
    <glyph glyph-name="caronSlovak" unicode="&#xe01e;" 
d="M320 708q0 -42 -23 -74.5t-57 -53.5h-61q30 26 51 55t21 71q0 19 -6 34h71q4 -13 4 -32z" />
    <glyph glyph-name="commaaccent" unicode="&#x326;" 
d="M320 -70q0 -42 -23 -74.5t-57 -53.5h-61q30 26 51 55t21 71q0 19 -6 34h71q4 -13 4 -32z" />
    <glyph glyph-name="pi" unicode="&#x3c0;" horiz-adv-x="536" 
d="M452 396l-84 -396h-84l84 396h-166q-13 -59 -26.5 -110t-28.5 -98.5t-32 -93.5t-36 -94h-85q21 51 38.5 97.5t32 93.5t27.5 96.5t25 108.5h-81l15 68h492l-14 -68h-77z" />
    <glyph glyph-name="Wgrave" unicode="&#x1e80;" horiz-adv-x="832" 
d="M595 -2h-110l-38 364q-3 32 -5 71.5t-2 74.5h-1q-5 -14 -13 -32t-17 -37.5t-18 -39.5t-18 -37l-179 -364h-108l11 708h91l-13 -459q0 -20 -1 -42t-2 -42t-2 -37.5t-1 -29.5h1q11 29 30 71t39 84l174 358h103l29 -350q4 -45 6.5 -89t3.5 -76h2q3 11 10 30t15 42t17.5 48
t18.5 49l174 443h88zM447 745l-120 135h94l90 -135h-64z" />
    <glyph glyph-name="wgrave" unicode="&#x1e81;" horiz-adv-x="645" 
d="M599 464q5 -18 8.5 -42.5t3.5 -49.5q0 -48 -14 -93t-40 -91t-63 -92.5t-83 -97.5h-89l-19 194q-20 -45 -54.5 -92t-81.5 -102h-89l-44 466h83l25 -292q2 -30 3.5 -55.5t1.5 -47.5h1q66 78 100 133.5t45 102.5l-15 159h83l25 -292q3 -30 4 -55.5t1 -47.5h1
q42 49 69.5 90.5t44.5 77.5t24 69t7 65q0 29 -3.5 51t-8.5 42h74zM295 531l-123 175h94l90 -175h-61z" />
    <glyph glyph-name="Wacute" unicode="&#x1e82;" horiz-adv-x="832" 
d="M595 -2h-110l-38 364q-3 32 -5 71.5t-2 74.5h-1q-5 -14 -13 -32t-17 -37.5t-18 -39.5t-18 -37l-179 -364h-108l11 708h91l-13 -459q0 -20 -1 -42t-2 -42t-2 -37.5t-1 -29.5h1q11 29 30 71t39 84l174 358h103l29 -350q4 -45 6.5 -89t3.5 -76h2q3 11 10 30t15 42t17.5 48
t18.5 49l174 443h88zM524 745h-70l127 155h99z" />
    <glyph glyph-name="wacute" unicode="&#x1e83;" horiz-adv-x="645" 
d="M599 464q5 -18 8.5 -42.5t3.5 -49.5q0 -48 -14 -93t-40 -91t-63 -92.5t-83 -97.5h-89l-19 194q-20 -45 -54.5 -92t-81.5 -102h-89l-44 466h83l25 -292q2 -30 3.5 -55.5t1.5 -47.5h1q66 78 100 133.5t45 102.5l-15 159h83l25 -292q3 -30 4 -55.5t1 -47.5h1
q42 49 69.5 90.5t44.5 77.5t24 69t7 65q0 29 -3.5 51t-8.5 42h74zM358 531h-66l127 175h99z" />
    <glyph glyph-name="Wdieresis" unicode="&#x1e84;" horiz-adv-x="832" 
d="M595 -2h-110l-38 364q-3 32 -5 71.5t-2 74.5h-1q-5 -14 -13 -32t-17 -37.5t-18 -39.5t-18 -37l-179 -364h-108l11 708h91l-13 -459q0 -20 -1 -42t-2 -42t-2 -37.5t-1 -29.5h1q11 29 30 71t39 84l174 358h103l29 -350q4 -45 6.5 -89t3.5 -76h2q3 11 10 30t15 42t17.5 48
t18.5 49l174 443h88zM480 868q0 -23 -15 -39t-40 -16q-20 0 -31.5 10.5t-11.5 27.5q0 23 15 38.5t39 15.5q20 0 31.5 -10t12.5 -27zM662 868q0 -23 -15 -39t-39 -16q-20 0 -31.5 10.5t-12.5 27.5q0 23 15 38.5t40 15.5q20 0 31.5 -10t11.5 -27z" />
    <glyph glyph-name="wdieresis" unicode="&#x1e85;" horiz-adv-x="645" 
d="M599 464q5 -18 8.5 -42.5t3.5 -49.5q0 -48 -14 -93t-40 -91t-63 -92.5t-83 -97.5h-89l-19 194q-20 -45 -54.5 -92t-81.5 -102h-89l-44 466h83l25 -292q2 -30 3.5 -55.5t1.5 -47.5h1q66 78 100 133.5t45 102.5l-15 159h83l25 -292q3 -30 4 -55.5t1 -47.5h1
q42 49 69.5 90.5t44.5 77.5t24 69t7 65q0 29 -3.5 51t-8.5 42h74zM321 687q0 -23 -15 -38.5t-40 -15.5q-20 0 -31.5 10.5t-11.5 27.5q0 23 15 38.5t39 15.5q20 0 31.5 -10.5t12.5 -27.5zM503 687q0 -23 -15 -38.5t-39 -15.5q-20 0 -31.5 10.5t-12.5 27.5q0 23 15 38.5
t40 15.5q20 0 31.5 -10.5t11.5 -27.5z" />
    <glyph glyph-name="Ygrave" unicode="&#x1ef2;" horiz-adv-x="548" 
d="M308 268l-56 -268h-92l56 267l-127 439h105l87 -354l227 354h103zM330 745l-120 135h94l90 -135h-64z" />
    <glyph glyph-name="ygrave" unicode="&#x1ef3;" horiz-adv-x="409" 
d="M377 382q0 -47 -13 -89.5t-36 -85t-54.5 -87t-68.5 -94.5q-40 -55 -75 -99.5t-69.5 -76t-70 -49t-76.5 -17.5q-26 0 -50 6.5t-43 22.5l28 62q13 -13 30.5 -19t35.5 -6q48 0 91.5 42t93.5 109l-81 463h83l49 -296q5 -26 7.5 -46l5.5 -44h1q32 46 57.5 84t43.5 73.5
t27.5 71t9.5 74.5q0 23 -3.5 44t-8.5 39h75q5 -17 8 -40t3 -42zM175 531l-123 175h94l90 -175h-61z" />
    <glyph glyph-name="endash" unicode="&#x2013;" 
d="M462 201h-480l14 68h481z" />
    <glyph glyph-name="emdash" unicode="&#x2014;" horiz-adv-x="1000" 
d="M962 201h-980l14 68h981z" />
    <glyph glyph-name="longdash" unicode="&#x2015;" horiz-adv-x="1500" 
d="M1462 201h-1480l14 68h1481z" />
    <glyph glyph-name="quoteleft" unicode="&#x2018;" horiz-adv-x="268" 
d="M309 740q-22 -22 -42.5 -46t-36 -50.5t-25 -55.5t-9.5 -62q0 -18 3 -36h-82q-1 7 -1 13v14q0 69 35.5 126.5t87.5 96.5h70z" />
    <glyph glyph-name="quoteright" unicode="&#x2019;" horiz-adv-x="268" 
d="M262 713q0 -69 -35.5 -126t-87.5 -97h-70q22 22 42.5 46t36 50.5t25 56t9.5 62.5q0 8 -0.5 17t-2.5 18h82q1 -7 1 -13.5v-13.5z" />
    <glyph glyph-name="quotesinglbase" unicode="&#x201a;" horiz-adv-x="268" 
d="M126 83q0 -69 -36 -126.5t-88 -96.5h-69q22 22 42 46t35.5 50.5t25 55.5t9.5 62v18t-2 18h82q1 -7 1 -13.5v-13.5z" />
    <glyph glyph-name="quotedblleft" unicode="&#x201c;" horiz-adv-x="457" 
d="M495 740q-22 -22 -42.5 -46t-36 -50.5t-24.5 -55.5t-9 -62v-18q0 -9 2 -18h-82q-1 7 -1 13v14q0 34 9.5 66t26.5 60.5t39 52.5t48 44h70zM306 740q-22 -22 -42.5 -46t-36 -50.5t-24.5 -55.5t-9 -62v-18q0 -9 2 -18h-82q-1 7 -1 13v14q0 34 9.5 66t26.5 60.5t39 52.5
t48 44h70z" />
    <glyph glyph-name="quotedblright" unicode="&#x201d;" horiz-adv-x="457" 
d="M460 713q0 -34 -10 -65.5t-26.5 -60t-39.5 -53t-48 -44.5h-70q22 22 42.5 46t36 50.5t25 56t9.5 62.5q0 17 -3 35h82q2 -7 2 -13.5v-13.5zM271 713q0 -34 -10 -65.5t-26.5 -60t-39.5 -53t-48 -44.5h-70q22 22 42.5 46t36 50.5t25 56t9.5 62.5q0 17 -3 35h82q2 -7 2 -13.5
v-13.5z" />
    <glyph glyph-name="quotedblbase" unicode="&#x201e;" horiz-adv-x="457" 
d="M319 83q0 -69 -36 -126.5t-88 -96.5h-70q22 22 42.5 46t36 50.5t25 55.5t9.5 62v18t-2 18h82q1 -7 1 -13.5v-13.5zM130 83q0 -69 -36 -126.5t-88 -96.5h-70q22 22 42.5 46t36 50.5t25 55.5t9.5 62v18t-2 18h82q1 -7 1 -13.5v-13.5z" />
    <glyph glyph-name="dagger" unicode="&#x2020;" horiz-adv-x="537" 
d="M515 391h-198q-10 -45 -22 -99.5t-24.5 -110.5t-24.5 -110t-22 -98t-17 -74.5t-9 -38.5h-72q2 9 8 39.5t15 74.5t19.5 98t21.5 110t22 110t20 99h-196l14 68h197q6 30 15 69.5t18 76.5t16 65l9 36h72q-2 -9 -7 -37.5t-11.5 -65.5t-14 -75.5t-13.5 -68.5h197z" />
    <glyph glyph-name="daggerdbl" unicode="&#x2021;" horiz-adv-x="537" 
d="M522 406h-198l-53 -246h197l-13 -68h-199q-6 -30 -15 -67.5t-17 -71t-14.5 -59.5l-8.5 -34h-71q1 9 6 35t11 60t13 70.5t13 66.5h-198l14 68h197l53 246h-197l14 68h198q6 30 14.5 67.5t17 71t14.5 59.5t8 34h72q-2 -9 -6.5 -35t-10.5 -60t-13 -70.5t-13 -66.5h198z" />
    <glyph glyph-name="bullet" unicode="&#x2022;" horiz-adv-x="279" 
d="M234 266q0 -30 -10 -57.5t-28 -48.5t-44 -34t-57 -13q-21 0 -39.5 7t-32.5 19.5t-22 30t-8 39.5q0 29 10 56.5t28 48.5t43.5 33.5t57.5 12.5q20 0 38.5 -6.5t32.5 -18.5t22.5 -29.5t8.5 -39.5z" />
    <glyph glyph-name="ellipsis" unicode="&#x2026;" horiz-adv-x="1000" 
d="M793 60q0 -28 -17 -47t-46 -19q-22 0 -36.5 12.5t-14.5 35.5q0 26 17 45.5t46 19.5q22 0 36.5 -12.5t14.5 -34.5zM493 60q0 -28 -17 -47t-46 -19q-22 0 -36.5 12.5t-14.5 35.5q0 26 17 45.5t46 19.5q22 0 36.5 -12.5t14.5 -34.5zM193 60q0 -28 -17 -47t-46 -19
q-22 0 -36.5 12.5t-14.5 35.5q0 26 17 45.5t46 19.5q22 0 36.5 -12.5t14.5 -34.5z" />
    <glyph glyph-name="perthousand" unicode="&#x2030;" horiz-adv-x="1242" 
d="M371 566q0 -48 -10.5 -105.5t-35.5 -108t-65 -84t-99 -33.5q-36 0 -60.5 11.5t-40 31.5t-22.5 48.5t-7 62.5q0 48 10.5 105.5t35.5 108t65 84t98 33.5q36 0 60.5 -11.5t40.5 -32t23 -48.5t7 -62zM298 572q0 14 -3 29.5t-10.5 28.5t-19.5 21t-30 8q-25 0 -44.5 -15.5
t-34 -40t-25 -55t-16.5 -61.5t-9 -58.5t-3 -46.5q0 -14 3 -29.5t10.5 -28t19.5 -21t30 -8.5q25 0 44.5 15.5t34 40t25 55.5t16.5 61.5t9 58.5t3 46zM190 0h-79l560 706h80zM833 319q0 -48 -10.5 -105.5t-35.5 -108t-65 -84t-99 -33.5q-36 0 -60.5 11.5t-40 31.5t-22.5 48.5
t-7 62.5q0 48 10.5 105.5t35.5 108t65 84t98 33.5q36 0 60.5 -11.5t40.5 -32t23 -48.5t7 -62zM760 325q0 14 -3 29.5t-10.5 28.5t-19.5 21t-30 8q-25 0 -44.5 -15.5t-34 -40t-25 -55t-16.5 -61.5t-9 -58.5t-3 -46.5q0 -14 3 -29.5t10.5 -28t19.5 -21t30 -8.5q25 0 44.5 15.5
t34 40t25 55.5t16.5 61.5t9 58.5t3 46zM1206 319q0 -48 -10.5 -105.5t-35.5 -108t-65 -84t-99 -33.5q-36 0 -60.5 11.5t-40 31.5t-22.5 48.5t-7 62.5q0 48 10.5 105.5t35.5 108t65 84t98 33.5q36 0 60.5 -11.5t40.5 -32t23 -48.5t7 -62zM1133 325q0 14 -3 29.5t-10.5 28.5
t-19.5 21t-30 8q-25 0 -44.5 -15.5t-34 -40t-25 -55t-16.5 -61.5t-9 -58.5t-3 -46.5q0 -14 3 -29.5t10.5 -28t19.5 -21t30 -8.5q25 0 44.5 15.5t34 40t25 55.5t16.5 61.5t9 58.5t3 46z" />
    <glyph glyph-name="guilsinglleft" unicode="&#x2039;" horiz-adv-x="263" 
d="M81 229l87 -194h-64l-113 196l175 192h76z" />
    <glyph glyph-name="guilsinglright" unicode="&#x203a;" horiz-adv-x="263" 
d="M144 229l-87 194h64l113 -196l-175 -192h-76z" />
    <glyph glyph-name="fraction" unicode="&#x2044;" horiz-adv-x="268" 
d="M-76 0h-79l560 706h80z" />
    <glyph glyph-name="zerosuperior" unicode="&#x2070;" horiz-adv-x="356" 
d="M380 612q0 -48 -10.5 -105.5t-35.5 -108t-65 -84t-99 -33.5q-36 0 -60.5 11.5t-40 31.5t-22.5 48.5t-7 62.5q0 48 10.5 105.5t35.5 108t65 84t98 33.5q36 0 60.5 -11.5t40.5 -32t23 -48.5t7 -62zM307 618q0 14 -3 29.5t-10.5 28.5t-19.5 21t-30 8q-25 0 -44.5 -15.5
t-34 -40t-25 -55t-16.5 -61.5t-9 -58.5t-3 -46.5q0 -14 3 -29.5t10.5 -28t19.5 -21t30 -8.5q25 0 44.5 15.5t34 40t25 55.5t16.5 61.5t9 58.5t3 46z" />
    <glyph glyph-name="foursuperior" unicode="&#x2074;" horiz-adv-x="356" 
d="M362 394h-60l-23 -101h-71l22 101h-204l13 66l239 292h98l-63 -301h60zM289 680q-8 -11 -20 -28.5t-26 -35.5l-138 -165h136l49 229h-1z" />
    <glyph glyph-name="fivesuperior" unicode="&#x2075;" horiz-adv-x="356" 
d="M371 691h-165l-31 -108q5 1 7 0.5t6 -0.5q32 0 60 -9t49 -26.5t33 -43t12 -59.5q0 -40 -15 -71t-40.5 -51t-58.5 -30.5t-70 -10.5q-35 0 -67.5 9.5t-57.5 27.5l33 60q17 -16 41.5 -27t52.5 -11q46 0 75 26.5t29 69.5q0 49 -33 69.5t-86 20.5h-49l64 225h225z" />
    <glyph glyph-name="sixsuperior" unicode="&#x2076;" horiz-adv-x="356" 
d="M369 690q-31 13 -61 13q-38 0 -66 -14t-48 -36.5t-32.5 -52t-20.5 -61.5q23 20 48 28.5t53 8.5q56 0 89 -34.5t33 -88.5q0 -39 -12.5 -70.5t-35 -54t-53 -34.5t-66.5 -12q-66 0 -104 41t-38 110q0 53 14 111.5t44.5 107.5t79 81t116.5 32q44 0 81 -12zM293 443
q0 33 -20.5 55t-58.5 22q-21 0 -39 -9t-29 -21q-14 -15 -16.5 -29.5t-2.5 -34.5q0 -34 19 -60t57 -26q42 0 66 29.5t24 73.5z" />
    <glyph glyph-name="sevensuperior" unicode="&#x2077;" horiz-adv-x="356" 
d="M403 683q-51 -67 -93 -123t-75 -104q-19 -28 -33.5 -50.5t-24 -42t-15.5 -36.5t-9 -34h-83q8 37 29 78t61 95l164 223h-233l12 63h313z" />
    <glyph glyph-name="eightsuperior" unicode="&#x2078;" horiz-adv-x="356" 
d="M373 664q0 -25 -8.5 -44.5t-23 -34.5t-33.5 -26t-40 -21q32 -22 55 -47.5t23 -66.5q0 -36 -14 -63t-37.5 -44.5t-54 -26.5t-63.5 -9q-25 0 -50 6.5t-45 20t-32 34.5t-12 49q0 29 9.5 51t25.5 39t37.5 30t45.5 25q-26 18 -44.5 42t-18.5 56q0 33 13 58t34 41.5t48.5 24.5
t56.5 8q24 0 47 -6t41 -18t29 -31.5t11 -46.5zM308 658q0 27 -21 42t-47 15q-15 0 -28.5 -5t-24.5 -14t-17.5 -22t-6.5 -28q0 -26 18 -44.5t41 -33.5q16 8 31.5 16.5t27.5 19.5t19.5 24.5t7.5 29.5zM274 413q0 32 -23 54t-49 38q-18 -9 -35 -19t-30.5 -22.5t-21.5 -28.5
t-8 -37q0 -32 24.5 -48t54.5 -16q35 0 61.5 20.5t26.5 58.5z" />
    <glyph glyph-name="ninesuperior" unicode="&#x2079;" horiz-adv-x="356" 
d="M65 356q31 -13 61 -13q38 0 66 14t48 36.5t33 52.5t20 61q-23 -20 -48 -28.5t-53 -8.5q-56 0 -89 34.5t-33 88.5q0 39 12.5 70.5t35 54t53 34.5t66.5 12q66 0 104 -41t38 -110q0 -53 -14 -111.5t-44.5 -107.5t-79 -81t-116.5 -32q-43 0 -81 12zM141 603q0 -33 20.5 -55
t58.5 -22q21 0 39 9t29 21q14 15 16.5 29.5t2.5 34.5q0 34 -19 60t-57 26q-42 0 -66 -29.5t-24 -73.5z" />
    <glyph glyph-name="plussuperior" unicode="&#x207a;" horiz-adv-x="356" 
d="M248 507v-126h-67v126h-128v70h127v127h67v-127h129v-70h-128z" />
    <glyph glyph-name="minussuperior" unicode="&#x207b;" horiz-adv-x="356" 
d="M53 507v70h323v-70h-323z" />
    <glyph glyph-name="equalsuperior" unicode="&#x207c;" horiz-adv-x="356" 
d="M50 591v69h324v-69h-324zM50 425v69h324v-69h-324z" />
    <glyph glyph-name="parenleftsuperior" unicode="&#x207d;" horiz-adv-x="210" 
d="M302 808q-78 -76 -119.5 -167.5t-41.5 -210.5q0 -51 10 -99t33 -95h-59q-24 43 -38.5 97.5t-14.5 114.5q0 51 10.5 101t31.5 96.5t51.5 88t70.5 74.5h66z" />
    <glyph glyph-name="parenrightsuperior" unicode="&#x207e;" horiz-adv-x="210" 
d="M-27 236q78 76 119.5 167.5t41.5 210.5q0 102 -43 194h59q24 -43 38 -97.5t14 -114.5q0 -51 -10.5 -101t-31.5 -96.5t-51.5 -88t-69.5 -74.5h-66z" />
    <glyph glyph-name="zeroinferior" unicode="&#x2080;" horiz-adv-x="356" 
d="M295 211q0 -48 -10.5 -105.5t-35.5 -108t-65 -84t-99 -33.5q-36 0 -60.5 11.5t-40 31.5t-22.5 48.5t-7 62.5q0 48 10.5 105.5t35.5 108t65 84t98 33.5q36 0 60.5 -11.5t40.5 -32t23 -48.5t7 -62zM222 217q0 14 -3 29.5t-10.5 28.5t-19.5 21t-30 8q-25 0 -44.5 -15.5
t-34 -40t-25 -55t-16.5 -61.5t-9 -58.5t-3 -46.5q0 -14 3 -29.5t10.5 -28t19.5 -21t30 -8.5q25 0 44.5 15.5t34 40t25 55.5t16.5 61.5t9 58.5t3 46z" />
    <glyph glyph-name="oneinferior" unicode="&#x2081;" horiz-adv-x="297" 
d="M93 -108h-74l81 378q-24 -16 -56.5 -30t-60.5 -24l-16 58q36 14 78 34t79 43h66z" />
    <glyph glyph-name="twoinferior" unicode="&#x2082;" horiz-adv-x="356" 
d="M271 243q0 -34 -12 -60.5t-31.5 -48t-44 -39t-49.5 -34.5q-34 -23 -66 -49t-41 -56h199l-12 -64h-283l11 55q7 25 21.5 46.5t34 40.5t42 35t43.5 30q17 11 36.5 24.5t36 29t27.5 34.5t11 42q0 32 -22 51t-55 19q-27 0 -52 -13t-42 -33l-24 58q29 26 62.5 39.5t75.5 13.5
q26 0 50.5 -8t43 -23t29.5 -37.5t11 -52.5z" />
    <glyph glyph-name="threeinferior" unicode="&#x2083;" horiz-adv-x="356" 
d="M259 254q0 -44 -28 -73t-70 -43v-1q36 -11 55.5 -36.5t19.5 -59.5q0 -37 -14.5 -66.5t-40 -50.5t-59 -32t-71.5 -11q-35 0 -67.5 9.5t-57.5 27.5l33 60q16 -14 40 -26t52 -12q45 0 75.5 25t30.5 72q0 34 -26 51.5t-64 17.5h-42l12 57h39q18 0 37 4t34.5 13t25.5 23.5
t10 35.5q0 30 -22 46t-51 16q-28 0 -51.5 -10t-41.5 -27l-18 59q29 21 61 30.5t70 9.5q24 0 47 -6.5t41.5 -20t29.5 -34t11 -48.5z" />
    <glyph glyph-name="fourinferior" unicode="&#x2084;" horiz-adv-x="356" 
d="M263 -7h-60l-23 -101h-71l22 101h-204l13 66l239 292h98l-63 -301h60zM190 279q-8 -11 -20 -28.5t-26 -35.5l-138 -165h136l49 229h-1z" />
    <glyph glyph-name="fiveinferior" unicode="&#x2085;" horiz-adv-x="356" 
d="M272 290h-165l-31 -108q5 1 7 0.5t6 -0.5q32 0 60 -9t49 -26.5t33 -43t12 -59.5q0 -40 -15 -71t-40.5 -51t-58.5 -30.5t-70 -10.5q-35 0 -67.5 9.5t-57.5 27.5l33 60q17 -16 41.5 -27t52.5 -11q46 0 75 26.5t29 69.5q0 49 -33 69.5t-86 20.5h-49l64 225h225z" />
    <glyph glyph-name="sixinferior" unicode="&#x2086;" horiz-adv-x="356" 
d="M270 289q-31 13 -61 13q-38 0 -66 -14t-48 -36.5t-32.5 -52t-20.5 -61.5q23 20 48 28.5t53 8.5q56 0 89 -34.5t33 -88.5q0 -39 -12.5 -70.5t-35 -54t-53 -34.5t-66.5 -12q-66 0 -104 41t-38 110q0 53 14 111.5t44.5 107.5t79 81t116.5 32q44 0 81 -12zM194 42
q0 33 -20.5 55t-58.5 22q-21 0 -39 -9t-29 -21q-14 -15 -16.5 -29.5t-2.5 -34.5q0 -34 19 -60t57 -26q42 0 66 29.5t24 73.5z" />
    <glyph glyph-name="seveninferior" unicode="&#x2087;" horiz-adv-x="356" 
d="M304 282q-51 -67 -93 -123t-75 -104q-19 -28 -33.5 -50.5t-24 -42t-15.5 -36.5t-9 -34h-83q8 37 29 78t61 95l164 223h-233l12 63h313z" />
    <glyph glyph-name="eightinferior" unicode="&#x2088;" horiz-adv-x="356" 
d="M274 263q0 -25 -8.5 -44.5t-23 -34.5t-33.5 -26t-40 -21q32 -22 55 -47.5t23 -66.5q0 -36 -14 -63t-37.5 -44.5t-54 -26.5t-63.5 -9q-25 0 -50 6.5t-45 20t-32 34.5t-12 49q0 29 9.5 51t25.5 39t37.5 30t45.5 25q-26 18 -44.5 42t-18.5 56q0 33 13 58t34 41.5t48.5 24.5
t56.5 8q24 0 47 -6t41 -18t29 -31.5t11 -46.5zM209 257q0 27 -21 42t-47 15q-15 0 -28.5 -5t-24.5 -14t-17.5 -22t-6.5 -28q0 -26 18 -44.5t41 -33.5q16 8 31.5 16.5t27.5 19.5t19.5 24.5t7.5 29.5zM175 12q0 32 -23 54t-49 38q-18 -9 -35 -19t-30.5 -22.5t-21.5 -28.5
t-8 -37q0 -32 24.5 -48t54.5 -16q35 0 61.5 20.5t26.5 58.5z" />
    <glyph glyph-name="nineinferior" unicode="&#x2089;" horiz-adv-x="356" 
d="M-34 -45q31 -13 61 -13q38 0 66 14t48 36.5t33 52.5t20 61q-23 -20 -48 -28.5t-53 -8.5q-56 0 -89 34.5t-33 88.5q0 39 12.5 70.5t35 54t53 34.5t66.5 12q66 0 104 -41t38 -110q0 -53 -14 -111.5t-44.5 -107.5t-79 -81t-116.5 -32q-43 0 -81 12zM42 202q0 -33 20.5 -55
t58.5 -22q21 0 39 9t29 21q14 15 16.5 29.5t2.5 34.5q0 34 -19 60t-57 26q-42 0 -66 -29.5t-24 -73.5z" />
    <glyph glyph-name="parenleftinferior" unicode="&#x208d;" horiz-adv-x="210" 
d="M203 407q-78 -76 -119.5 -167.5t-41.5 -210.5q0 -51 10 -99t33 -95h-59q-24 43 -38.5 97.5t-14.5 114.5q0 51 10.5 101t31.5 96.5t51.5 88t70.5 74.5h66z" />
    <glyph glyph-name="parenrightinferior" unicode="&#x208e;" horiz-adv-x="210" 
d="M-126 -165q78 76 119.5 167.5t41.5 210.5q0 102 -43 194h59q24 -43 38 -97.5t14 -114.5q0 -51 -10.5 -101t-31.5 -96.5t-51.5 -88t-69.5 -74.5h-66z" />
    <glyph glyph-name="Euro" unicode="&#x20ac;" 
d="M489 492q-47 44 -113 44q-36 0 -65.5 -11t-54 -30t-43 -44.5t-31.5 -55.5h248l-12 -60h-257q-5 -20 -7.5 -39t-3.5 -38h250l-12 -61h-237q7 -70 39 -106t98 -36q38 0 67 12t53 32l20 -63q-67 -53 -165 -53q-88 0 -138 55.5t-58 158.5h-71l12 61h58q1 20 3.5 38.5
t7.5 38.5h-52l12 60h58q18 45 45 84t62 67.5t78 44.5t93 16q51 0 86 -13t66 -36z" />
    <glyph glyph-name="litre" unicode="&#x2113;" horiz-adv-x="462" 
d="M11 222q22 10 42.5 20.5t39.5 22.5q3 20 7 42.5t9 46.5q42 195 106 296t148 101q56 0 79 -42t7 -115q-22 -107 -96 -197.5t-182 -159.5q-8 -84 11.5 -129t69.5 -45q27 0 50.5 10.5t43.5 29.5l14 -67q-29 -23 -63.5 -37t-74.5 -14q-70 0 -103 52.5t-31 150.5
q-31 -16 -61 -29zM342 677q-35 0 -72 -66t-69 -203q-5 -20 -9 -40t-8 -42q72 54 120 119.5t65 145.5q8 36 3 61t-30 25z" />
    <glyph glyph-name="numero" unicode="&#x2116;" horiz-adv-x="990" 
d="M395 0l-153 317q-17 36 -29.5 67t-17.5 47h-2l-93 -431h-82l125 589h79l142 -313q20 -45 32.5 -75.5t21.5 -53.5h2l95 442h82l-125 -589h-77zM607 111l13 57h279l-13 -57h-279zM969 475q0 -42 -13 -84.5t-38 -76t-61.5 -54.5t-83.5 -21q-61 0 -95 35t-34 96q0 42 13 84.5
t38 76.5t61.5 55t83.5 21q61 0 95 -35t34 -97zM898 469q0 35 -15.5 59t-50.5 24q-31 0 -53 -18t-36.5 -45t-21 -57.5t-6.5 -55.5q0 -35 15.5 -59t50.5 -24q31 0 53 18t36.5 45t21 57.5t6.5 55.5z" />
    <glyph glyph-name="published" unicode="&#x2117;" horiz-adv-x="847" 
d="M803 429q0 -80 -27 -160.5t-81.5 -145t-136 -105t-190.5 -40.5q-68 0 -127 20.5t-102.5 59.5t-68.5 95t-25 126q0 80 27 160.5t81.5 145t136 105t190.5 40.5q68 0 127 -20.5t102.5 -59.5t68.5 -95t25 -126zM747 419q0 62 -20 110.5t-56 82t-86.5 51t-112.5 17.5
q-92 0 -161 -34.5t-116 -90t-70.5 -125.5t-23.5 -141q0 -62 20 -110.5t56 -82t86.5 -51t112.5 -17.5q91 0 160.5 34.5t116.5 90t70.5 125.5t23.5 141zM617 462q0 -46 -19 -78t-49.5 -52t-69 -29t-76.5 -9h-48l-36 -166h-71l100 457h112q31 0 59.5 -7t50.5 -22t34.5 -38
t12.5 -56zM546 454q0 42 -27 58t-69 16h-45l-37 -175h41q25 0 50 5.5t44 17.5t31 31t12 47z" />
    <glyph glyph-name="published" unicode="&#xe039;" horiz-adv-x="847" 
d="M803 429q0 -80 -27 -160.5t-81.5 -145t-136 -105t-190.5 -40.5q-68 0 -127 20.5t-102.5 59.5t-68.5 95t-25 126q0 80 27 160.5t81.5 145t136 105t190.5 40.5q68 0 127 -20.5t102.5 -59.5t68.5 -95t25 -126zM747 419q0 62 -20 110.5t-56 82t-86.5 51t-112.5 17.5
q-92 0 -161 -34.5t-116 -90t-70.5 -125.5t-23.5 -141q0 -62 20 -110.5t56 -82t86.5 -51t112.5 -17.5q91 0 160.5 34.5t116.5 90t70.5 125.5t23.5 141zM617 462q0 -46 -19 -78t-49.5 -52t-69 -29t-76.5 -9h-48l-36 -166h-71l100 457h112q31 0 59.5 -7t50.5 -22t34.5 -38
t12.5 -56zM546 454q0 42 -27 58t-69 16h-45l-37 -175h41q25 0 50 5.5t44 17.5t31 31t12 47z" />
    <glyph glyph-name="trademark" unicode="&#x2122;" horiz-adv-x="844" 
d="M780 270h-68l44 250l7.5 35t8.5 38h-1q-7 -14 -16.5 -32.5t-18.5 -34.5l-151 -256h-56l-40 260q-2 14 -3.5 34t-2.5 31h-2q-2 -14 -6.5 -35t-8.5 -38l-61 -252h-62l105 436h79l41 -266q3 -20 4.5 -42.5t3.5 -36.5h2q7 14 17 35t22 41l156 269h82zM397 644h-133l-80 -374
h-70l80 374h-140l13 62h342z" />
    <glyph glyph-name="Omega" unicode="&#x2126;" horiz-adv-x="690" 
d="M662 489q0 -62 -16.5 -123t-48.5 -114t-80.5 -92.5t-111.5 -57.5l-6 -27h206l-16 -75h-265l33 158q56 12 96.5 46t67 79.5t39 97t12.5 99.5q0 34 -11 64.5t-32.5 53t-52.5 35.5t-70 13q-71 0 -122.5 -31.5t-84.5 -80.5t-48.5 -108.5t-15.5 -114.5q0 -58 27 -101t88 -54
l-32 -156h-258l16 75h197l7 29q-66 23 -101 78t-35 127q0 42 9.5 89.5t29.5 94t50 89t72 75t95.5 51.5t119.5 19q54 0 99 -17t76.5 -48.5t49 -75.5t17.5 -97z" />
    <glyph glyph-name="estimated" unicode="&#x212e;" horiz-adv-x="866" 
d="M444 63q75 0 139 25.5t107 75.5h104q-27 -39 -62.5 -72t-79.5 -57t-96 -37t-112 -13q-84 0 -157 26.5t-127 74.5t-85.5 116.5t-31.5 152.5t31.5 152.5t85.5 117t127 74.5t157 26q87 0 161.5 -28t128.5 -78.5t84 -121t27 -154.5h-669v-154q42 -60 112 -93t156 -33z
M444 648q-86 0 -156 -33.5t-112 -93.5v-104h537v102q-42 61 -112.5 95t-156.5 34z" />
    <glyph glyph-name="partialdiff" unicode="&#x2202;" horiz-adv-x="497" 
d="M279 481q29 0 56 -11.5t41 -35.5q0 50 -11.5 94t-34.5 77t-56.5 52.5t-78.5 19.5q-24 0 -46 -4t-42 -15l-7 75q51 18 104 18q55 0 101.5 -23.5t81 -69.5t54 -114.5t19.5 -157.5q0 -84 -19 -157.5t-55 -128t-87 -86t-114 -31.5q-84 0 -130 48t-46 126q0 57 17.5 114.5
t52 104t84.5 76t116 29.5zM366 296q0 51 -23 83.5t-75 32.5q-45 0 -77 -24.5t-53 -61.5t-30.5 -79t-9.5 -78q0 -51 23 -83.5t74 -32.5q45 0 77.5 24t53.5 60t30.5 78.5t9.5 80.5z" />
    <glyph glyph-name="Delta" unicode="&#x2206;" horiz-adv-x="620" 
d="M-60 0l395 708h104l97 -708h-596zM378 497q-2 12 -4 29l-3 35q-1 18 -2.5 33.5t-1.5 24.5h-2q-3 -8 -10.5 -23t-16.5 -32.5t-18 -35.5l-16 -32l-231 -422h360z" />
    <glyph glyph-name="product" unicode="&#x220f;" horiz-adv-x="687" 
d="M648 626l-163 -762h-91l163 762h-294l-163 -762h-91l163 762h-73l17 80h620l-16 -80h-72z" />
    <glyph glyph-name="summation" unicode="&#x2211;" horiz-adv-x="528" 
d="M545 627h-360l179 -333l-330 -351h383l-17 -79h-495l16 75l339 360l-177 332l15 75h463z" />
    <glyph glyph-name="minus" unicode="&#x2212;" 
d="M19 233v79h461v-79h-461z" />
    <glyph glyph-name="radical" unicode="&#x221a;" horiz-adv-x="537" 
d="M317 0h-82l-144 429h-103v79h170l120 -384l176 582h82z" />
    <glyph glyph-name="infinity" unicode="&#x221e;" horiz-adv-x="686" 
d="M661 273q0 -40 -10.5 -73t-30.5 -57t-48 -37t-63 -13q-53 0 -92 35.5t-69 88.5q-15 -25 -32.5 -47.5t-38 -39t-45 -26.5t-54.5 -10q-39 0 -68 14.5t-48 39t-28 57t-9 68.5q0 34 9.5 66t29 57t48 39.5t66.5 14.5q30 0 54 -10t44 -27t37 -39t32 -46q14 24 29.5 46.5t34 39
t41.5 26.5t53 10q39 0 68.5 -14t49.5 -38t30 -56t10 -69zM587 272q0 41 -21.5 69t-65.5 28q-20 0 -35.5 -8.5t-28 -22t-23 -31t-20.5 -36.5q10 -19 20.5 -36.5t23.5 -31t28.5 -22t34.5 -8.5q45 0 66 29t21 70zM300 271q-11 19 -23 37t-26 32t-31 22t-38 8t-36 -8.5
t-25.5 -22.5t-15.5 -31.5t-5 -35.5t5 -35.5t15 -32t25.5 -23t36.5 -8.5t38 8t31 21.5t26 31t23 37.5z" />
    <glyph glyph-name="integral" unicode="&#x222b;" horiz-adv-x="336" 
d="M475 649q-17 16 -39 23t-46 7q-34 0 -58 -11t-39.5 -29t-25 -41t-14.5 -47l-123 -574q-18 -89 -75 -140.5t-148 -51.5q-63 0 -109 33l33 65q17 -16 37.5 -23t44.5 -7q32 0 55 10.5t38.5 28.5t25.5 41.5t16 50.5l122 575q19 88 76.5 140t150.5 52q30 0 58.5 -8t52.5 -25z
" />
    <glyph glyph-name="approxequal" unicode="&#x2248;" 
d="M474 138q-23 -24 -52 -39.5t-64 -15.5q-28 0 -55.5 10t-54.5 22.5t-53.5 22.5t-52.5 10q-40 0 -67 -18t-50 -46v86q22 25 52 40.5t64 15.5q28 0 55.5 -10.5t54.5 -22.5t53.5 -22.5t52.5 -10.5q40 0 67 18.5t50 45.5v-86zM474 375q-23 -24 -52 -39t-64 -15q-28 0 -55.5 10
t-54.5 22t-53.5 22t-52.5 10q-40 0 -67 -18t-50 -45v86q22 24 52 39.5t64 15.5q28 0 55.5 -10t54.5 -22.5t53.5 -22.5t52.5 -10q40 0 67 18t50 45v-86z" />
    <glyph glyph-name="notequal" unicode="&#x2260;" 
d="M231 114l-50 -128h-72l49 128h-140v82h173l60 157h-233v81h267l52 134h73l-52 -134h123v-81h-156l-61 -157h217v-82h-250z" />
    <glyph glyph-name="lessequal" unicode="&#x2264;" 
d="M19 260v80l461 165v-82l-364 -123l364 -123v-82zM19 0v78h461v-78h-461z" />
    <glyph glyph-name="greaterequal" unicode="&#x2265;" 
d="M19 95v82l364 123l-364 123v82l461 -165v-80zM19 0v78h461v-78h-461z" />
    <glyph glyph-name="lozenge" unicode="&#x25ca;" 
d="M251 -33l-270 303l270 304l268 -304zM251 467l-177 -197l177 -197l176 197z" />
    <glyph glyph-name="a.superior" unicode="&#xe000;" horiz-adv-x="369" 
d="M320 364q-2 -12 -0.5 -20.5t12.5 -8.5q7 0 16 3l-3 -45q-9 -2 -20.5 -4t-24.5 -2q-51 0 -51 37q0 6 1 13t3 14l4 16q-10 -14 -23.5 -29t-29 -27t-33 -20t-36.5 -8q-24 0 -41 10.5t-27.5 27t-15 38t-4.5 42.5q0 42 11.5 86t34.5 79.5t58 58t82 22.5q23 0 42.5 -7t31.5 -24
q2 5 2.5 10.5t2.5 11.5h67zM291 546q5 27 -13.5 39t-41.5 12q-32 0 -54 -18t-36 -45t-20.5 -58.5t-6.5 -57.5q0 -30 9.5 -51t34.5 -21q13 0 26 7t25.5 18t23 23.5t17.5 23.5q8 12 13.5 27.5t9.5 33t7 35t6 32.5z" />
    <glyph glyph-name="b.superior" unicode="&#xe001;" horiz-adv-x="366" 
d="M372 530q0 -42 -11.5 -86t-35 -79.5t-59 -58.5t-82.5 -23q-23 0 -44 7t-33 24l-4 -21h-67l102 481h69l-44 -203q11 13 24 26.5t28 24.5t32 18t36 7q24 0 41 -10t27.5 -26.5t15.5 -37.5t5 -43zM300 513q0 30 -10 51t-35 21q-14 0 -27.5 -7t-26.5 -18t-23.5 -24t-18.5 -24
q-10 -14 -14 -29l-21 -100q-5 -26 14 -37.5t42 -11.5q33 0 56 18t37 45t20.5 58.5t6.5 57.5z" />
    <glyph glyph-name="c.superior" unicode="&#xe002;" horiz-adv-x="303" 
d="M305 562q-12 14 -29.5 21t-36.5 7q-30 0 -53 -15t-38.5 -38t-23 -51t-7.5 -55q0 -39 19.5 -65.5t61.5 -26.5q20 0 37.5 8t31.5 19l14 -51q-21 -16 -47.5 -24.5t-53.5 -8.5q-62 0 -98.5 36t-36.5 99q0 43 13 84.5t38.5 74t62 52.5t82.5 20q26 0 50.5 -7.5t42.5 -24.5z" />
    <glyph glyph-name="d.superior" unicode="&#xe003;" horiz-adv-x="369" 
d="M323 364q-2 -12 0 -20.5t13 -8.5q7 0 16 3l-3 -45q-9 -2 -20.5 -4t-24.5 -2q-51 0 -51 37q0 6 1 13t3 14l4 16q-11 -14 -25 -29t-30 -27t-34 -20t-38 -8q-24 0 -41 10.5t-27.5 27t-15.5 37.5t-5 43q0 42 11.5 86t35 79.5t59 58t82.5 22.5q21 0 42 -6t33 -24l33 154h68z
M293 547q3 14 -1 23.5t-12.5 15.5t-20 8.5t-22.5 2.5q-33 0 -56 -18.5t-37.5 -45.5t-20.5 -58t-6 -57q0 -31 10 -51.5t36 -20.5q14 0 27.5 7t26 18t23 23.5t18.5 23.5q10 15 14 30z" />
    <glyph glyph-name="e.superior" unicode="&#xe004;" horiz-adv-x="332" 
d="M347 544q0 -13 -3.5 -31t-8.5 -29l-219 -39q-2 -8 -2 -12.5v-11.5q1 -40 23 -62t64 -22q24 0 47 8.5t41 22.5l14 -51q-26 -17 -57.5 -26t-63.5 -9q-61 0 -99 35t-38 98q0 42 13 83.5t37.5 75t60.5 54t81 20.5q48 0 79 -26t31 -78zM278 549q0 23 -15.5 36t-38.5 13
q-20 0 -36 -8.5t-28.5 -23t-21.5 -33t-14 -37.5l150 28q2 6 3 13t1 12z" />
    <glyph glyph-name="f.superior" unicode="&#xe005;" horiz-adv-x="200" 
d="M320 709q-24 18 -57 18q-38 0 -56 -20t-25 -52l-5 -24h85l-10 -50h-85l-62 -288h-69l62 288h-58l10 50h57l6 25q13 60 53.5 92.5t100.5 32.5q20 0 39.5 -4.5t35.5 -14.5z" />
    <glyph glyph-name="g.superior" unicode="&#xe006;" horiz-adv-x="330" 
d="M306 612q19 -25 20 -60q0 -30 -10.5 -55.5t-30 -43.5t-47 -28t-61.5 -10q-25 0 -47 8q-9 3 -14.5 1t-11.5 -7q-5 -4 -11 -10t-6 -15q0 -14 12 -21t33 -9l83 -12q40 -5 64.5 -26t24.5 -56q0 -30 -14.5 -51.5t-38 -35.5t-53.5 -21t-62 -7q-25 0 -50.5 5t-46.5 15.5t-34 28
t-13 43.5q0 32 22 52.5t50 28.5v2q-13 7 -22 20t-9 29q0 24 16.5 43t41.5 29q-9 11 -14.5 25.5t-5.5 31.5q0 31 11 57t30 45t45.5 29.5t58.5 10.5q33 0 57 -12q13 26 30.5 38t43.5 12q11 0 19 -2t16 -5l-19 -51q-6 3 -11.5 4t-10.5 1q-22 0 -35 -21zM234 257
q0 20 -14.5 29.5t-31.5 11.5l-62 9q-5 1 -8.5 1h-7.5q-21 0 -40 -15t-19 -39q0 -30 27.5 -43.5t63.5 -13.5q16 0 32.5 3t29.5 10.5t21.5 18.5t8.5 28zM261 553q0 23 -12 37t-36 14q-20 0 -34.5 -8t-24 -21.5t-14 -30.5t-4.5 -34q0 -23 12 -37t36 -14q20 0 34.5 8t24 21.5
t14 30t4.5 34.5z" />
    <glyph glyph-name="h.superior" unicode="&#xe007;" horiz-adv-x="381" 
d="M375 568q0 -12 -2 -24t-4 -23l-49 -228h-69l46 216q5 18 5 35q0 20 -11 30.5t-30 10.5q-14 0 -28.5 -7t-28 -17.5t-25 -23.5t-20.5 -25t-14 -29l-40 -190h-69l102 481h70l-44 -203q11 13 25.5 26.5t31 24.5t35.5 18t40 7q36 0 57.5 -21.5t21.5 -57.5z" />
    <glyph glyph-name="i.superior" unicode="&#xe008;" horiz-adv-x="174" 
d="M208 749q0 -20 -14 -34t-35 -14q-14 0 -24 8t-10 22q0 21 14 34.5t34 13.5q15 0 25 -8t10 -22zM105 293h-69l74 345h69z" />
    <glyph glyph-name="j.superior" unicode="&#xe009;" horiz-adv-x="180" 
d="M217 749q0 -20 -14 -34t-34 -14q-14 0 -25 8t-11 22q0 21 15 34.5t35 13.5q14 0 24 -8t10 -22zM120 315q-7 -34 -19.5 -62t-33 -49t-51 -34.5t-73.5 -16.5l-1 53q50 5 73.5 33t34.5 77l68 322h70z" />
    <glyph glyph-name="k.superior" unicode="&#xe00a;" horiz-adv-x="341" 
d="M227 357q-9 29 -19 52t-32 40l-47 -45l-24 -111h-69l102 481h69l-61 -291l145 155h83l-146 -146q26 -18 40 -49t25 -64q7 -21 15 -43.5t20 -43.5h-74q-10 14 -16 31.5t-11 33.5z" />
    <glyph glyph-name="l.superior" unicode="&#xe00b;" horiz-adv-x="169" 
d="M120 365q-3 -13 0 -21.5t17 -8.5q7 0 13 1t11 3l-4 -44q-12 -4 -25 -6t-28 -2q-39 0 -49 23t-2 62l85 402h69z" />
    <glyph glyph-name="m.superior" unicode="&#xe00c;" horiz-adv-x="579" 
d="M572 568q0 -24 -6 -47q-4 -21 -10.5 -51.5t-13 -63t-13 -62.5t-11.5 -51h-69q12 54 23.5 108t22.5 108q2 8 3 17.5t1 17.5q0 41 -38 41q-16 0 -34.5 -11t-34 -27t-26.5 -32.5t-13 -28.5l-41 -193h-70l47 216q2 8 3 17.5t1 17.5q0 41 -39 41q-17 0 -35 -11t-33.5 -26.5
t-26.5 -33t-14 -31.5l-40 -190h-69l73 345h64q-4 -19 -7.5 -37.5t-8.5 -37.5q12 15 27 30t31.5 27t35.5 19.5t39 7.5q21 0 34 -6t21.5 -16.5t13 -25.5t7.5 -33q26 30 58.5 55.5t72.5 25.5q35 0 55 -21.5t20 -57.5z" />
    <glyph glyph-name="n.superior" unicode="&#xe00d;" horiz-adv-x="381" 
d="M374 568q0 -22 -5 -47l-49 -228h-69l45 216q5 18 5 35q0 41 -40 41q-14 0 -28.5 -7t-28 -17.5t-25 -23.5t-20.5 -25t-14 -29l-40 -190h-69l73 345h64l-16 -75q13 15 28 30t32.5 27t37.5 19.5t41 7.5q36 0 57 -21.5t21 -57.5z" />
    <glyph glyph-name="o.superior" unicode="&#xe00e;" horiz-adv-x="363" 
d="M370 518q0 -42 -13 -84.5t-38 -76.5t-61.5 -55t-83.5 -21q-60 0 -94.5 35t-34.5 96q0 42 13 84.5t38 76.5t61.5 55t83.5 21q61 0 95 -35t34 -96zM299 512q0 35 -15.5 59t-50.5 24q-31 0 -53 -18t-36 -45t-20.5 -57.5t-6.5 -55.5q0 -35 15 -59t50 -24q31 0 53 18t36.5 45
t21 57.5t6.5 55.5z" />
    <glyph glyph-name="p.superior" unicode="&#xe00f;" horiz-adv-x="364" 
d="M94 569q6 26 -13 26q-8 0 -16 -2l3 45q23 6 47 6t37 -9.5t13 -26.5q0 -7 -1 -13.5t-3 -12.5l-5 -19q11 14 25 29t29.5 27t33.5 20t37 8q24 0 41.5 -10t28 -26.5t15.5 -37.5t5 -43q0 -42 -12 -86t-35.5 -79.5t-58.5 -58.5t-82 -23q-21 0 -42 6t-33 24l-32 -150h-69z
M299 513q0 30 -10 51t-36 21q-14 0 -27.5 -7t-26 -18t-23 -24t-18.5 -24q-11 -14 -14 -29l-21 -100q-3 -13 1 -22.5t12.5 -15.5t19.5 -8.5t22 -2.5q33 0 56 18t37.5 45t21 58.5t6.5 57.5z" />
    <glyph glyph-name="q.superior" unicode="&#xe010;" horiz-adv-x="374" 
d="M281 163h-69l41 196q-11 -12 -23.5 -25.5t-27.5 -25t-32 -18.5t-36 -7q-24 0 -41 10.5t-27.5 27t-15.5 37.5t-5 43q0 42 11.5 86t35 79.5t59 58t82.5 22.5q24 0 44.5 -7t32.5 -24l4 22h66zM293 547q3 14 -1 23.5t-12.5 15.5t-20 8.5t-22.5 2.5q-33 0 -56 -18.5
t-37.5 -45.5t-20.5 -58t-6 -57q0 -31 10 -51.5t36 -20.5q14 0 27.5 7t26 18t23 23.5t18.5 23.5q10 15 14 30z" />
    <glyph glyph-name="r.superior" unicode="&#xe011;" horiz-adv-x="247" 
d="M152 559q11 15 22.5 30.5t25 28.5t28.5 21t32 8q16 0 28 -5l-24 -71q-12 7 -23 7q-21 0 -41.5 -19t-37.5 -42q-8 -10 -11 -17.5t-5 -17.5l-41 -189h-69l59 276q6 26 -13 26q-8 0 -16 -2l3 45q11 3 21.5 4.5t23.5 1.5q24 0 36 -9.5t12 -26.5q0 -7 -1 -13.5t-3 -12.5z" />
    <glyph glyph-name="s.superior" unicode="&#xe012;" horiz-adv-x="258" 
d="M261 571q-28 26 -70 26q-28 0 -43.5 -13t-15.5 -33q0 -19 14.5 -32t33.5 -25q12 -8 24.5 -17.5t22 -21t16 -26t6.5 -32.5q0 -28 -11.5 -50t-30 -36t-42 -21.5t-47.5 -7.5q-27 0 -55 6t-48 23l25 53q14 -14 34 -21t40 -7q26 0 45 12t19 37q0 20 -13.5 33t-37.5 30
q-11 8 -22.5 16.5t-20.5 19t-14.5 24t-5.5 30.5q0 51 35.5 81t89.5 30q28 0 52 -6.5t44 -21.5z" />
    <glyph glyph-name="t.superior" unicode="&#xe013;" horiz-adv-x="221" 
d="M268 631q-3 -12 -6 -24.5t-5 -25.5h-85l-40 -185q-1 -5 -2 -11t-1 -12q0 -18 11.5 -27t30.5 -9q9 0 18.5 1.5t17.5 5.5l-2 -51q-14 -6 -31 -8.5t-34 -2.5q-33 0 -58 16t-25 54q0 18 5 36q3 16 9 42t12 54t11.5 54.5t8.5 42.5h-58q3 13 6 25.5t5 24.5h58q4 19 7.5 37.5
t7.5 36.5q18 6 36.5 11.5t36.5 10.5l-20 -96h86z" />
    <glyph glyph-name="u.superior" unicode="&#xe014;" horiz-adv-x="375" 
d="M261 367q-12 -15 -27 -30t-31.5 -27t-35 -19.5t-39.5 -7.5q-35 0 -55.5 21.5t-20.5 58.5q0 11 2 23l4 24l48 228h69l-46 -217q-2 -8 -3 -17t-1 -18q0 -40 39 -40q13 0 26.5 6.5t26 16.5t23.5 23t19 25q11 16 14 30l40 191h69l-57 -274q-2 -12 -1 -20.5t12 -8.5q7 0 16 3
l-3 -45q-9 -2 -20.5 -4t-24.5 -2q-51 0 -51 37q0 6 1 13t3 14z" />
    <glyph glyph-name="v.superior" unicode="&#xe015;" horiz-adv-x="316" 
d="M180 292h-76l-41 346h72l16 -187q2 -29 3 -56.5t1 -41.5h1q7 17 19 43.5t27 55.5l95 186h67z" />
    <glyph glyph-name="w.superior" unicode="&#xe016;" horiz-adv-x="474" 
d="M368 292h-74l-8 199q-1 23 -1.5 45.5t1.5 33.5h-1q-5 -12 -13.5 -33t-20.5 -46l-97 -199h-75v346h68l-7 -196q0 -10 -0.5 -23t-1.5 -25t-1.5 -22t-0.5 -15h1q5 12 14.5 36.5t20.5 46.5l93 198h73l7 -199q1 -26 1 -48.5t-1 -32.5h1q4 11 12 34t18 47l79 199h63z" />
    <glyph glyph-name="x.superior" unicode="&#xe017;" horiz-adv-x="305" 
d="M221 467l63 -174h-74l-43 127l-92 -127h-74l139 176l-61 169h73l40 -125l89 125h73z" />
    <glyph glyph-name="y.superior" unicode="&#xe018;" horiz-adv-x="320" 
d="M19 207q32 0 54.5 22t39.5 58l-45 351h72l18 -193q3 -28 4 -54.5t2 -38.5h1q5 13 17 40t26 55l94 191h68l-191 -362q-29 -55 -66.5 -89t-96.5 -34q-45 0 -76 26l23 51q11 -11 26 -17t30 -6z" />
    <glyph glyph-name="z.superior" unicode="&#xe019;" horiz-adv-x="301" 
d="M319 578l-212 -230h177l-12 -55h-258l12 57l215 234h-160l12 54h238z" />
    <glyph glyph-name="grave.cap" unicode="&#xe01a;" 
d="M278 745l-120 135h94l90 -135h-64z" />
    <glyph glyph-name="acute.cap" unicode="&#xe01b;" 
d="M207 745h-70l127 155h99z" />
    <glyph glyph-name="circumflex.cap" unicode="&#xe01c;" 
d="M341 745l-77 84l-101 -84h-69l129 135h92l91 -135h-65z" />
    <glyph glyph-name="caron.cap" unicode="&#xe01d;" 
d="M277 745h-92l-91 135h65l77 -84l101 84h69z" />
    <glyph glyph-name="tilde.cap" unicode="&#xe01f;" 
d="M430 884q-5 -23 -13 -44t-20.5 -37.5t-30.5 -26.5t-43 -10q-19 0 -37.5 8t-36 18t-35 18t-33.5 8q-26 0 -39.5 -20t-17.5 -40h-54q4 23 12 44t21 37.5t31 26.5t43 10q19 0 37.5 -8t36 -18t34.5 -18t34 -8q13 0 23 5.5t16.5 14.5t11 19.5t6.5 20.5h54z" />
    <glyph glyph-name="dieresis.cap" unicode="&#xe020;" 
d="M208 868q0 -23 -15 -39t-40 -16q-20 0 -31.5 10.5t-11.5 27.5q0 23 15 38.5t39 15.5q20 0 31.5 -10t12.5 -27zM390 868q0 -23 -15 -39t-39 -16q-20 0 -31.5 10.5t-12.5 27.5q0 23 15 38.5t40 15.5q20 0 31.5 -10t11.5 -27z" />
    <glyph glyph-name="macron.cap" unicode="&#xe021;" 
d="M377 818h-265l11 56h265z" />
    <glyph glyph-name="breve.cap" unicode="&#xe022;" 
d="M400 881q-11 -68 -54 -96.5t-107 -28.5q-29 0 -54.5 7t-44.5 22t-30 38.5t-9 57.5h49q2 -38 27 -55t66 -17q45 0 70 15t36 57h51z" />
    <glyph glyph-name="ring.cap" unicode="&#xe023;" 
d="M352 861q0 -25 -9 -46.5t-25 -38t-37.5 -26t-46.5 -9.5q-35 0 -60.5 20t-25.5 57q0 25 9 46.5t25 38t37.5 26t46.5 9.5q35 0 60.5 -20t25.5 -57zM305 856q0 20 -11.5 32.5t-32.5 12.5q-33 0 -49.5 -24.5t-16.5 -53.5q0 -21 11.5 -33t32.5 -12q33 0 49.5 24t16.5 54z" />
    <glyph glyph-name="hungarumlaut.cap" unicode="&#xe024;" 
d="M295 745h-70l130 135h98zM116 745h-69l129 135h99z" />
    <glyph glyph-name="dotaccent.cap" unicode="&#xe025;" 
d="M299 868q0 -23 -15 -39t-40 -16q-20 0 -31.5 10.5t-11.5 27.5q0 23 15 38.5t40 15.5q20 0 31 -10t12 -27z" />
    <glyph glyph-name="hyphen.cap" unicode="&#xe027;" horiz-adv-x="250" 
d="M228 318h-221l17 82h221z" />
    <glyph glyph-name="exclamdown.cap" unicode="&#xe028;" horiz-adv-x="268" 
d="M207 546q-6 -42 -17 -108.5t-24.5 -143.5t-29 -159t-31.5 -155h-96q16 74 34.5 156t37.5 159t36 143t29 108h61zM259 679q0 -27 -17.5 -45.5t-45.5 -18.5q-21 0 -35.5 12t-14.5 35q0 27 17 45.5t45 18.5q22 0 36.5 -12.5t14.5 -34.5z" />
    <glyph glyph-name="questiondown.cap" unicode="&#xe029;" horiz-adv-x="458" 
d="M384 65q-41 -48 -89 -71t-111 -23q-36 0 -68.5 12t-57 33.5t-39.5 52.5t-15 69q0 48 20.5 87.5t52 72.5t70.5 59.5t77 48.5q4 15 8.5 33t9.5 37t10 37.5t8 32.5h61l-27 -167q-35 -23 -71 -47.5t-64.5 -52.5t-46.5 -61t-18 -72q0 -49 32 -76t80 -27q45 0 78.5 21.5
t59.5 57.5zM373 679q0 -27 -17 -46t-46 -19q-21 0 -35.5 12.5t-14.5 34.5q0 28 17 46.5t45 18.5q21 0 36 -12.5t15 -34.5z" />
    <glyph glyph-name="guilsinglleft.cap" unicode="&#xe02a;" horiz-adv-x="263" 
d="M108 353l87 -194h-64l-113 196l175 192h76z" />
    <glyph glyph-name="guilsinglright.cap" unicode="&#xe02b;" horiz-adv-x="263" 
d="M171 353l-87 194h64l113 -196l-175 -192h-76z" />
    <glyph glyph-name="guillemotleft.cap" unicode="&#xe02c;" horiz-adv-x="472" 
d="M108 353l87 -194h-64l-113 196l175 192h76zM319 353l87 -194h-64l-113 196l175 192h76z" />
    <glyph glyph-name="guillemotright.cap" unicode="&#xe02d;" horiz-adv-x="472" 
d="M378 353l-87 194h64l113 -196l-175 -192h-76zM167 353l-87 194h64l113 -196l-175 -192h-76z" />
    <glyph glyph-name="endash.cap" unicode="&#xe02e;" 
d="M487 325h-480l14 68h481z" />
    <glyph glyph-name="emdash.cap" unicode="&#xe02f;" horiz-adv-x="1000" 
d="M987 325h-980l14 68h981z" />
    <glyph glyph-name="longdash.cap" unicode="&#xe030;" horiz-adv-x="1500" 
d="M1487 325h-1480l14 68h1481z" />
    <glyph glyph-name="periodcentered.cap" unicode="&#xe031;" horiz-adv-x="250" 
d="M185 370q0 -27 -17 -46t-46 -19q-22 0 -36.5 12.5t-14.5 34.5q0 27 17 46t46 19q22 0 36.5 -12.5t14.5 -34.5z" />
    <glyph glyph-name="parenleft.cap" unicode="&#xe032;" horiz-adv-x="284" 
d="M363 763q-123 -115 -186 -257t-63 -323q0 -80 16.5 -153.5t51.5 -146.5h-64q-38 68 -59.5 151t-21.5 174q0 78 16 155.5t48 149.5t79 135.5t109 114.5h74z" />
    <glyph glyph-name="parenright.cap" unicode="&#xe033;" horiz-adv-x="284" 
d="M-99 -117q123 115 186 257t63 323q0 80 -16.5 153.5t-51.5 146.5h64q37 -68 59 -151t22 -174q0 -78 -16.5 -155.5t-48 -149.5t-79 -135.5t-108.5 -114.5h-74z" />
    <glyph glyph-name="bracketleft.cap" unicode="&#xe034;" horiz-adv-x="284" 
d="M347 708h-110l-164 -770h111l-12 -55h-182l187 880h182z" />
    <glyph glyph-name="bracketright.cap" unicode="&#xe035;" horiz-adv-x="284" 
d="M88 -117h-182l11 55h110l165 770h-112l12 55h183z" />
    <glyph glyph-name="braceleft.cap" unicode="&#xe036;" horiz-adv-x="317" 
d="M379 707q-36 1 -60 -5.5t-40 -20.5t-25 -35.5t-15 -50.5l-28 -125q-14 -69 -47 -104t-84 -46q39 -17 59.5 -54t8.5 -95l-25 -121q-12 -57 10 -84.5t83 -27.5l-12 -55q-44 0 -73.5 9.5t-48 25.5t-26.5 37t-8 45q0 10 1 19t3 19l28 132q13 63 -9 94.5t-65 33.5l10 50
q50 2 82 31t47 98l29 141q9 40 24 68t40.5 45.5t62.5 25t90 6.5z" />
    <glyph glyph-name="braceright.cap" unicode="&#xe037;" horiz-adv-x="317" 
d="M284 298q-50 -2 -82 -31t-47 -98l-29 -141q-9 -40 -24 -68t-40.5 -45.5t-62.5 -25t-90 -6.5l12 56q36 -1 60.5 5.5t40 20.5t25 35.5t15.5 50.5l27 125q14 69 47.5 104t83.5 46q-39 17 -59 54t-8 95l25 121q11 57 -11 84.5t-82 27.5l11 55q43 0 73 -9.5t48.5 -25.5
t26.5 -37t8 -45q0 -21 -4 -38l-28 -132q-13 -63 9.5 -94.5t64.5 -33.5z" />
    <glyph glyph-name="at.cap" unicode="&#xe038;" horiz-adv-x="706" 
d="M704 467q0 -55 -13 -111.5t-40.5 -102.5t-70.5 -75.5t-102 -29.5q-28 0 -44 12.5t-14 41.5q1 9 3 17.5t4 18.5q-14 -17 -30.5 -34t-35.5 -31t-40 -22.5t-43 -8.5q-29 0 -49 12.5t-32 32t-17 44.5t-5 50q0 49 13.5 101.5t41 96t70 71t99.5 27.5q26 0 51.5 -7.5t39.5 -27.5
l5 24h72l-74 -340q-2 -11 0.5 -18t13.5 -7q26 0 50 21t42 57t29 84t11 102q0 53 -16 92.5t-45 66t-68.5 39.5t-87.5 13q-87 0 -149 -37t-102.5 -96t-59.5 -133t-19 -147q0 -59 19 -102t53.5 -71.5t82.5 -42t107 -13.5q54 0 109 17t95 50l19 -51q-50 -36 -112.5 -52.5
t-128.5 -16.5q-67 0 -124 17.5t-98 52t-64.5 87t-23.5 121.5q0 57 11.5 114t34 109t56.5 97t78.5 78t100 52t121.5 19q60 0 110.5 -17.5t87 -50.5t57.5 -81.5t21 -111.5zM470 462q3 15 -1.5 26t-14.5 18t-23.5 10.5t-27.5 3.5q-41 0 -69.5 -22t-46 -55.5t-25.5 -72.5t-8 -72
q0 -14 2 -29.5t8 -28t16.5 -21t27.5 -8.5q15 0 29.5 7.5t28 18t25 23t20.5 22.5q26 29 32 54z" />
    <glyph glyph-name="zero.slash" unicode="&#xe03a;" 
d="M478 397q0 -63 -18 -135.5t-55.5 -134.5t-95 -103t-135.5 -41q-49 0 -81 17t-51 46l-73 -74l-31 34l81 82q-8 25 -11.5 52t-3.5 54q0 63 18 135.5t55.5 134.5t95 103t135.5 41q58 0 92 -23t53 -59l80 81l31 -35l-94 -96q5 -19 6.5 -39t1.5 -40zM96 226q-2 -17 -2 -33
t2 -27l287 290q-8 38 -29 59.5t-62 21.5q-51 0 -86.5 -33.5t-59 -82t-35.5 -102t-15 -93.5zM386 336q2 16 2.5 32.5t0.5 27.5l-283 -286q11 -27 31 -41.5t54 -14.5q46 0 81 29.5t59 73t37.5 92.5t17.5 87z" />
    <glyph glyph-name="Euro.LT" unicode="&#xe03b;" 
d="M39 471h64q18 49 44 95t62 81t83 56.5t106 21.5q50 0 91.5 -15t72.5 -47l-43 -73q-20 26 -51.5 40.5t-66.5 14.5q-40 0 -71.5 -14.5t-56.5 -38.5t-43 -55.5t-31 -65.5h246l-12 -60h-254q-6 -25 -10.5 -48.5t-7.5 -44.5h250l-12 -61h-242q0 -26 5 -51q3 -28 12.5 -54
t26 -45.5t41 -31.5t58.5 -12q39 0 72 16t59 42l24 -70q-32 -32 -77.5 -50t-97.5 -18q-50 0 -88.5 17.5t-65 47.5t-42 70t-19.5 85q-3 25 -3 54h-68l12 61h61q6 43 18 93h-58z" />
    <glyph glyph-name="dollar.LT" unicode="&#xe03c;" 
d="M285 397q25 -17 50.5 -36t46 -42.5t33 -52t12.5 -64.5q0 -50 -19 -89t-51 -66.5t-74 -43.5t-87 -19l-21 -99h-56l21 99q-47 3 -91.5 17t-76.5 44l40 75q27 -29 65.5 -43t78.5 -16l57 267q-23 16 -47 34.5t-43.5 41.5t-31.5 51.5t-12 63.5q0 39 14 75t41.5 64t68.5 46
t96 21l19 91h57l-20 -93q41 -4 80 -16.5t68 -38.5l-38 -73q-23 24 -57 37t-69 16zM330 184q0 35 -19 60t-48 48l-50 -226q23 3 44.5 12t37.5 24t25.5 35.5t9.5 46.5zM171 536q0 -35 19.5 -59.5t45.5 -44.5l46 214q-55 -8 -83 -39t-28 -71z" />
    <glyph glyph-name="cent.LT" unicode="&#xe03d;" 
d="M456 509q-15 21 -38.5 32t-49.5 13l-86 -400q67 2 114 44l25 -70q-33 -26 -72 -39t-83 -14l-25 -117h-56l25 119q-77 11 -120.5 65.5t-43.5 137.5q0 63 18.5 125t54.5 112.5t88.5 82.5t120.5 35l26 120h56l-26 -121q33 -2 63.5 -14.5t52.5 -35.5zM311 554
q-43 -6 -75 -31.5t-53.5 -61.5t-32 -78t-10.5 -82q0 -53 21 -90.5t66 -50.5z" />
    <glyph glyph-name="sterling.LT" unicode="&#xe03e;" 
d="M26 377h102q-8 25 -12.5 52t-4.5 56q0 54 19 98t52.5 75.5t78.5 49t97 17.5q55 0 102.5 -20t82.5 -63l-58 -63q-20 32 -53.5 50t-72.5 18q-72 0 -114 -44t-42 -115q0 -29 5.5 -57t13.5 -54h200l-13 -64h-172q3 -15 5.5 -30t2.5 -29q0 -32 -9.5 -58t-26 -47.5t-40 -38.5
t-51.5 -31h338l-16 -79h-455l16 75q27 9 54.5 24.5t50 36.5t36.5 47.5t14 58.5q0 18 -3 36t-8 35h-132z" />
    <glyph glyph-name="florin.LT" unicode="&#xe03f;" 
d="M175 317h-116l13 61h115l34 161q8 39 25 72.5t43.5 59t63 40t84.5 14.5q28 0 57.5 -7t52.5 -22l-34 -69q-31 26 -81 26q-31 0 -53 -10.5t-37 -27.5t-24 -39t-13 -44l-33 -154h154l-12 -61h-156l-72 -338q-41 -194 -197 -194q-25 0 -49 6t-46 20l29 66q28 -25 67 -25
q50 0 75 34t38 94z" />
    <glyph glyph-name="yen.LT" unicode="&#xe040;" 
d="M-18 162h180l26 117h-182l14 63h151l-108 364h107l83 -346l217 346h107l-252 -364h146l-14 -63h-173l-25 -117h174l-14 -63h-174l-20 -99h-97l21 99h-181z" />
    <glyph glyph-name="zero.LT" unicode="&#xe041;" 
d="M500 498q0 -48 -7 -104.5t-22.5 -114t-40 -111.5t-59.5 -95.5t-82 -66.5t-106 -25q-52 0 -87 18.5t-56 49.5t-30 72.5t-9 88.5q0 48 7 104.5t22 114t39.5 111.5t59.5 95.5t81.5 66.5t106.5 25q52 0 87 -18.5t56.5 -49.5t30.5 -73t9 -88zM403 500q0 25 -4 51t-14.5 47.5
t-30 35t-50.5 13.5q-41 0 -72 -23t-54 -61t-38.5 -85.5t-25 -96t-13.5 -94.5t-4 -79q0 -25 4 -51t14.5 -47.5t30 -35t50.5 -13.5q41 0 72 23t54 61t38.5 85.5t25 96t13.5 94t4 79.5z" />
    <glyph glyph-name="one.LT" unicode="&#xe042;" 
d="M255 0h-96l129 607q-39 -26 -86 -50t-91 -44l-24 73q57 21 118 53t118 67h81z" />
    <glyph glyph-name="two.LT" unicode="&#xe043;" 
d="M483 547q0 -51 -19 -92t-49 -75t-68 -62t-75 -55q-28 -19 -55 -40t-49.5 -43.5t-39 -48t-23.5 -53.5h302l-16 -78h-409l13 63q13 43 36.5 79t53.5 67t64.5 58.5t70.5 52.5q27 20 56 42t53 48t39 57.5t15 69.5q0 51 -33 80t-83 29q-46 0 -81 -21.5t-61 -56.5l-41 63
q43 48 92 71t117 23q38 0 72.5 -12.5t60.5 -36t41.5 -56.5t15.5 -73z" />
    <glyph glyph-name="three.LT" unicode="&#xe044;" 
d="M467 558q0 -68 -42.5 -113.5t-110.5 -61.5v-2q51 -16 82.5 -59.5t31.5 -97.5q0 -58 -21.5 -103t-58.5 -76t-86 -47t-103 -16q-55 0 -103 18t-84 50l46 68q25 -24 61.5 -41.5t81.5 -17.5q76 0 122 43t46 118q0 55 -39 87t-102 32h-63l17 76h62q30 0 60 7.5t53.5 23.5
t38 41t14.5 60q0 25 -9.5 44t-25 32t-36.5 19.5t-44 6.5q-83 0 -140 -62l-35 65q45 38 91 55.5t106 17.5q37 0 71.5 -11t60.5 -32.5t42 -52.5t16 -71z" />
    <glyph glyph-name="four.LT" unicode="&#xe045;" 
d="M451 166h-79l-35 -166h-90l35 166h-300l18 85l369 455h117l-99 -468h79zM374 610q-11 -17 -30 -43.5t-44 -59.5l-221 -269h218l79 372h-2z" />
    <glyph glyph-name="five.LT" unicode="&#xe046;" 
d="M482 629h-252l-54 -186q5 1 11.5 1h12.5q48 0 90.5 -15t74 -43.5t50 -69t18.5 -91.5q0 -58 -21.5 -103.5t-58 -76.5t-85.5 -47t-104 -16t-103 18t-84 50l47 68q25 -24 61.5 -41.5t81.5 -17.5q75 0 120.5 42.5t45.5 116.5q0 39 -13.5 67.5t-37.5 47t-56 28t-69 9.5h-41
t-41 -2l96 338h327z" />
    <glyph glyph-name="six.LT" unicode="&#xe047;" 
d="M474 631q-43 20 -90 20q-62 0 -107 -25t-76.5 -65.5t-51.5 -93t-31 -106.5q34 33 73 48.5t84 15.5q39 0 72.5 -13.5t58 -38.5t38.5 -59.5t14 -77.5q0 -55 -17.5 -101.5t-50 -80t-77 -52.5t-98.5 -19q-52 0 -90 16.5t-63 46.5t-37 71t-12 89q0 54 8 113.5t26 117t47 110
t70.5 92.5t97 63.5t126.5 23.5q29 0 57.5 -4t56.5 -14zM365 222q0 60 -32.5 95t-86.5 35q-29 0 -56.5 -10t-50.5 -30q-13 -12 -20.5 -23t-11 -23t-4.5 -27t-1 -34q0 -31 6.5 -58t20.5 -47t37.5 -31.5t57.5 -11.5q33 0 59 13t44.5 35.5t28 52.5t9.5 64z" />
    <glyph glyph-name="seven.LT" unicode="&#xe048;" 
d="M515 624q-85 -116 -149 -205.5t-115 -162.5q-30 -43 -51.5 -78.5t-36.5 -66t-24.5 -57.5t-14.5 -54h-100q10 58 42.5 121t92.5 146l262 361h-356l17 78h451z" />
    <glyph glyph-name="eight.LT" unicode="&#xe049;" 
d="M488 574q0 -40 -12.5 -70t-34 -53.5t-51 -41.5t-62.5 -34q24 -16 45.5 -34t37.5 -39.5t25.5 -47.5t9.5 -58q0 -53 -20.5 -93t-54.5 -67t-79 -41t-93 -14q-38 0 -75 10t-66 30.5t-46.5 52t-17.5 73.5q0 46 15 81t40.5 61.5t59.5 46.5t72 38q-42 29 -72 67.5t-30 92.5
q0 46 18.5 82.5t49 61t70 37.5t82.5 13q35 0 69 -9t60.5 -28t43 -48t16.5 -69zM401 568q0 24 -8.5 41.5t-23.5 29t-34.5 17.5t-41.5 6q-25 0 -47.5 -8t-40 -22.5t-27.5 -35.5t-10 -47q0 -24 8 -43.5t22 -36t32.5 -30t38.5 -26.5q27 13 51 27.5t42 33t28.5 41.5t10.5 53z
M356 181q0 28 -10 51t-26.5 41.5t-37.5 33.5t-43 28q-31 -14 -59 -30t-49.5 -37t-34 -48.5t-12.5 -63.5q0 -28 11 -48t29 -33.5t41 -20t48 -6.5q30 0 56 9.5t45.5 26.5t30.5 42t11 55z" />
    <glyph glyph-name="nine.LT" unicode="&#xe04a;" 
d="M30 78q42 -20 90 -20q61 0 106 25t76.5 65.5t51.5 93t31 106.5q-33 -33 -72.5 -48.5t-83.5 -15.5q-39 0 -73 13.5t-58.5 38t-38.5 59.5t-14 78q0 55 17.5 101.5t50 80t77 52.5t98.5 19q52 0 90 -16.5t63 -46.5t37 -71t12 -89q0 -54 -8 -113.5t-26 -117t-46.5 -110
t-70.5 -92.5t-97.5 -63.5t-126.5 -23.5q-29 0 -57.5 4t-55.5 14zM138 487q0 -60 32.5 -95t86.5 -35q29 0 56.5 10t50.5 30q26 23 31.5 46t5.5 61q0 31 -6.5 58t-20.5 47t-37.5 31.5t-57.5 11.5q-33 0 -59 -13t-44.5 -35.5t-28 -52.5t-9.5 -64z" />
    <glyph glyph-name="Euro.OT" unicode="&#xe04b;" 
d="M35 365h63q18 38 44 70.5t59.5 56t74 37t87.5 13.5q51 0 86 -13t66 -36l-35 -66q-23 21 -51 32.5t-62 11.5q-64 0 -107.5 -30.5t-69.5 -75.5h238l-12 -61h-255q-12 -37 -15 -77h252l-12 -60h-235q9 -54 45 -83t96 -29q38 0 67.5 12t52.5 32l20 -63q-32 -26 -74.5 -39.5
t-90.5 -13.5q-88 0 -141 48.5t-62 135.5h-70l12 60h56q2 20 5 39t8 38h-52z" />
    <glyph glyph-name="dollar.OT" unicode="&#xe04c;" 
d="M132 -82l14 67q-38 2 -73.5 13t-63.5 35l36 67q23 -23 53 -34.5t62 -13.5l42 191q-24 13 -44.5 26.5t-35.5 30t-23.5 37.5t-8.5 50q0 67 48 109.5t128 47.5l13 63h57l-14 -64q33 -3 64.5 -13.5t57.5 -30.5l-37 -62q-21 19 -47 28t-52 11l-38 -177q21 -12 42 -25
t37.5 -29.5t27 -39.5t10.5 -54q0 -37 -14.5 -66.5t-39 -50.5t-58 -33.5t-72.5 -15.5l-14 -67h-57zM308 135q0 29 -17.5 47.5t-38.5 31.5l-35 -159q40 5 65.5 25t25.5 55zM166 403q0 -26 15 -43.5t38 -32.5l32 149q-36 -4 -60.5 -22.5t-24.5 -50.5z" />
    <glyph glyph-name="cent.OT" unicode="&#xe04d;" 
d="M185 -82l15 69q-75 14 -118.5 69t-43.5 145q0 61 19.5 120t56 106t88 77.5t116.5 35.5l14 67h57l-15 -66q39 -3 68.5 -15.5t55.5 -32.5l-36 -66q-20 19 -46 30.5t-56 13.5l-89 -416q28 -1 62.5 10t61.5 34l19 -63q-32 -26 -71.5 -38.5t-86.5 -13.5l-14 -66h-57zM122 204
q0 -114 94 -140l86 401q-47 -9 -80.5 -36.5t-56 -64t-33 -79t-10.5 -81.5z" />
    <glyph glyph-name="sterling.OT" unicode="&#xe04e;" 
d="M34 288h85q-7 20 -12.5 41.5t-5.5 42.5q0 33 15 63.5t43.5 54.5t69.5 38t92 14q48 0 87 -11.5t66 -34.5l-35 -66q-44 39 -117 39q-63 0 -96.5 -30t-33.5 -76q0 -19 4.5 -38t11.5 -37h185l-12 -61h-154q3 -10 5 -19.5t2 -17.5q0 -39 -26 -67t-69 -52h273l-14 -71h-385
l13 67q36 15 59.5 29.5t37.5 28.5t19.5 29t5.5 32q0 9 -2.5 19.5t-4.5 21.5h-119z" />
    <glyph glyph-name="florin.OT" unicode="&#xe04f;" 
d="M165 227h-116l13 61h115l15 68q8 39 25 72.5t43.5 59t63 40t84.5 14.5q28 0 57.5 -6.5t52.5 -22.5l-33 -69q-32 26 -82 26q-31 0 -53 -10.5t-37 -27.5t-23.5 -39t-13.5 -44l-14 -61h155l-13 -61h-155l-41 -194q-42 -194 -197 -194q-26 0 -50 6t-45 20l29 66
q28 -25 67 -25q49 0 74.5 34t37.5 94z" />
    <glyph glyph-name="yen.OT" unicode="&#xe050;" 
d="M21 140h141l12 56h-140l11 59h122l-91 271h93l74 -239l163 239h89l-196 -271h124l-11 -59h-147l-12 -56h146l-11 -59h-147l-16 -81h-92l17 81h-140z" />
    <glyph glyph-name="zero.OT" unicode="&#xe051;" horiz-adv-x="518" 
d="M201 53q49 0 85.5 26.5t59.5 67t34.5 90t11.5 94.5q0 72 -27.5 106.5t-78.5 34.5t-87.5 -28.5t-59 -70.5t-33 -91t-10.5 -89q0 -65 24 -102.5t81 -37.5zM193 -17q-88 0 -135 51.5t-47 150.5q0 67 18 131.5t54 114.5t89 80.5t124 30.5q40 0 73.5 -12t57.5 -36.5t37.5 -63
t13.5 -91.5q0 -68 -18 -132t-54 -114t-89.5 -80t-123.5 -30z" />
    <glyph glyph-name="one.OT" unicode="&#xe052;" 
d="M34 0l12 71h144l78 362q-38 -26 -82.5 -48.5t-86.5 -41.5l-22 69q54 20 111.5 50t111.5 64h78l-97 -455h131l-13 -71h-365z" />
    <glyph glyph-name="two.OT" unicode="&#xe053;" 
d="M448 387q0 -42 -14 -72t-37.5 -53.5t-55.5 -42.5t-68 -38q-59 -30 -94.5 -54t-56.5 -53h282l-16 -74h-390l13 63q23 48 70.5 83t106.5 67q39 21 70 38.5t52.5 36t33 40t11.5 50.5q0 26 -10.5 43.5t-27.5 28.5t-37.5 15.5t-40.5 4.5q-42 0 -79.5 -15t-66.5 -45l-33 63
q42 35 89 52t104 17q39 0 74.5 -9.5t62.5 -29t42.5 -48.5t15.5 -68z" />
    <glyph glyph-name="three.OT" unicode="&#xe054;" 
d="M435 383q0 -64 -40.5 -107.5t-104.5 -58.5v-2q48 -15 78 -56t30 -93q0 -55 -21 -98t-56 -72t-81.5 -44.5t-98.5 -15.5q-53 0 -99 16.5t-80 48.5l44 64q23 -23 59 -39.5t78 -16.5q72 0 116.5 40.5t44.5 112.5q0 52 -38 82.5t-98 30.5h-60l15 73h61q29 0 57.5 7t51 22
t36.5 39t14 57q0 23 -9 41t-24.5 30.5t-35.5 19t-42 6.5q-81 0 -135 -60l-33 63q44 36 88 52.5t101 16.5q35 0 68 -10.5t58.5 -31t40.5 -50t15 -67.5z" />
    <glyph glyph-name="four.OT" unicode="&#xe055;" 
d="M447 12h-97l-34 -157h-85l33 157h-299l17 82l365 432h111l-94 -445h97zM351 434q-10 -15 -27.5 -38.5t-42.5 -53.5l-221 -261h218l75 353h-2z" />
    <glyph glyph-name="five.OT" unicode="&#xe056;" 
d="M460 452h-243l-52 -176q5 1 11 1h12q46 0 86.5 -14.5t71.5 -41.5t49 -65.5t18 -86.5q0 -55 -20.5 -98t-56 -72.5t-82 -45t-98.5 -15.5t-98.5 16.5t-81.5 48.5l44 64q24 -23 60 -39.5t78 -16.5q72 0 116.5 40.5t44.5 110.5q0 37 -13.5 64t-37 45t-55 27t-66.5 9
q-20 0 -39 -0.5t-39 -1.5l92 321h314z" />
    <glyph glyph-name="six.OT" unicode="&#xe057;" 
d="M460 599q-41 19 -86 19q-59 0 -102.5 -23.5t-75 -62t-52 -88t-31.5 -101.5q32 30 72.5 45.5t85.5 15.5q39 0 72.5 -13t58 -36.5t38 -57t13.5 -73.5q0 -52 -17.5 -96t-49 -76t-75.5 -50t-97 -18q-50 0 -87 16t-62 44t-38 66.5t-13 84.5q0 51 8 107.5t26 111.5t46.5 105
t69 88t93.5 60.5t121 22.5q28 0 55 -4t53 -13zM365 211q0 57 -36 90.5t-93 33.5q-28 0 -55 -9.5t-48 -28.5q-24 -23 -29 -45.5t-5 -55.5q0 -30 7 -56t22 -44.5t39 -29.5t57 -11t59 13t44.5 34.5t28 49.5t9.5 59z" />
    <glyph glyph-name="seven.OT" unicode="&#xe058;" 
d="M478 448q-81 -109 -144 -196t-111 -157q-29 -41 -50 -74t-35.5 -61.5t-23.5 -53.5t-13 -50h-96q10 55 40.5 115t88.5 139l255 342h-350l16 74h439z" />
    <glyph glyph-name="eight.OT" unicode="&#xe059;" 
d="M484 546q0 -38 -12.5 -66.5t-33.5 -51t-49.5 -40t-60.5 -32.5q24 -15 45 -32t36.5 -37.5t25 -45t9.5 -54.5q0 -51 -20 -89t-53 -64t-76 -39t-89 -13q-36 0 -72 9.5t-64 29t-45.5 49t-17.5 69.5q0 45 15 78t40 58t58 44t69 36q-20 13 -38 29.5t-32 35t-22.5 40.5t-8.5 48
q0 44 18 78t48 57.5t68 36t79 12.5q33 0 65.5 -9t59 -27t42.5 -45.5t16 -64.5zM402 540q0 22 -9 39t-24 28t-34 16.5t-40 5.5q-24 0 -46 -7.5t-39 -21t-27.5 -33.5t-10.5 -45q0 -23 8.5 -42t22.5 -34.5t32 -28t37 -24.5q26 12 49.5 25.5t41.5 31t28.5 39.5t10.5 51zM360 172
q0 27 -10.5 48.5t-27 39t-37 32t-41.5 26.5q-29 -13 -56.5 -28t-48.5 -35t-33.5 -46t-12.5 -61q0 -26 11 -45.5t28.5 -32.5t40 -19t46.5 -6q28 0 53.5 9t45 25.5t31 40t11.5 52.5z" />
    <glyph glyph-name="nine.OT" unicode="&#xe05a;" 
d="M461 330q0 -51 -8 -107.5t-26 -111.5t-46 -104.5t-68.5 -87.5t-94 -60.5t-121.5 -22.5q-58 0 -108 17l27 73q41 -19 86 -19q58 0 102 23.5t75.5 62.5t51.5 88.5t31 101.5q-32 -30 -72 -45.5t-85 -15.5q-39 0 -72.5 13t-58 36.5t-38.5 56.5t-14 74q0 52 17.5 96t49 76
t75.5 50t97 18q49 0 86.5 -16t63 -44t38 -67t12.5 -85zM377 329q0 61 -29.5 101.5t-95.5 40.5q-33 0 -59.5 -13t-44.5 -34.5t-27.5 -49.5t-9.5 -59q0 -57 35.5 -90.5t92.5 -33.5q29 0 55.5 9.5t47.5 28.5q25 22 30 45t5 55z" />
    <glyph glyph-name="Euro.OP" unicode="&#xe05b;" horiz-adv-x="484" 
d="M32 365h63q18 38 44 70.5t59.5 56t74 37t87.5 13.5q51 0 86 -13t66 -36l-35 -66q-23 21 -51 32.5t-62 11.5q-64 0 -107.5 -30.5t-69.5 -75.5h238l-12 -61h-255q-12 -37 -15 -77h252l-12 -60h-235q9 -54 45 -83t96 -29q38 0 67.5 12t52.5 32l20 -63q-32 -26 -74.5 -39.5
t-90.5 -13.5q-88 0 -141 48.5t-62 135.5h-70l12 60h56q2 20 5 39t8 38h-52z" />
    <glyph glyph-name="dollar.OP" unicode="&#xe05c;" horiz-adv-x="404" 
d="M90 -82l14 67q-38 2 -73.5 13t-63.5 35l36 67q23 -23 53 -34.5t62 -13.5l42 191q-24 13 -44.5 26.5t-35.5 30t-23.5 37.5t-8.5 50q0 67 48 109.5t128 47.5l13 63h57l-14 -64q33 -3 64.5 -13.5t57.5 -30.5l-37 -62q-21 19 -47 28t-52 11l-38 -177q21 -12 42 -25
t37.5 -29.5t27 -39.5t10.5 -54q0 -37 -14.5 -66.5t-39 -50.5t-58 -33.5t-72.5 -15.5l-14 -67h-57zM266 135q0 29 -17.5 47.5t-38.5 31.5l-35 -159q40 5 65.5 25t25.5 55zM124 403q0 -26 15 -43.5t38 -32.5l32 149q-36 -4 -60.5 -22.5t-24.5 -50.5z" />
    <glyph glyph-name="cent.OP" unicode="&#xe05d;" horiz-adv-x="446" 
d="M166 -82l15 69q-75 14 -118.5 69t-43.5 145q0 61 19.5 120t56 106t88 77.5t116.5 35.5l14 67h57l-15 -66q39 -3 68.5 -15.5t55.5 -32.5l-36 -66q-20 19 -46 30.5t-56 13.5l-89 -416q28 -1 62.5 10t61.5 34l19 -63q-32 -26 -71.5 -38.5t-86.5 -13.5l-14 -66h-57zM103 204
q0 -114 94 -140l86 401q-47 -9 -80.5 -36.5t-56 -64t-33 -79t-10.5 -81.5z" />
    <glyph glyph-name="sterling.OP" unicode="&#xe05e;" horiz-adv-x="452" 
d="M21 288h85q-7 20 -12.5 41.5t-5.5 42.5q0 33 15 63.5t43.5 54.5t69.5 38t92 14q48 0 87 -11.5t66 -34.5l-35 -66q-44 39 -117 39q-63 0 -96.5 -30t-33.5 -76q0 -19 4.5 -38t11.5 -37h185l-12 -61h-154q3 -10 5 -19.5t2 -17.5q0 -39 -26 -67t-69 -52h273l-14 -71h-385
l13 67q36 15 59.5 29.5t37.5 28.5t19.5 29t5.5 32q0 9 -2.5 19.5t-4.5 21.5h-119z" />
    <glyph glyph-name="florin.OP" unicode="&#xe05f;" horiz-adv-x="425" 
d="M129 227h-116l13 61h115l15 68q8 39 25 72.5t43.5 59t63 40t84.5 14.5q28 0 57.5 -6.5t52.5 -22.5l-33 -69q-32 26 -82 26q-31 0 -53 -10.5t-37 -27.5t-23.5 -39t-13.5 -44l-14 -61h155l-13 -61h-155l-41 -194q-42 -194 -197 -194q-26 0 -50 6t-45 20l29 66
q28 -25 67 -25q49 0 74.5 34t37.5 94z" />
    <glyph glyph-name="yen.OP" unicode="&#xe060;" horiz-adv-x="461" 
d="M6 140h141l12 56h-140l11 59h122l-91 271h93l74 -239l163 239h89l-196 -271h124l-11 -59h-147l-12 -56h146l-11 -59h-147l-16 -81h-92l17 81h-140z" />
    <glyph glyph-name="zero.OP" unicode="&#xe061;" horiz-adv-x="525" 
d="M208 53q49 0 85.5 26.5t59.5 67t34.5 90t11.5 94.5q0 72 -27.5 106.5t-78.5 34.5t-87.5 -28.5t-59 -70.5t-33 -91t-10.5 -89q0 -65 24 -102.5t81 -37.5zM200 -17q-88 0 -135 51.5t-47 150.5q0 67 18 131.5t54 114.5t89 80.5t124 30.5q40 0 73.5 -12t57.5 -36.5t37.5 -63
t13.5 -91.5q0 -68 -18 -132t-54 -114t-89.5 -80t-123.5 -30z" />
    <glyph glyph-name="one.OP" unicode="&#xe062;" horiz-adv-x="356" 
d="M123 0l92 433q-38 -26 -82.5 -48.5t-86.5 -41.5l-22 69q54 20 111.5 50t111.5 64h78l-111 -526h-91z" />
    <glyph glyph-name="two.OP" unicode="&#xe063;" horiz-adv-x="484" 
d="M441 387q0 -42 -14 -72t-37.5 -53.5t-55.5 -42.5t-68 -38q-59 -30 -94.5 -54t-56.5 -53h282l-16 -74h-390l13 63q23 48 70.5 83t106.5 67q39 21 70 38.5t52.5 36t33 40t11.5 50.5q0 26 -10.5 43.5t-27.5 28.5t-37.5 15.5t-40.5 4.5q-42 0 -79.5 -15t-66.5 -45l-33 63
q42 35 89 52t104 17q39 0 74.5 -9.5t62.5 -29t42.5 -48.5t15.5 -68z" />
    <glyph glyph-name="three.OP" unicode="&#xe064;" horiz-adv-x="466" 
d="M418 383q0 -64 -40.5 -107.5t-104.5 -58.5v-2q48 -15 78 -56t30 -93q0 -55 -21 -98t-56 -72t-81.5 -44.5t-98.5 -15.5q-53 0 -99 16.5t-80 48.5l44 64q23 -23 59 -39.5t78 -16.5q72 0 116.5 40.5t44.5 112.5q0 52 -38 82.5t-98 30.5h-60l15 73h61q29 0 57.5 7t51 22
t36.5 39t14 57q0 23 -9 41t-24.5 30.5t-35.5 19t-42 6.5q-81 0 -135 -60l-33 63q44 36 88 52.5t101 16.5q35 0 68 -10.5t58.5 -31t40.5 -50t15 -67.5z" />
    <glyph glyph-name="four.OP" unicode="&#xe065;" horiz-adv-x="512" 
d="M456 12h-97l-34 -157h-85l33 157h-299l17 82l365 432h111l-94 -445h97zM360 434q-10 -15 -27.5 -38.5t-42.5 -53.5l-221 -261h218l75 353h-2z" />
    <glyph glyph-name="five.OP" unicode="&#xe066;" horiz-adv-x="448" 
d="M430 452h-243l-52 -176q5 1 11 1h12q46 0 86.5 -14.5t71.5 -41.5t49 -65.5t18 -86.5q0 -55 -20.5 -98t-56 -72.5t-82 -45t-98.5 -15.5t-98.5 16.5t-81.5 48.5l44 64q24 -23 60 -39.5t78 -16.5q72 0 116.5 40.5t44.5 110.5q0 37 -13.5 64t-37 45t-55 27t-66.5 9
q-20 0 -39 -0.5t-39 -1.5l92 321h314z" />
    <glyph glyph-name="six.OP" unicode="&#xe067;" horiz-adv-x="518" 
d="M474 599q-41 19 -86 19q-59 0 -102.5 -23.5t-75 -62t-52 -88t-31.5 -101.5q32 30 72.5 45.5t85.5 15.5q39 0 72.5 -13t58 -36.5t38 -57t13.5 -73.5q0 -52 -17.5 -96t-49 -76t-75.5 -50t-97 -18q-50 0 -87 16t-62 44t-38 66.5t-13 84.5q0 51 8 107.5t26 111.5t46.5 105
t69 88t93.5 60.5t121 22.5q28 0 55 -4t53 -13zM379 211q0 57 -36 90.5t-93 33.5q-28 0 -55 -9.5t-48 -28.5q-24 -23 -29 -45.5t-5 -55.5q0 -30 7 -56t22 -44.5t39 -29.5t57 -11t59 13t44.5 34.5t28 49.5t9.5 59z" />
    <glyph glyph-name="seven.OP" unicode="&#xe068;" horiz-adv-x="457" 
d="M458 448q-81 -109 -144 -196t-111 -157q-29 -41 -50 -74t-35.5 -61.5t-23.5 -53.5t-13 -50h-96q10 55 40.5 115t88.5 139l255 342h-350l16 74h439z" />
    <glyph glyph-name="eight.OP" unicode="&#xe069;" horiz-adv-x="498" 
d="M486 546q0 -38 -12.5 -66.5t-33.5 -51t-49.5 -40t-60.5 -32.5q24 -15 45 -32t36.5 -37.5t25 -45t9.5 -54.5q0 -51 -20 -89t-53 -64t-76 -39t-89 -13q-36 0 -72 9.5t-64 29t-45.5 49t-17.5 69.5q0 45 15 78t40 58t58 44t69 36q-20 13 -38 29.5t-32 35t-22.5 40.5t-8.5 48
q0 44 18 78t48 57.5t68 36t79 12.5q33 0 65.5 -9t59 -27t42.5 -45.5t16 -64.5zM404 540q0 22 -9 39t-24 28t-34 16.5t-40 5.5q-24 0 -46 -7.5t-39 -21t-27.5 -33.5t-10.5 -45q0 -23 8.5 -42t22.5 -34.5t32 -28t37 -24.5q26 12 49.5 25.5t41.5 31t28.5 39.5t10.5 51zM362 172
q0 27 -10.5 48.5t-27 39t-37 32t-41.5 26.5q-29 -13 -56.5 -28t-48.5 -35t-33.5 -46t-12.5 -61q0 -26 11 -45.5t28.5 -32.5t40 -19t46.5 -6q28 0 53.5 9t45 25.5t31 40t11.5 52.5z" />
    <glyph glyph-name="nine.OP" unicode="&#xe06a;" horiz-adv-x="518" 
d="M474 330q0 -51 -8 -107.5t-26 -111.5t-46 -104.5t-68.5 -87.5t-94 -60.5t-121.5 -22.5q-58 0 -108 17l27 73q41 -19 86 -19q58 0 102 23.5t75.5 62.5t51.5 88.5t31 101.5q-32 -30 -72 -45.5t-85 -15.5q-39 0 -72.5 13t-58 36.5t-38.5 56.5t-14 74q0 52 17.5 96t49 76
t75.5 50t97 18q49 0 86.5 -16t63 -44t38 -67t12.5 -85zM390 329q0 61 -29.5 101.5t-95.5 40.5q-33 0 -59.5 -13t-44.5 -34.5t-27.5 -49.5t-9.5 -59q0 -57 35.5 -90.5t92.5 -33.5q29 0 55.5 9.5t47.5 28.5q25 22 30 45t5 55z" />
    <glyph glyph-name="plusinferior" unicode="&#xe06b;" horiz-adv-x="356" 
d="M148 106v-126h-67v126h-128v70h127v127h67v-127h129v-70h-128z" />
    <glyph glyph-name="minusinferior" unicode="&#xe06c;" horiz-adv-x="356" 
d="M-46 106v70h323v-70h-323z" />
    <glyph glyph-name="equalinferior" unicode="&#xe06d;" horiz-adv-x="356" 
d="M-49 190v69h324v-69h-324zM-49 24v69h324v-69h-324z" />
    <glyph glyph-name="zero.numr" unicode="&#xe06e;" horiz-adv-x="356" 
d="M371 566q0 -48 -10.5 -105.5t-35.5 -108t-65 -84t-99 -33.5q-36 0 -60.5 11.5t-40 31.5t-22.5 48.5t-7 62.5q0 48 10.5 105.5t35.5 108t65 84t98 33.5q36 0 60.5 -11.5t40.5 -32t23 -48.5t7 -62zM298 572q0 14 -3 29.5t-10.5 28.5t-19.5 21t-30 8q-25 0 -44.5 -15.5
t-34 -40t-25 -55t-16.5 -61.5t-9 -58.5t-3 -46.5q0 -14 3 -29.5t10.5 -28t19.5 -21t30 -8.5q25 0 44.5 15.5t34 40t25 55.5t16.5 61.5t9 58.5t3 46z" />
    <glyph glyph-name="one.numr" unicode="&#xe06f;" horiz-adv-x="297" 
d="M169 247h-74l81 378q-24 -16 -56.5 -30t-60.5 -24l-16 58q36 14 78 34t79 43h66z" />
    <glyph glyph-name="two.numr" unicode="&#xe070;" horiz-adv-x="356" 
d="M347 598q0 -34 -12 -60.5t-31.5 -48t-44 -39t-49.5 -34.5q-34 -23 -66 -49t-41 -56h199l-12 -64h-283l11 55q7 25 21.5 46.5t34 40.5t42 35t43.5 30q17 11 36.5 24.5t36 29t27.5 34.5t11 42q0 32 -22 51t-55 19q-27 0 -52 -13t-42 -33l-24 58q29 26 62.5 39.5t75.5 13.5
q26 0 50.5 -8t43 -23t29.5 -37.5t11 -52.5z" />
    <glyph glyph-name="three.numr" unicode="&#xe071;" horiz-adv-x="356" 
d="M335 609q0 -44 -28 -73t-70 -43v-1q36 -11 55.5 -36.5t19.5 -59.5q0 -37 -14.5 -66.5t-40 -50.5t-59 -32t-71.5 -11q-35 0 -67.5 9.5t-57.5 27.5l33 60q16 -14 40 -26t52 -12q45 0 75.5 25t30.5 72q0 34 -26 51.5t-64 17.5h-42l12 57h39q18 0 37 4t34.5 13t25.5 23.5
t10 35.5q0 30 -22 46t-51 16q-28 0 -51.5 -10t-41.5 -27l-18 59q29 21 61 30.5t70 9.5q24 0 47 -6.5t41.5 -20t29.5 -34t11 -48.5z" />
    <glyph glyph-name="four.numr" unicode="&#xe072;" horiz-adv-x="356" 
d="M339 348h-60l-23 -101h-71l22 101h-204l13 66l239 292h98l-63 -301h60zM266 634q-8 -11 -20 -28.5t-26 -35.5l-138 -165h136l49 229h-1z" />
    <glyph glyph-name="five.numr" unicode="&#xe073;" horiz-adv-x="356" 
d="M348 645h-165l-31 -108q5 1 7 0.5t6 -0.5q32 0 60 -9t49 -26.5t33 -43t12 -59.5q0 -40 -15 -71t-40.5 -51t-58.5 -30.5t-70 -10.5q-35 0 -67.5 9.5t-57.5 27.5l33 60q17 -16 41.5 -27t52.5 -11q46 0 75 26.5t29 69.5q0 49 -33 69.5t-86 20.5h-49l64 225h225z" />
    <glyph glyph-name="six.numr" unicode="&#xe074;" horiz-adv-x="356" 
d="M346 644q-31 13 -61 13q-38 0 -66 -14t-48 -36.5t-32.5 -52t-20.5 -61.5q23 20 48 28.5t53 8.5q56 0 89 -34.5t33 -88.5q0 -39 -12.5 -70.5t-35 -54t-53 -34.5t-66.5 -12q-66 0 -104 41t-38 110q0 53 14 111.5t44.5 107.5t79 81t116.5 32q44 0 81 -12zM270 397
q0 33 -20.5 55t-58.5 22q-21 0 -39 -9t-29 -21q-14 -15 -16.5 -29.5t-2.5 -34.5q0 -34 19 -60t57 -26q42 0 66 29.5t24 73.5z" />
    <glyph glyph-name="seven.numr" unicode="&#xe075;" horiz-adv-x="356" 
d="M380 637q-51 -67 -93 -123t-75 -104q-19 -28 -33.5 -50.5t-24 -42t-15.5 -36.5t-9 -34h-83q8 37 29 78t61 95l164 223h-233l12 63h313z" />
    <glyph glyph-name="eight.numr" unicode="&#xe076;" horiz-adv-x="356" 
d="M350 618q0 -25 -8.5 -44.5t-23 -34.5t-33.5 -26t-40 -21q32 -22 55 -47.5t23 -66.5q0 -36 -14 -63t-37.5 -44.5t-54 -26.5t-63.5 -9q-25 0 -50 6.5t-45 20t-32 34.5t-12 49q0 29 9.5 51t25.5 39t37.5 30t45.5 25q-26 18 -44.5 42t-18.5 56q0 33 13 58t34 41.5t48.5 24.5
t56.5 8q24 0 47 -6t41 -18t29 -31.5t11 -46.5zM285 612q0 27 -21 42t-47 15q-15 0 -28.5 -5t-24.5 -14t-17.5 -22t-6.5 -28q0 -26 18 -44.5t41 -33.5q16 8 31.5 16.5t27.5 19.5t19.5 24.5t7.5 29.5zM251 367q0 32 -23 54t-49 38q-18 -9 -35 -19t-30.5 -22.5t-21.5 -28.5
t-8 -37q0 -32 24.5 -48t54.5 -16q35 0 61.5 20.5t26.5 58.5z" />
    <glyph glyph-name="nine.numr" unicode="&#xe077;" horiz-adv-x="356" 
d="M42 310q31 -13 61 -13q38 0 66 14t48 36.5t33 52.5t20 61q-23 -20 -48 -28.5t-53 -8.5q-56 0 -89 34.5t-33 88.5q0 39 12.5 70.5t35 54t53 34.5t66.5 12q66 0 104 -41t38 -110q0 -53 -14 -111.5t-44.5 -107.5t-79 -81t-116.5 -32q-43 0 -81 12zM118 557q0 -33 20.5 -55
t58.5 -22q21 0 39 9t29 21q14 15 16.5 29.5t2.5 34.5q0 34 -19 60t-57 26q-42 0 -66 -29.5t-24 -73.5z" />
    <glyph glyph-name="zero.dnom" unicode="&#xe078;" horiz-adv-x="356" 
d="M320 319q0 -48 -10.5 -105.5t-35.5 -108t-65 -84t-99 -33.5q-36 0 -60.5 11.5t-40 31.5t-22.5 48.5t-7 62.5q0 48 10.5 105.5t35.5 108t65 84t98 33.5q36 0 60.5 -11.5t40.5 -32t23 -48.5t7 -62zM247 325q0 14 -3 29.5t-10.5 28.5t-19.5 21t-30 8q-25 0 -44.5 -15.5
t-34 -40t-25 -55t-16.5 -61.5t-9 -58.5t-3 -46.5q0 -14 3 -29.5t10.5 -28t19.5 -21t30 -8.5q25 0 44.5 15.5t34 40t25 55.5t16.5 61.5t9 58.5t3 46z" />
    <glyph glyph-name="one.dnom" unicode="&#xe079;" horiz-adv-x="297" 
d="M118 0h-74l81 378q-24 -16 -56.5 -30t-60.5 -24l-16 58q36 14 78 34t79 43h66z" />
    <glyph glyph-name="two.dnom" unicode="&#xe07a;" horiz-adv-x="356" 
d="M296 351q0 -34 -12 -60.5t-31.5 -48t-44 -39t-49.5 -34.5q-34 -23 -66 -49t-41 -56h199l-12 -64h-283l11 55q7 25 21.5 46.5t34 40.5t42 35t43.5 30q17 11 36.5 24.5t36 29t27.5 34.5t11 42q0 32 -22 51t-55 19q-27 0 -52 -13t-42 -33l-24 58q29 26 62.5 39.5t75.5 13.5
q26 0 50.5 -8t43 -23t29.5 -37.5t11 -52.5z" />
    <glyph glyph-name="three.dnom" unicode="&#xe07b;" horiz-adv-x="356" 
d="M284 362q0 -44 -28 -73t-70 -43v-1q36 -11 55.5 -36.5t19.5 -59.5q0 -37 -14.5 -66.5t-40 -50.5t-59 -32t-71.5 -11q-35 0 -67.5 9.5t-57.5 27.5l33 60q16 -14 40 -26t52 -12q45 0 75.5 25t30.5 72q0 34 -26 51.5t-64 17.5h-42l12 57h39q18 0 37 4t34.5 13t25.5 23.5
t10 35.5q0 30 -22 46t-51 16q-28 0 -51.5 -10t-41.5 -27l-18 59q29 21 61 30.5t70 9.5q24 0 47 -6.5t41.5 -20t29.5 -34t11 -48.5z" />
    <glyph glyph-name="four.dnom" unicode="&#xe07c;" horiz-adv-x="356" 
d="M288 101h-60l-23 -101h-71l22 101h-204l13 66l239 292h98l-63 -301h60zM215 387q-8 -11 -20 -28.5t-26 -35.5l-138 -165h136l49 229h-1z" />
    <glyph glyph-name="five.dnom" unicode="&#xe07d;" horiz-adv-x="356" 
d="M297 398h-165l-31 -108q5 1 7 0.5t6 -0.5q32 0 60 -9t49 -26.5t33 -43t12 -59.5q0 -40 -15 -71t-40.5 -51t-58.5 -30.5t-70 -10.5q-35 0 -67.5 9.5t-57.5 27.5l33 60q17 -16 41.5 -27t52.5 -11q46 0 75 26.5t29 69.5q0 49 -33 69.5t-86 20.5h-49l64 225h225z" />
    <glyph glyph-name="six.dnom" unicode="&#xe07e;" horiz-adv-x="356" 
d="M295 397q-31 13 -61 13q-38 0 -66 -14t-48 -36.5t-32.5 -52t-20.5 -61.5q23 20 48 28.5t53 8.5q56 0 89 -34.5t33 -88.5q0 -39 -12.5 -70.5t-35 -54t-53 -34.5t-66.5 -12q-66 0 -104 41t-38 110q0 53 14 111.5t44.5 107.5t79 81t116.5 32q44 0 81 -12zM219 150
q0 33 -20.5 55t-58.5 22q-21 0 -39 -9t-29 -21q-14 -15 -16.5 -29.5t-2.5 -34.5q0 -34 19 -60t57 -26q42 0 66 29.5t24 73.5z" />
    </font>
</defs>
</svg>
